{"glyphs":{"0":{"ha":833,"x_min":0,"x_max":0,"o":"m 417 -22 b 69 492 201 -22 69 176 b 417 1008 69 810 201 1008 b 764 492 632 1008 764 810 b 417 -22 764 176 632 -22 m 194 492 b 229 256 194 399 207 319 l 546 832 b 417 892 511 871 467 892 b 194 492 279 892 194 738 m 417 94 b 639 492 554 94 639 249 b 604 729 639 586 626 667 l 288 154 b 417 94 322 115 365 94 "},"1":{"ha":833,"x_min":0,"x_max":0,"o":"m 83 117 l 394 117 l 394 731 l 136 731 l 136 833 l 269 833 b 417 986 375 833 417 875 l 514 986 l 514 117 l 750 117 l 750 0 l 83 0 "},"2":{"ha":833,"x_min":0,"x_max":0,"o":"m 69 0 b 447 503 69 208 151 346 b 638 719 583 575 638 619 b 440 892 638 821 571 892 b 200 683 301 892 221 817 l 75 692 b 440 1008 97 885 226 1008 b 763 722 643 1008 763 892 b 492 389 763 572 696 497 b 217 117 314 294 222 192 l 764 117 l 764 0 l 69 0 "},"3":{"ha":833,"x_min":0,"x_max":0,"o":"m 408 -22 b 69 254 194 -22 78 92 l 193 263 b 408 94 204 142 290 94 b 639 275 528 94 639 142 b 415 465 639 406 543 465 l 338 465 l 338 582 l 415 582 b 604 736 518 582 604 624 b 415 892 604 838 538 892 b 217 751 290 892 229 839 l 92 760 b 415 1008 110 907 224 1008 b 729 742 607 1008 729 906 b 558 531 729 636 671 565 b 764 275 686 496 764 401 b 408 -22 764 86 614 -22 "},"4":{"ha":833,"x_min":0,"x_max":0,"o":"m 539 214 l 56 214 l 56 322 l 531 986 l 658 986 l 658 331 l 778 331 l 778 214 l 658 214 l 658 0 l 539 0 m 539 331 l 539 819 l 178 331 "},"5":{"ha":833,"x_min":0,"x_max":0,"o":"m 414 -22 b 83 254 222 -22 97 90 l 208 263 b 414 94 222 151 300 94 b 625 317 542 94 625 178 b 417 542 625 456 547 542 b 228 432 339 542 260 501 l 100 432 l 165 986 l 690 986 l 690 869 l 275 869 l 239 572 b 433 656 288 628 364 656 b 750 317 622 656 750 514 b 414 -22 750 118 610 -22 "},"6":{"ha":833,"x_min":0,"x_max":0,"o":"m 419 -22 b 69 417 197 -22 69 135 b 458 1008 69 742 167 1008 b 764 775 633 1008 725 914 l 639 764 b 458 892 617 842 567 892 b 194 538 308 892 214 775 b 442 664 242 610 329 664 b 764 328 636 664 764 531 b 419 -22 764 111 624 -22 m 422 94 b 639 328 551 94 639 181 b 433 550 639 464 557 550 b 200 328 300 550 200 464 b 422 94 200 192 286 94 "},"7":{"ha":833,"x_min":0,"x_max":0,"o":"m 267 0 b 619 869 267 306 400 617 l 83 869 l 83 986 l 750 986 l 750 878 b 394 0 501 594 394 333 l 267 0 "},"8":{"ha":833,"x_min":0,"x_max":0,"o":"m 417 -22 b 69 271 221 -22 69 79 b 260 531 69 399 143 489 b 117 738 172 567 117 632 b 417 1008 117 893 242 1008 b 717 738 592 1008 717 893 b 574 531 717 632 661 567 b 764 271 690 489 764 399 b 417 -22 764 79 613 -22 m 417 579 b 592 738 522 579 592 632 b 417 892 592 832 525 892 b 242 738 308 892 242 832 b 417 579 242 632 311 579 m 417 94 b 639 278 546 94 639 153 b 417 468 639 393 564 468 b 194 278 269 468 194 393 b 417 94 194 153 288 94 "},"9":{"ha":833,"x_min":0,"x_max":0,"o":"m 414 1008 b 764 569 636 1008 764 851 b 375 -22 764 244 667 -22 b 69 211 200 -22 108 72 l 194 222 b 375 94 217 144 267 94 b 639 449 525 94 619 211 b 392 322 592 376 504 322 b 69 658 197 322 69 456 b 414 1008 69 875 210 1008 m 411 892 b 194 658 282 892 194 806 b 400 436 194 522 276 436 b 633 658 533 436 633 522 b 411 892 633 794 547 892 "},"A":{"ha":833,"x_min":0,"x_max":0,"o":"m 336 986 l 497 986 l 797 0 l 669 0 l 589 281 l 244 281 l 164 0 l 36 0 m 278 397 l 556 397 l 417 878 "},"Á":{"ha":833,"x_min":0,"x_max":0,"o":"m 456 1261 l 586 1261 l 461 1083 l 364 1083 m 336 986 l 497 986 l 797 0 l 669 0 l 589 281 l 244 281 l 164 0 l 36 0 m 278 397 l 556 397 l 417 878 "},"Ă":{"ha":833,"x_min":0,"x_max":0,"o":"m 417 1088 b 222 1265 303 1088 228 1157 l 303 1265 b 417 1174 311 1201 353 1174 b 531 1265 481 1174 522 1201 l 611 1265 b 417 1088 606 1157 531 1088 m 336 986 l 497 986 l 797 0 l 669 0 l 589 281 l 244 281 l 164 0 l 36 0 m 278 397 l 556 397 l 417 878 "},"Ǎ":{"ha":833,"x_min":0,"x_max":0,"o":"m 319 1265 l 417 1140 l 514 1265 l 611 1265 l 482 1081 l 351 1081 l 222 1265 m 336 986 l 497 986 l 797 0 l 669 0 l 589 281 l 244 281 l 164 0 l 36 0 m 278 397 l 556 397 l 417 878 "},"Â":{"ha":833,"x_min":0,"x_max":0,"o":"m 350 1265 l 481 1265 l 610 1081 l 513 1081 l 415 1206 l 318 1081 l 221 1081 m 336 986 l 497 986 l 797 0 l 669 0 l 589 281 l 244 281 l 164 0 l 36 0 m 278 397 l 556 397 l 417 878 "},"Ä":{"ha":833,"x_min":0,"x_max":0,"o":"m 222 1238 l 344 1238 l 344 1101 l 222 1101 m 489 1238 l 611 1238 l 611 1101 l 489 1101 m 336 986 l 497 986 l 797 0 l 669 0 l 589 281 l 244 281 l 164 0 l 36 0 m 278 397 l 556 397 l 417 878 "},"À":{"ha":833,"x_min":0,"x_max":0,"o":"m 250 1261 l 381 1261 l 472 1083 l 375 1083 m 336 986 l 497 986 l 797 0 l 669 0 l 589 281 l 244 281 l 164 0 l 36 0 m 278 397 l 556 397 l 417 878 "},"Ā":{"ha":833,"x_min":0,"x_max":0,"o":"m 229 1218 l 601 1218 l 601 1118 l 229 1118 m 336 986 l 497 986 l 797 0 l 669 0 l 589 281 l 244 281 l 164 0 l 36 0 m 278 397 l 556 397 l 417 878 "},"Ą":{"ha":833,"x_min":0,"x_max":0,"o":"m 336 986 l 497 986 l 797 0 l 749 -62 b 706 -156 713 -110 706 -133 b 747 -197 706 -183 721 -197 b 811 -178 767 -197 794 -192 l 844 -256 b 725 -292 822 -278 778 -292 b 600 -181 647 -292 600 -250 b 657 -42 600 -133 618 -90 l 690 0 l 669 0 l 589 281 l 244 281 l 164 0 l 36 0 m 278 397 l 556 397 l 417 878 "},"Å":{"ha":833,"x_min":0,"x_max":0,"o":"m 417 1050 b 289 1178 344 1050 289 1106 b 417 1306 289 1250 344 1306 b 544 1178 489 1306 544 1250 b 417 1050 544 1106 489 1050 m 417 1119 b 475 1178 450 1119 475 1144 b 417 1236 475 1211 450 1236 b 358 1178 383 1236 358 1211 b 417 1119 358 1144 383 1119 m 336 986 l 497 986 l 797 0 l 669 0 l 589 281 l 244 281 l 164 0 l 36 0 m 278 397 l 556 397 l 417 878 "},"Ã":{"ha":833,"x_min":0,"x_max":0,"o":"m 500 1097 b 403 1139 464 1097 433 1114 b 331 1175 371 1165 358 1175 b 269 1088 297 1175 272 1154 l 197 1088 b 331 1250 200 1194 256 1250 b 436 1206 375 1250 404 1232 b 506 1172 465 1182 483 1172 b 564 1264 540 1172 558 1194 l 636 1264 b 500 1097 631 1158 579 1097 m 336 986 l 497 986 l 797 0 l 669 0 l 589 281 l 244 281 l 164 0 l 36 0 m 278 397 l 556 397 l 417 878 "},"Æ":{"ha":833,"x_min":0,"x_max":0,"o":"m 328 986 l 794 986 l 794 869 l 556 869 l 556 551 l 778 551 l 778 438 l 556 438 l 556 117 l 806 117 l 806 0 l 436 0 l 436 281 l 226 281 l 139 0 l 14 0 m 263 397 l 436 397 l 436 874 l 411 874 "},"B":{"ha":833,"x_min":0,"x_max":0,"o":"m 125 986 l 403 986 b 731 717 619 986 731 883 b 551 508 731 610 660 528 b 772 275 690 490 772 403 b 438 0 772 104 646 0 l 125 0 m 408 560 b 606 714 544 560 606 615 b 408 869 606 814 544 869 l 244 869 l 244 560 m 439 117 b 647 275 581 117 647 175 b 439 443 647 381 575 443 l 244 443 l 244 117 "},"C":{"ha":833,"x_min":0,"x_max":0,"o":"m 419 -22 b 53 492 183 -22 53 176 b 419 1008 53 810 183 1008 b 764 685 593 1008 722 889 l 636 676 b 419 892 604 818 522 892 b 178 492 263 892 178 747 b 419 94 178 238 263 94 b 646 332 533 94 618 175 l 772 325 b 419 -22 736 108 606 -22 "},"Ć":{"ha":833,"x_min":0,"x_max":0,"o":"m 458 1261 l 589 1261 l 464 1083 l 367 1083 m 419 -22 b 53 492 183 -22 53 176 b 419 1008 53 810 183 1008 b 764 685 593 1008 722 889 l 636 676 b 419 892 604 818 522 892 b 178 492 263 892 178 747 b 419 94 178 238 263 94 b 646 332 533 94 618 175 l 772 325 b 419 -22 736 108 606 -22 "},"Č":{"ha":833,"x_min":0,"x_max":0,"o":"m 322 1265 l 419 1140 l 517 1265 l 614 1265 l 485 1081 l 354 1081 l 225 1265 m 419 -22 b 53 492 183 -22 53 176 b 419 1008 53 810 183 1008 b 764 685 593 1008 722 889 l 636 676 b 419 892 604 818 522 892 b 178 492 263 892 178 747 b 419 94 178 238 263 94 b 646 332 533 94 618 175 l 772 325 b 419 -22 736 108 606 -22 "},"Ç":{"ha":833,"x_min":0,"x_max":0,"o":"m 424 -306 b 261 -197 335 -306 281 -258 l 332 -169 b 421 -228 349 -211 375 -228 b 496 -172 468 -228 496 -207 b 390 -111 496 -137 479 -111 l 351 -69 l 382 -21 b 53 492 169 0 53 193 b 419 1008 53 810 183 1008 b 764 685 593 1008 722 889 l 636 676 b 419 892 604 818 522 892 b 178 492 263 892 178 747 b 419 94 178 238 263 94 b 646 332 533 94 618 175 l 772 325 b 468 -19 739 128 629 3 l 446 -50 b 579 -175 536 -54 579 -103 b 424 -306 579 -253 514 -306 "},"Ĉ":{"ha":833,"x_min":0,"x_max":0,"o":"m 353 1265 l 483 1265 l 613 1081 l 515 1081 l 418 1206 l 321 1081 l 224 1081 m 419 -22 b 53 492 183 -22 53 176 b 419 1008 53 810 183 1008 b 764 685 593 1008 722 889 l 636 676 b 419 892 604 818 522 892 b 178 492 263 892 178 747 b 419 94 178 238 263 94 b 646 332 533 94 618 175 l 772 325 b 419 -22 736 108 606 -22 "},"Ċ":{"ha":833,"x_min":0,"x_max":0,"o":"m 357 1238 l 479 1238 l 479 1101 l 357 1101 m 419 -22 b 53 492 183 -22 53 176 b 419 1008 53 810 183 1008 b 764 685 593 1008 722 889 l 636 676 b 419 892 604 818 522 892 b 178 492 263 892 178 747 b 419 94 178 238 263 94 b 646 332 533 94 618 175 l 772 325 b 419 -22 736 108 606 -22 "},"D":{"ha":833,"x_min":0,"x_max":0,"o":"m 125 986 l 358 986 b 781 492 614 986 781 808 b 358 0 781 175 614 0 l 125 0 m 351 117 b 656 492 543 117 656 242 b 351 869 656 742 543 869 l 244 869 l 244 117 "},"Ď":{"ha":833,"x_min":0,"x_max":0,"o":"m 319 1265 l 417 1140 l 514 1265 l 611 1265 l 482 1081 l 351 1081 l 222 1265 m 125 986 l 358 986 b 781 492 614 986 781 808 b 358 0 781 175 614 0 l 125 0 m 351 117 b 656 492 543 117 656 242 b 351 869 656 742 543 869 l 244 869 l 244 117 "},"Đ":{"ha":833,"x_min":0,"x_max":0,"o":"m 125 439 l 28 439 l 28 547 l 125 547 l 125 986 l 358 986 b 781 492 614 986 781 808 b 358 0 781 175 614 0 l 125 0 m 351 117 b 656 492 543 117 656 242 b 351 869 656 742 543 869 l 244 869 l 244 547 l 472 547 l 472 439 l 244 439 l 244 117 "},"Ð":{"ha":833,"x_min":0,"x_max":0,"o":"m 125 439 l 28 439 l 28 547 l 125 547 l 125 986 l 358 986 b 781 492 614 986 781 808 b 358 0 781 175 614 0 l 125 0 m 351 117 b 656 492 543 117 656 242 b 351 869 656 742 543 869 l 244 869 l 244 547 l 472 547 l 472 439 l 244 439 l 244 117 "},"E":{"ha":833,"x_min":0,"x_max":0,"o":"m 125 986 l 725 986 l 725 869 l 244 869 l 244 551 l 708 551 l 708 438 l 244 438 l 244 117 l 736 117 l 736 0 l 125 0 "},"É":{"ha":833,"x_min":0,"x_max":0,"o":"m 481 1263 l 611 1263 l 486 1085 l 389 1085 m 125 986 l 725 986 l 725 869 l 244 869 l 244 551 l 708 551 l 708 438 l 244 438 l 244 117 l 736 117 l 736 0 l 125 0 "},"Ě":{"ha":833,"x_min":0,"x_max":0,"o":"m 344 1267 l 442 1142 l 539 1267 l 636 1267 l 507 1082 l 376 1082 l 247 1267 m 125 986 l 725 986 l 725 869 l 244 869 l 244 551 l 708 551 l 708 438 l 244 438 l 244 117 l 736 117 l 736 0 l 125 0 "},"Ê":{"ha":833,"x_min":0,"x_max":0,"o":"m 375 1267 l 506 1267 l 635 1082 l 538 1082 l 440 1207 l 343 1082 l 246 1082 m 125 986 l 725 986 l 725 869 l 244 869 l 244 551 l 708 551 l 708 438 l 244 438 l 244 117 l 736 117 l 736 0 l 125 0 "},"Ë":{"ha":833,"x_min":0,"x_max":0,"o":"m 247 1239 l 369 1239 l 369 1103 l 247 1103 m 514 1239 l 636 1239 l 636 1103 l 514 1103 m 125 986 l 725 986 l 725 869 l 244 869 l 244 551 l 708 551 l 708 438 l 244 438 l 244 117 l 736 117 l 736 0 l 125 0 "},"Ė":{"ha":833,"x_min":0,"x_max":0,"o":"m 379 1239 l 501 1239 l 501 1103 l 379 1103 m 125 986 l 725 986 l 725 869 l 244 869 l 244 551 l 708 551 l 708 438 l 244 438 l 244 117 l 736 117 l 736 0 l 125 0 "},"È":{"ha":833,"x_min":0,"x_max":0,"o":"m 275 1263 l 406 1263 l 497 1085 l 400 1085 m 125 986 l 725 986 l 725 869 l 244 869 l 244 551 l 708 551 l 708 438 l 244 438 l 244 117 l 736 117 l 736 0 l 125 0 "},"Ē":{"ha":833,"x_min":0,"x_max":0,"o":"m 254 1219 l 626 1219 l 626 1119 l 254 1119 m 125 986 l 725 986 l 725 869 l 244 869 l 244 551 l 708 551 l 708 438 l 244 438 l 244 117 l 736 117 l 736 0 l 125 0 "},"Ę":{"ha":833,"x_min":0,"x_max":0,"o":"m 125 986 l 725 986 l 725 869 l 244 869 l 244 551 l 708 551 l 708 438 l 244 438 l 244 117 l 736 117 l 736 1 l 742 0 l 693 -62 b 650 -156 657 -110 650 -133 b 692 -197 650 -183 665 -197 b 756 -178 711 -197 739 -192 l 789 -256 b 669 -292 767 -278 722 -292 b 544 -181 592 -292 544 -250 b 601 -42 544 -133 563 -90 l 635 0 l 125 0 "},"Ẽ":{"ha":833,"x_min":0,"x_max":0,"o":"m 525 1099 b 428 1140 489 1099 458 1115 b 356 1176 396 1167 383 1176 b 294 1089 322 1176 297 1156 l 222 1089 b 356 1251 225 1196 281 1251 b 461 1207 400 1251 429 1233 b 531 1174 490 1183 508 1174 b 589 1265 565 1174 583 1196 l 661 1265 b 525 1099 656 1160 604 1099 m 125 986 l 725 986 l 725 869 l 244 869 l 244 551 l 708 551 l 708 438 l 244 438 l 244 117 l 736 117 l 736 0 l 125 0 "},"Ə":{"ha":833,"x_min":0,"x_max":0,"o":"m 428 -22 b 53 476 192 -22 53 181 l 53 542 l 668 542 b 419 892 668 751 574 892 b 203 681 306 892 233 808 l 72 692 b 414 1008 128 890 249 1008 b 794 493 654 1008 794 824 b 428 -22 794 176 643 -22 m 428 94 b 667 425 574 94 667 219 l 182 425 b 428 94 182 219 275 94 "},"F":{"ha":833,"x_min":0,"x_max":0,"o":"m 139 986 l 750 986 l 750 872 l 258 872 l 258 539 l 725 539 l 725 425 l 258 425 l 258 0 l 139 0 "},"G":{"ha":833,"x_min":0,"x_max":0,"o":"m 414 -22 b 53 492 206 -22 53 153 b 419 1008 53 810 189 1008 b 765 692 600 1008 722 878 l 640 683 b 419 892 608 806 536 892 b 178 492 265 892 178 747 b 425 94 178 238 268 94 b 658 385 565 94 653 214 l 422 385 l 422 499 l 769 499 l 769 0 l 658 0 l 656 136 b 414 -22 610 40 536 -22 "},"Ğ":{"ha":833,"x_min":0,"x_max":0,"o":"m 415 1088 b 221 1265 301 1088 226 1157 l 301 1265 b 415 1174 310 1201 351 1174 b 529 1265 479 1174 521 1201 l 610 1265 b 415 1088 604 1157 529 1088 m 414 -22 b 53 492 206 -22 53 153 b 419 1008 53 810 189 1008 b 765 692 600 1008 722 878 l 640 683 b 419 892 608 806 536 892 b 178 492 265 892 178 747 b 425 94 178 238 268 94 b 658 385 565 94 653 214 l 422 385 l 422 499 l 769 499 l 769 0 l 658 0 l 656 136 b 414 -22 610 40 536 -22 "},"Ǧ":{"ha":833,"x_min":0,"x_max":0,"o":"m 318 1265 l 415 1140 l 513 1265 l 610 1265 l 481 1081 l 350 1081 l 221 1265 m 414 -22 b 53 492 206 -22 53 153 b 419 1008 53 810 189 1008 b 765 692 600 1008 722 878 l 640 683 b 419 892 608 806 536 892 b 178 492 265 892 178 747 b 425 94 178 238 268 94 b 658 385 565 94 653 214 l 422 385 l 422 499 l 769 499 l 769 0 l 658 0 l 656 136 b 414 -22 610 40 536 -22 "},"Ĝ":{"ha":833,"x_min":0,"x_max":0,"o":"m 349 1265 l 479 1265 l 608 1081 l 511 1081 l 414 1206 l 317 1081 l 219 1081 m 414 -22 b 53 492 206 -22 53 153 b 419 1008 53 810 189 1008 b 765 692 600 1008 722 878 l 640 683 b 419 892 608 806 536 892 b 178 492 265 892 178 747 b 425 94 178 238 268 94 b 658 385 565 94 653 214 l 422 385 l 422 499 l 769 499 l 769 0 l 658 0 l 656 136 b 414 -22 610 40 536 -22 "},"Ģ":{"ha":833,"x_min":0,"x_max":0,"o":"m 414 -22 b 53 492 206 -22 53 153 b 419 1008 53 810 189 1008 b 765 692 600 1008 722 878 l 640 683 b 419 892 608 806 536 892 b 178 492 265 892 178 747 b 425 94 178 238 268 94 b 658 385 565 94 653 214 l 422 385 l 422 499 l 769 499 l 769 0 l 658 0 l 656 136 b 414 -22 610 40 536 -22 m 393 -200 l 346 -200 l 346 -75 l 485 -75 l 485 -194 l 396 -333 l 318 -333 "},"Ġ":{"ha":833,"x_min":0,"x_max":0,"o":"m 353 1238 l 475 1238 l 475 1101 l 353 1101 m 414 -22 b 53 492 206 -22 53 153 b 419 1008 53 810 189 1008 b 765 692 600 1008 722 878 l 640 683 b 419 892 608 806 536 892 b 178 492 265 892 178 747 b 425 94 178 238 268 94 b 658 385 565 94 653 214 l 422 385 l 422 499 l 769 499 l 769 0 l 658 0 l 656 136 b 414 -22 610 40 536 -22 "},"Ḡ":{"ha":833,"x_min":0,"x_max":0,"o":"m 228 1218 l 600 1218 l 600 1118 l 228 1118 m 414 -22 b 53 492 206 -22 53 153 b 419 1008 53 810 189 1008 b 765 692 600 1008 722 878 l 640 683 b 419 892 608 806 536 892 b 178 492 265 892 178 747 b 425 94 178 238 268 94 b 658 385 565 94 653 214 l 422 385 l 422 499 l 769 499 l 769 0 l 658 0 l 656 136 b 414 -22 610 40 536 -22 "},"Ǥ":{"ha":833,"x_min":0,"x_max":0,"o":"m 415 -22 b 28 492 182 -22 28 178 b 415 1008 28 807 182 1008 b 768 692 613 1008 725 875 l 643 683 b 415 892 613 806 546 892 b 153 492 249 892 153 733 b 415 94 153 251 249 94 b 619 207 510 94 581 133 l 425 207 l 425 304 l 651 304 b 658 385 656 329 658 356 l 425 385 l 425 499 l 778 499 l 778 431 b 769 304 778 385 775 343 l 814 304 l 814 207 l 746 207 b 415 -22 693 54 578 -22 "},"H":{"ha":833,"x_min":0,"x_max":0,"o":"m 83 986 l 203 986 l 203 554 l 631 554 l 631 986 l 750 986 l 750 0 l 631 0 l 631 438 l 203 438 l 203 0 l 83 0 "},"Ħ":{"ha":833,"x_min":0,"x_max":0,"o":"m 83 733 l 28 733 l 28 844 l 83 844 l 83 986 l 203 986 l 203 844 l 631 844 l 631 986 l 750 986 l 750 844 l 806 844 l 806 733 l 750 733 l 750 0 l 631 0 l 631 438 l 203 438 l 203 0 l 83 0 m 631 554 l 631 733 l 203 733 l 203 554 "},"Ĥ":{"ha":833,"x_min":0,"x_max":0,"o":"m 350 1265 l 481 1265 l 610 1081 l 513 1081 l 415 1206 l 318 1081 l 221 1081 m 83 986 l 203 986 l 203 554 l 631 554 l 631 986 l 750 986 l 750 0 l 631 0 l 631 438 l 203 438 l 203 0 l 83 0 "},"I":{"ha":833,"x_min":0,"x_max":0,"o":"m 111 117 l 357 117 l 357 869 l 111 869 l 111 986 l 722 986 l 722 869 l 476 869 l 476 117 l 722 117 l 722 0 l 111 0 "},"Í":{"ha":833,"x_min":0,"x_max":0,"o":"m 456 1261 l 586 1261 l 461 1083 l 364 1083 m 111 117 l 357 117 l 357 869 l 111 869 l 111 986 l 722 986 l 722 869 l 476 869 l 476 117 l 722 117 l 722 0 l 111 0 "},"Î":{"ha":833,"x_min":0,"x_max":0,"o":"m 350 1265 l 481 1265 l 610 1081 l 513 1081 l 415 1206 l 318 1081 l 221 1081 m 111 117 l 357 117 l 357 869 l 111 869 l 111 986 l 722 986 l 722 869 l 476 869 l 476 117 l 722 117 l 722 0 l 111 0 "},"Ï":{"ha":833,"x_min":0,"x_max":0,"o":"m 222 1238 l 344 1238 l 344 1101 l 222 1101 m 489 1238 l 611 1238 l 611 1101 l 489 1101 m 111 117 l 357 117 l 357 869 l 111 869 l 111 986 l 722 986 l 722 869 l 476 869 l 476 117 l 722 117 l 722 0 l 111 0 "},"İ":{"ha":833,"x_min":0,"x_max":0,"o":"m 354 1238 l 476 1238 l 476 1101 l 354 1101 m 111 117 l 357 117 l 357 869 l 111 869 l 111 986 l 722 986 l 722 869 l 476 869 l 476 117 l 722 117 l 722 0 l 111 0 "},"Ì":{"ha":833,"x_min":0,"x_max":0,"o":"m 250 1261 l 381 1261 l 472 1083 l 375 1083 m 111 117 l 357 117 l 357 869 l 111 869 l 111 986 l 722 986 l 722 869 l 476 869 l 476 117 l 722 117 l 722 0 l 111 0 "},"Ī":{"ha":833,"x_min":0,"x_max":0,"o":"m 229 1218 l 601 1218 l 601 1118 l 229 1118 m 111 117 l 357 117 l 357 869 l 111 869 l 111 986 l 722 986 l 722 869 l 476 869 l 476 117 l 722 117 l 722 0 l 111 0 "},"Į":{"ha":833,"x_min":0,"x_max":0,"o":"m 111 117 l 357 117 l 357 869 l 111 869 l 111 986 l 722 986 l 722 869 l 476 869 l 476 117 l 722 117 l 722 0 l 674 -62 b 631 -156 638 -110 631 -133 b 672 -197 631 -183 646 -197 b 736 -178 692 -197 719 -192 l 769 -256 b 650 -292 747 -278 703 -292 b 525 -181 572 -292 525 -250 b 582 -42 525 -133 543 -90 l 615 0 l 111 0 "},"Ĩ":{"ha":833,"x_min":0,"x_max":0,"o":"m 500 1097 b 403 1139 464 1097 433 1114 b 331 1175 371 1165 358 1175 b 269 1088 297 1175 272 1154 l 197 1088 b 331 1250 200 1194 256 1250 b 436 1206 375 1250 404 1232 b 506 1172 465 1182 483 1172 b 564 1264 540 1172 558 1194 l 636 1264 b 500 1097 631 1158 579 1097 m 111 117 l 357 117 l 357 869 l 111 869 l 111 986 l 722 986 l 722 869 l 476 869 l 476 117 l 722 117 l 722 0 l 111 0 "},"J":{"ha":833,"x_min":0,"x_max":0,"o":"m 382 -22 b 56 319 188 -22 61 111 l 172 331 b 382 94 178 171 244 94 b 589 331 519 94 589 174 l 589 986 l 708 986 l 708 331 b 382 -22 708 113 583 -22 "},"Ĵ":{"ha":833,"x_min":0,"x_max":0,"o":"m 579 1265 l 710 1265 l 839 1081 l 742 1081 l 644 1206 l 547 1081 l 450 1081 m 382 -22 b 56 319 188 -22 61 111 l 172 331 b 382 94 178 171 244 94 b 589 331 519 94 589 174 l 589 986 l 708 986 l 708 331 b 382 -22 708 113 583 -22 "},"K":{"ha":833,"x_min":0,"x_max":0,"o":"m 83 986 l 203 986 l 203 492 l 617 986 l 764 986 l 393 553 l 778 0 l 631 0 l 314 460 l 203 331 l 203 0 l 83 0 "},"Ǩ":{"ha":833,"x_min":0,"x_max":0,"o":"m 288 1265 l 385 1140 l 482 1265 l 579 1265 l 450 1081 l 319 1081 l 190 1265 m 83 986 l 203 986 l 203 492 l 617 986 l 764 986 l 393 553 l 778 0 l 631 0 l 314 460 l 203 331 l 203 0 l 83 0 "},"Ķ":{"ha":833,"x_min":0,"x_max":0,"o":"m 83 986 l 203 986 l 203 492 l 617 986 l 764 986 l 393 553 l 778 0 l 631 0 l 314 460 l 203 331 l 203 0 l 83 0 m 372 -200 l 325 -200 l 325 -75 l 464 -75 l 464 -194 l 375 -333 l 297 -333 "},"L":{"ha":833,"x_min":0,"x_max":0,"o":"m 139 986 l 258 986 l 258 117 l 750 117 l 750 0 l 139 0 "},"Ĺ":{"ha":833,"x_min":0,"x_max":0,"o":"m 238 1261 l 368 1261 l 243 1083 l 146 1083 m 139 986 l 258 986 l 258 117 l 750 117 l 750 0 l 139 0 "},"Ľ":{"ha":833,"x_min":0,"x_max":0,"o":"m 139 986 l 258 986 l 258 117 l 750 117 l 750 0 l 139 0 m 533 986 l 650 986 l 575 633 l 492 633 "},"Ļ":{"ha":833,"x_min":0,"x_max":0,"o":"m 139 986 l 258 986 l 258 117 l 750 117 l 750 0 l 139 0 m 424 -200 l 376 -200 l 376 -75 l 515 -75 l 515 -194 l 426 -333 l 349 -333 "},"Ł":{"ha":833,"x_min":0,"x_max":0,"o":"m 139 414 l 42 364 l 42 469 l 139 519 l 139 986 l 258 986 l 258 582 l 469 692 l 469 586 l 258 476 l 258 117 l 750 117 l 750 0 l 139 0 "},"M":{"ha":833,"x_min":0,"x_max":0,"o":"m 189 829 l 189 0 l 69 0 l 69 986 l 250 986 l 417 290 l 583 986 l 764 986 l 764 0 l 644 0 l 644 829 l 469 111 l 364 111 "},"N":{"ha":833,"x_min":0,"x_max":0,"o":"m 97 986 l 267 986 l 617 136 l 617 986 l 736 986 l 736 0 l 567 0 l 217 850 l 217 0 l 97 0 "},"Ń":{"ha":833,"x_min":0,"x_max":0,"o":"m 456 1261 l 586 1261 l 461 1083 l 364 1083 m 97 986 l 267 986 l 617 136 l 617 986 l 736 986 l 736 0 l 567 0 l 217 850 l 217 0 l 97 0 "},"Ň":{"ha":833,"x_min":0,"x_max":0,"o":"m 319 1265 l 417 1140 l 514 1265 l 611 1265 l 482 1081 l 351 1081 l 222 1265 m 97 986 l 267 986 l 617 136 l 617 986 l 736 986 l 736 0 l 567 0 l 217 850 l 217 0 l 97 0 "},"Ņ":{"ha":833,"x_min":0,"x_max":0,"o":"m 97 986 l 267 986 l 617 136 l 617 986 l 736 986 l 736 0 l 567 0 l 217 850 l 217 0 l 97 0 m 394 -200 l 347 -200 l 347 -75 l 486 -75 l 486 -194 l 397 -333 l 319 -333 "},"Ñ":{"ha":833,"x_min":0,"x_max":0,"o":"m 500 1097 b 403 1139 464 1097 433 1114 b 331 1175 371 1165 358 1175 b 269 1088 297 1175 272 1154 l 197 1088 b 331 1250 200 1194 256 1250 b 436 1206 375 1250 404 1232 b 506 1172 465 1182 483 1172 b 564 1264 540 1172 558 1194 l 636 1264 b 500 1097 631 1158 579 1097 m 97 986 l 267 986 l 617 136 l 617 986 l 736 986 l 736 0 l 567 0 l 217 850 l 217 0 l 97 0 "},"Ŋ":{"ha":833,"x_min":0,"x_max":0,"o":"m 97 986 l 267 986 l 617 136 l 617 986 l 736 986 l 736 -10 b 528 -208 736 -131 656 -208 l 385 -208 l 385 -92 l 528 -92 b 617 -11 586 -92 617 -64 l 617 0 l 567 0 l 217 850 l 217 0 l 97 0 "},"O":{"ha":833,"x_min":0,"x_max":0,"o":"m 417 -22 b 53 492 183 -22 53 163 b 417 1008 53 824 183 1008 b 781 492 650 1008 781 824 b 417 -22 781 163 650 -22 m 417 94 b 656 492 569 94 656 233 b 417 892 656 750 569 892 b 178 492 264 892 178 750 b 417 94 178 233 264 94 "},"Ó":{"ha":833,"x_min":0,"x_max":0,"o":"m 456 1261 l 586 1261 l 461 1083 l 364 1083 m 417 -22 b 53 492 183 -22 53 163 b 417 1008 53 824 183 1008 b 781 492 650 1008 781 824 b 417 -22 781 163 650 -22 m 417 94 b 656 492 569 94 656 233 b 417 892 656 750 569 892 b 178 492 264 892 178 750 b 417 94 178 233 264 94 "},"Ô":{"ha":833,"x_min":0,"x_max":0,"o":"m 350 1265 l 481 1265 l 610 1081 l 513 1081 l 415 1206 l 318 1081 l 221 1081 m 417 -22 b 53 492 183 -22 53 163 b 417 1008 53 824 183 1008 b 781 492 650 1008 781 824 b 417 -22 781 163 650 -22 m 417 94 b 656 492 569 94 656 233 b 417 892 656 750 569 892 b 178 492 264 892 178 750 b 417 94 178 233 264 94 "},"Ö":{"ha":833,"x_min":0,"x_max":0,"o":"m 222 1238 l 344 1238 l 344 1101 l 222 1101 m 489 1238 l 611 1238 l 611 1101 l 489 1101 m 417 -22 b 53 492 183 -22 53 163 b 417 1008 53 824 183 1008 b 781 492 650 1008 781 824 b 417 -22 781 163 650 -22 m 417 94 b 656 492 569 94 656 233 b 417 892 656 750 569 892 b 178 492 264 892 178 750 b 417 94 178 233 264 94 "},"Ò":{"ha":833,"x_min":0,"x_max":0,"o":"m 250 1261 l 381 1261 l 472 1083 l 375 1083 m 417 -22 b 53 492 183 -22 53 163 b 417 1008 53 824 183 1008 b 781 492 650 1008 781 824 b 417 -22 781 163 650 -22 m 417 94 b 656 492 569 94 656 233 b 417 892 656 750 569 892 b 178 492 264 892 178 750 b 417 94 178 233 264 94 "},"Ő":{"ha":833,"x_min":0,"x_max":0,"o":"m 356 1258 l 486 1258 l 361 1081 l 264 1081 m 550 1258 l 681 1258 l 556 1081 l 458 1081 m 417 -22 b 53 492 183 -22 53 163 b 417 1008 53 824 183 1008 b 781 492 650 1008 781 824 b 417 -22 781 163 650 -22 m 417 94 b 656 492 569 94 656 233 b 417 892 656 750 569 892 b 178 492 264 892 178 750 b 417 94 178 233 264 94 "},"Ō":{"ha":833,"x_min":0,"x_max":0,"o":"m 229 1218 l 601 1218 l 601 1118 l 229 1118 m 417 -22 b 53 492 183 -22 53 163 b 417 1008 53 824 183 1008 b 781 492 650 1008 781 824 b 417 -22 781 163 650 -22 m 417 94 b 656 492 569 94 656 233 b 417 892 656 750 569 892 b 178 492 264 892 178 750 b 417 94 178 233 264 94 "},"Ø":{"ha":833,"x_min":0,"x_max":0,"o":"m 140 122 b 53 492 83 208 53 333 b 417 1008 53 824 183 1008 b 622 942 499 1008 567 986 l 661 1008 l 778 1008 l 693 864 b 781 492 750 776 781 651 b 417 -22 781 163 650 -22 b 211 43 335 -22 267 0 l 172 -22 l 56 -22 m 178 492 b 215 249 178 393 190 311 l 558 833 b 417 892 521 872 474 892 b 178 492 264 892 178 750 m 417 94 b 656 492 569 94 656 233 b 618 738 656 592 643 674 l 275 151 b 417 94 313 114 360 94 "},"Õ":{"ha":833,"x_min":0,"x_max":0,"o":"m 500 1097 b 403 1139 464 1097 433 1114 b 331 1175 371 1165 358 1175 b 269 1088 297 1175 272 1154 l 197 1088 b 331 1250 200 1194 256 1250 b 436 1206 375 1250 404 1232 b 506 1172 465 1182 483 1172 b 564 1264 540 1172 558 1194 l 636 1264 b 500 1097 631 1158 579 1097 m 417 -22 b 53 492 183 -22 53 163 b 417 1008 53 824 183 1008 b 781 492 650 1008 781 824 b 417 -22 781 163 650 -22 m 417 94 b 656 492 569 94 656 233 b 417 892 656 750 569 892 b 178 492 264 892 178 750 b 417 94 178 233 264 94 "},"Œ":{"ha":833,"x_min":0,"x_max":0,"o":"m 294 -22 b 14 492 115 -22 14 158 b 294 1008 14 825 115 1008 b 456 924 361 1008 414 978 l 456 986 l 808 986 l 808 869 l 575 869 l 575 551 l 792 551 l 792 438 l 575 438 l 575 117 l 819 117 l 819 0 l 456 0 l 456 61 b 294 -22 414 8 361 -22 m 294 94 b 453 492 413 94 453 233 b 294 892 453 753 413 892 b 136 492 176 892 136 753 b 294 94 136 233 176 94 "},"P":{"ha":833,"x_min":0,"x_max":0,"o":"m 125 986 l 425 986 b 764 685 631 986 764 874 b 425 383 764 496 631 383 l 244 383 l 244 0 l 125 0 m 411 500 b 639 685 567 500 639 565 b 411 869 639 804 567 869 l 244 869 l 244 500 "},"Þ":{"ha":833,"x_min":0,"x_max":0,"o":"m 125 986 l 244 986 l 244 808 l 428 808 b 778 511 649 808 778 699 b 428 207 778 321 649 207 l 244 207 l 244 0 l 125 0 m 244 692 l 244 324 l 428 324 b 653 511 578 324 653 388 b 428 692 653 632 578 692 "},"Q":{"ha":833,"x_min":0,"x_max":0,"o":"m 417 -22 b 53 492 183 -22 53 163 b 417 1008 53 824 183 1008 b 781 492 650 1008 781 824 b 626 47 781 281 726 129 l 725 -96 l 597 -96 l 535 -4 b 417 -22 499 -17 460 -22 m 417 94 b 464 99 433 94 449 96 l 333 289 l 461 289 l 557 150 b 656 492 621 213 656 328 b 417 892 656 750 569 892 b 178 492 264 892 178 750 b 417 94 178 233 264 94 "},"R":{"ha":833,"x_min":0,"x_max":0,"o":"m 97 986 l 397 986 b 733 692 604 986 733 875 b 567 460 733 575 654 489 b 717 283 661 442 707 389 l 742 0 l 622 0 l 599 268 b 422 397 590 360 550 397 l 217 397 l 217 0 l 97 0 m 397 514 b 608 692 533 514 608 578 b 397 869 608 806 533 869 l 217 869 l 217 514 "},"Ŕ":{"ha":833,"x_min":0,"x_max":0,"o":"m 436 1261 l 567 1261 l 442 1083 l 344 1083 m 97 986 l 397 986 b 733 692 604 986 733 875 b 567 460 733 575 654 489 b 717 283 661 442 707 389 l 742 0 l 622 0 l 599 268 b 422 397 590 360 550 397 l 217 397 l 217 0 l 97 0 m 397 514 b 608 692 533 514 608 578 b 397 869 608 806 533 869 l 217 869 l 217 514 "},"Ř":{"ha":833,"x_min":0,"x_max":0,"o":"m 300 1265 l 397 1140 l 494 1265 l 592 1265 l 463 1081 l 332 1081 l 203 1265 m 97 986 l 397 986 b 733 692 604 986 733 875 b 567 460 733 575 654 489 b 717 283 661 442 707 389 l 742 0 l 622 0 l 599 268 b 422 397 590 360 550 397 l 217 397 l 217 0 l 97 0 m 397 514 b 608 692 533 514 608 578 b 397 869 608 806 533 869 l 217 869 l 217 514 "},"Ŗ":{"ha":833,"x_min":0,"x_max":0,"o":"m 97 986 l 397 986 b 733 692 604 986 733 875 b 567 460 733 575 654 489 b 717 283 661 442 707 389 l 742 0 l 622 0 l 599 268 b 422 397 590 360 550 397 l 217 397 l 217 0 l 97 0 m 397 514 b 608 692 533 514 608 578 b 397 869 608 806 533 869 l 217 869 l 217 514 m 400 -200 l 353 -200 l 353 -75 l 492 -75 l 492 -194 l 403 -333 l 325 -333 "},"S":{"ha":833,"x_min":0,"x_max":0,"o":"m 432 -22 b 61 315 224 -22 78 115 l 186 324 b 435 94 206 176 296 94 b 647 244 572 94 647 149 b 371 456 647 339 600 390 b 85 728 165 514 85 581 b 413 1008 85 893 210 1008 b 754 694 615 1008 732 875 l 629 686 b 410 892 613 806 543 892 b 210 733 288 892 210 828 b 446 556 210 640 260 608 b 772 242 686 488 772 406 b 432 -22 772 86 633 -22 "},"Ś":{"ha":833,"x_min":0,"x_max":0,"o":"m 454 1261 l 585 1261 l 460 1083 l 363 1083 m 432 -22 b 61 315 224 -22 78 115 l 186 324 b 435 94 206 176 296 94 b 647 244 572 94 647 149 b 371 456 647 339 600 390 b 85 728 165 514 85 581 b 413 1008 85 893 210 1008 b 754 694 615 1008 732 875 l 629 686 b 410 892 613 806 543 892 b 210 733 288 892 210 828 b 446 556 210 640 260 608 b 772 242 686 488 772 406 b 432 -22 772 86 633 -22 "},"Š":{"ha":833,"x_min":0,"x_max":0,"o":"m 318 1265 l 415 1140 l 513 1265 l 610 1265 l 481 1081 l 350 1081 l 221 1265 m 432 -22 b 61 315 224 -22 78 115 l 186 324 b 435 94 206 176 296 94 b 647 244 572 94 647 149 b 371 456 647 339 600 390 b 85 728 165 514 85 581 b 413 1008 85 893 210 1008 b 754 694 615 1008 732 875 l 629 686 b 410 892 613 806 543 892 b 210 733 288 892 210 828 b 446 556 210 640 260 608 b 772 242 686 488 772 406 b 432 -22 772 86 633 -22 "},"Ş":{"ha":833,"x_min":0,"x_max":0,"o":"m 403 -306 b 240 -197 314 -306 260 -258 l 311 -169 b 400 -228 328 -211 354 -228 b 475 -172 447 -228 475 -207 b 369 -111 475 -137 458 -111 l 331 -69 l 364 -17 b 61 315 192 10 76 138 l 186 324 b 435 94 206 176 296 94 b 647 244 572 94 647 149 b 371 456 647 339 600 390 b 85 728 165 514 85 581 b 413 1008 85 893 210 1008 b 754 694 615 1008 732 875 l 629 686 b 410 892 613 806 543 892 b 210 733 288 892 210 828 b 446 556 210 640 260 608 b 772 242 686 488 772 406 b 446 -22 772 90 640 -17 l 425 -50 b 558 -175 515 -54 558 -103 b 403 -306 558 -253 493 -306 "},"Ŝ":{"ha":833,"x_min":0,"x_max":0,"o":"m 349 1265 l 479 1265 l 608 1081 l 511 1081 l 414 1206 l 317 1081 l 219 1081 m 432 -22 b 61 315 224 -22 78 115 l 186 324 b 435 94 206 176 296 94 b 647 244 572 94 647 149 b 371 456 647 339 600 390 b 85 728 165 514 85 581 b 413 1008 85 893 210 1008 b 754 694 615 1008 732 875 l 629 686 b 410 892 613 806 543 892 b 210 733 288 892 210 828 b 446 556 210 640 260 608 b 772 242 686 488 772 406 b 432 -22 772 86 633 -22 "},"Ș":{"ha":833,"x_min":0,"x_max":0,"o":"m 432 -22 b 61 315 224 -22 78 115 l 186 324 b 435 94 206 176 296 94 b 647 244 572 94 647 149 b 371 456 647 339 600 390 b 85 728 165 514 85 581 b 413 1008 85 893 210 1008 b 754 694 615 1008 732 875 l 629 686 b 410 892 613 806 543 892 b 210 733 288 892 210 828 b 446 556 210 640 260 608 b 772 242 686 488 772 406 b 432 -22 772 86 633 -22 m 394 -200 l 347 -200 l 347 -75 l 486 -75 l 486 -194 l 397 -333 l 319 -333 "},"ẞ":{"ha":833,"x_min":0,"x_max":0,"o":"m 50 696 b 328 986 50 875 157 986 l 732 986 l 732 858 l 426 592 b 799 307 649 596 799 479 b 449 0 799 125 663 0 l 263 0 l 263 117 l 449 117 b 675 301 589 117 675 189 b 418 490 675 421 589 490 l 299 490 l 299 599 l 581 869 l 331 869 b 169 693 229 869 169 806 l 169 0 l 50 0 "},"T":{"ha":833,"x_min":0,"x_max":0,"o":"m 357 869 l 56 869 l 56 986 l 778 986 l 778 869 l 476 869 l 476 0 l 357 0 "},"Ŧ":{"ha":833,"x_min":0,"x_max":0,"o":"m 357 429 l 194 429 l 194 538 l 357 538 l 357 869 l 56 869 l 56 986 l 778 986 l 778 869 l 476 869 l 476 538 l 639 538 l 639 429 l 476 429 l 476 0 l 357 0 "},"Ť":{"ha":833,"x_min":0,"x_max":0,"o":"m 319 1265 l 417 1140 l 514 1265 l 611 1265 l 482 1081 l 351 1081 l 222 1265 m 357 869 l 56 869 l 56 986 l 778 986 l 778 869 l 476 869 l 476 0 l 357 0 "},"Ţ":{"ha":833,"x_min":0,"x_max":0,"o":"m 357 869 l 56 869 l 56 986 l 778 986 l 778 869 l 476 869 l 476 0 l 463 0 l 425 -50 b 558 -175 515 -54 558 -103 b 403 -306 558 -253 493 -306 b 240 -197 314 -306 260 -258 l 311 -169 b 400 -228 328 -211 354 -228 b 475 -172 447 -228 475 -207 b 369 -111 475 -137 458 -111 l 331 -69 l 375 0 l 357 0 "},"Ț":{"ha":833,"x_min":0,"x_max":0,"o":"m 357 869 l 56 869 l 56 986 l 778 986 l 778 869 l 476 869 l 476 0 l 357 0 m 394 -200 l 347 -200 l 347 -75 l 486 -75 l 486 -194 l 397 -333 l 319 -333 "},"U":{"ha":833,"x_min":0,"x_max":0,"o":"m 417 -22 b 83 344 210 -22 83 118 l 83 986 l 203 986 l 203 344 b 417 94 203 182 278 94 b 631 344 556 94 631 182 l 631 986 l 750 986 l 750 344 b 417 -22 750 118 624 -22 "},"Ú":{"ha":833,"x_min":0,"x_max":0,"o":"m 456 1261 l 586 1261 l 461 1083 l 364 1083 m 417 -22 b 83 344 210 -22 83 118 l 83 986 l 203 986 l 203 344 b 417 94 203 182 278 94 b 631 344 556 94 631 182 l 631 986 l 750 986 l 750 344 b 417 -22 750 118 624 -22 "},"Ŭ":{"ha":833,"x_min":0,"x_max":0,"o":"m 417 1088 b 222 1265 303 1088 228 1157 l 303 1265 b 417 1174 311 1201 353 1174 b 531 1265 481 1174 522 1201 l 611 1265 b 417 1088 606 1157 531 1088 m 417 -22 b 83 344 210 -22 83 118 l 83 986 l 203 986 l 203 344 b 417 94 203 182 278 94 b 631 344 556 94 631 182 l 631 986 l 750 986 l 750 344 b 417 -22 750 118 624 -22 "},"Û":{"ha":833,"x_min":0,"x_max":0,"o":"m 350 1265 l 481 1265 l 610 1081 l 513 1081 l 415 1206 l 318 1081 l 221 1081 m 417 -22 b 83 344 210 -22 83 118 l 83 986 l 203 986 l 203 344 b 417 94 203 182 278 94 b 631 344 556 94 631 182 l 631 986 l 750 986 l 750 344 b 417 -22 750 118 624 -22 "},"Ü":{"ha":833,"x_min":0,"x_max":0,"o":"m 222 1238 l 344 1238 l 344 1101 l 222 1101 m 489 1238 l 611 1238 l 611 1101 l 489 1101 m 417 -22 b 83 344 210 -22 83 118 l 83 986 l 203 986 l 203 344 b 417 94 203 182 278 94 b 631 344 556 94 631 182 l 631 986 l 750 986 l 750 344 b 417 -22 750 118 624 -22 "},"Ù":{"ha":833,"x_min":0,"x_max":0,"o":"m 250 1261 l 381 1261 l 472 1083 l 375 1083 m 417 -22 b 83 344 210 -22 83 118 l 83 986 l 203 986 l 203 344 b 417 94 203 182 278 94 b 631 344 556 94 631 182 l 631 986 l 750 986 l 750 344 b 417 -22 750 118 624 -22 "},"Ű":{"ha":833,"x_min":0,"x_max":0,"o":"m 356 1258 l 486 1258 l 361 1081 l 264 1081 m 550 1258 l 681 1258 l 556 1081 l 458 1081 m 417 -22 b 83 344 210 -22 83 118 l 83 986 l 203 986 l 203 344 b 417 94 203 182 278 94 b 631 344 556 94 631 182 l 631 986 l 750 986 l 750 344 b 417 -22 750 118 624 -22 "},"Ū":{"ha":833,"x_min":0,"x_max":0,"o":"m 229 1218 l 601 1218 l 601 1118 l 229 1118 m 417 -22 b 83 344 210 -22 83 118 l 83 986 l 203 986 l 203 344 b 417 94 203 182 278 94 b 631 344 556 94 631 182 l 631 986 l 750 986 l 750 344 b 417 -22 750 118 624 -22 "},"Ų":{"ha":833,"x_min":0,"x_max":0,"o":"m 417 -22 b 83 344 210 -22 83 118 l 83 986 l 203 986 l 203 344 b 417 94 203 182 278 94 b 631 344 556 94 631 182 l 631 986 l 750 986 l 750 344 b 547 0 750 171 675 47 l 499 -62 b 456 -156 463 -110 456 -133 b 497 -197 456 -183 471 -197 b 561 -178 517 -197 544 -192 l 594 -256 b 475 -292 572 -278 528 -292 b 350 -181 397 -292 350 -250 b 407 -42 350 -133 368 -90 l 422 -22 l 417 -22 "},"Ů":{"ha":833,"x_min":0,"x_max":0,"o":"m 417 1050 b 289 1178 344 1050 289 1106 b 417 1306 289 1250 344 1306 b 544 1178 489 1306 544 1250 b 417 1050 544 1106 489 1050 m 417 1119 b 475 1178 450 1119 475 1144 b 417 1236 475 1211 450 1236 b 358 1178 383 1236 358 1211 b 417 1119 358 1144 383 1119 m 417 -22 b 83 344 210 -22 83 118 l 83 986 l 203 986 l 203 344 b 417 94 203 182 278 94 b 631 344 556 94 631 182 l 631 986 l 750 986 l 750 344 b 417 -22 750 118 624 -22 "},"Ũ":{"ha":833,"x_min":0,"x_max":0,"o":"m 500 1097 b 403 1139 464 1097 433 1114 b 331 1175 371 1165 358 1175 b 269 1088 297 1175 272 1154 l 197 1088 b 331 1250 200 1194 256 1250 b 436 1206 375 1250 404 1232 b 506 1172 465 1182 483 1172 b 564 1264 540 1172 558 1194 l 636 1264 b 500 1097 631 1158 579 1097 m 417 -22 b 83 344 210 -22 83 118 l 83 986 l 203 986 l 203 344 b 417 94 203 182 278 94 b 631 344 556 94 631 182 l 631 986 l 750 986 l 750 344 b 417 -22 750 118 624 -22 "},"V":{"ha":833,"x_min":0,"x_max":0,"o":"m 42 986 l 169 986 l 417 135 l 664 986 l 792 986 l 494 0 l 339 0 "},"W":{"ha":833,"x_min":0,"x_max":0,"o":"m 42 986 l 167 986 l 253 129 l 353 875 l 481 875 l 581 129 l 667 986 l 792 986 l 683 0 l 503 0 l 417 651 l 331 0 l 150 0 "},"Ẃ":{"ha":833,"x_min":0,"x_max":0,"o":"m 456 1261 l 586 1261 l 461 1083 l 364 1083 m 42 986 l 167 986 l 253 129 l 353 875 l 481 875 l 581 129 l 667 986 l 792 986 l 683 0 l 503 0 l 417 651 l 331 0 l 150 0 "},"Ŵ":{"ha":833,"x_min":0,"x_max":0,"o":"m 350 1265 l 481 1265 l 610 1081 l 513 1081 l 415 1206 l 318 1081 l 221 1081 m 42 986 l 167 986 l 253 129 l 353 875 l 481 875 l 581 129 l 667 986 l 792 986 l 683 0 l 503 0 l 417 651 l 331 0 l 150 0 "},"Ẅ":{"ha":833,"x_min":0,"x_max":0,"o":"m 222 1238 l 344 1238 l 344 1101 l 222 1101 m 489 1238 l 611 1238 l 611 1101 l 489 1101 m 42 986 l 167 986 l 253 129 l 353 875 l 481 875 l 581 129 l 667 986 l 792 986 l 683 0 l 503 0 l 417 651 l 331 0 l 150 0 "},"Ẁ":{"ha":833,"x_min":0,"x_max":0,"o":"m 250 1261 l 381 1261 l 472 1083 l 375 1083 m 42 986 l 167 986 l 253 129 l 353 875 l 481 875 l 581 129 l 667 986 l 792 986 l 683 0 l 503 0 l 417 651 l 331 0 l 150 0 "},"X":{"ha":833,"x_min":0,"x_max":0,"o":"m 342 496 l 75 986 l 214 986 l 418 590 l 622 986 l 758 986 l 492 494 l 764 0 l 625 0 l 415 401 l 206 0 l 69 0 "},"Y":{"ha":833,"x_min":0,"x_max":0,"o":"m 358 403 l 56 986 l 192 986 l 417 525 l 642 986 l 778 986 l 478 403 l 478 0 l 358 0 "},"Ý":{"ha":833,"x_min":0,"x_max":0,"o":"m 456 1261 l 586 1261 l 461 1083 l 364 1083 m 358 403 l 56 986 l 192 986 l 417 525 l 642 986 l 778 986 l 478 403 l 478 0 l 358 0 "},"Ŷ":{"ha":833,"x_min":0,"x_max":0,"o":"m 350 1265 l 481 1265 l 610 1081 l 513 1081 l 415 1206 l 318 1081 l 221 1081 m 358 403 l 56 986 l 192 986 l 417 525 l 642 986 l 778 986 l 478 403 l 478 0 l 358 0 "},"Ÿ":{"ha":833,"x_min":0,"x_max":0,"o":"m 222 1238 l 344 1238 l 344 1101 l 222 1101 m 489 1238 l 611 1238 l 611 1101 l 489 1101 m 358 403 l 56 986 l 192 986 l 417 525 l 642 986 l 778 986 l 478 403 l 478 0 l 358 0 "},"Ỳ":{"ha":833,"x_min":0,"x_max":0,"o":"m 250 1261 l 381 1261 l 472 1083 l 375 1083 m 358 403 l 56 986 l 192 986 l 417 525 l 642 986 l 778 986 l 478 403 l 478 0 l 358 0 "},"Ỹ":{"ha":833,"x_min":0,"x_max":0,"o":"m 500 1097 b 403 1139 464 1097 433 1114 b 331 1175 371 1165 358 1175 b 269 1088 297 1175 272 1154 l 197 1088 b 331 1250 200 1194 256 1250 b 436 1206 375 1250 404 1232 b 506 1172 465 1182 483 1172 b 564 1264 540 1172 558 1194 l 636 1264 b 500 1097 631 1158 579 1097 m 358 403 l 56 986 l 192 986 l 417 525 l 642 986 l 778 986 l 478 403 l 478 0 l 358 0 "},"Z":{"ha":833,"x_min":0,"x_max":0,"o":"m 69 119 l 619 869 l 94 869 l 94 986 l 753 986 l 753 867 l 203 117 l 764 117 l 764 0 l 69 0 "},"Ź":{"ha":833,"x_min":0,"x_max":0,"o":"m 456 1261 l 586 1261 l 461 1083 l 364 1083 m 69 119 l 619 869 l 94 869 l 94 986 l 753 986 l 753 867 l 203 117 l 764 117 l 764 0 l 69 0 "},"Ž":{"ha":833,"x_min":0,"x_max":0,"o":"m 319 1265 l 417 1140 l 514 1265 l 611 1265 l 482 1081 l 351 1081 l 222 1265 m 69 119 l 619 869 l 94 869 l 94 986 l 753 986 l 753 867 l 203 117 l 764 117 l 764 0 l 69 0 "},"Ż":{"ha":833,"x_min":0,"x_max":0,"o":"m 354 1238 l 476 1238 l 476 1101 l 354 1101 m 69 119 l 619 869 l 94 869 l 94 986 l 753 986 l 753 867 l 203 117 l 764 117 l 764 0 l 69 0 "},"Ꞌ":{"ha":833,"x_min":0,"x_max":0,"o":"m 356 797 l 356 986 l 478 986 l 478 797 l 458 525 l 375 525 "},"a":{"ha":833,"x_min":0,"x_max":0,"o":"m 319 -17 b 75 183 181 -17 75 64 b 308 406 75 308 147 374 l 556 456 b 392 642 556 581 497 642 b 213 510 289 642 235 594 l 89 519 b 392 753 117 658 225 753 b 672 453 569 753 672 639 l 672 147 b 717 103 672 114 686 103 l 764 103 l 764 0 b 703 -3 753 -1 725 -3 b 560 104 622 -3 575 29 b 319 -17 519 32 425 -17 m 331 86 b 556 292 481 86 556 169 l 556 356 l 331 311 b 197 194 231 292 197 256 b 331 86 197 125 247 86 "},"á":{"ha":833,"x_min":0,"x_max":0,"o":"m 433 1011 l 564 1011 l 439 833 l 342 833 m 319 -17 b 75 183 181 -17 75 64 b 308 406 75 308 147 374 l 556 456 b 392 642 556 581 497 642 b 213 510 289 642 235 594 l 89 519 b 392 753 117 658 225 753 b 672 453 569 753 672 639 l 672 147 b 717 103 672 114 686 103 l 764 103 l 764 0 b 703 -3 753 -1 725 -3 b 560 104 622 -3 575 29 b 319 -17 519 32 425 -17 m 331 86 b 556 292 481 86 556 169 l 556 356 l 331 311 b 197 194 231 292 197 256 b 331 86 197 125 247 86 "},"ă":{"ha":833,"x_min":0,"x_max":0,"o":"m 394 838 b 200 1015 281 838 206 907 l 281 1015 b 394 924 289 951 331 924 b 508 1015 458 924 500 951 l 589 1015 b 394 838 583 907 508 838 m 319 -17 b 75 183 181 -17 75 64 b 308 406 75 308 147 374 l 556 456 b 392 642 556 581 497 642 b 213 510 289 642 235 594 l 89 519 b 392 753 117 658 225 753 b 672 453 569 753 672 639 l 672 147 b 717 103 672 114 686 103 l 764 103 l 764 0 b 703 -3 753 -1 725 -3 b 560 104 622 -3 575 29 b 319 -17 519 32 425 -17 m 331 86 b 556 292 481 86 556 169 l 556 356 l 331 311 b 197 194 231 292 197 256 b 331 86 197 125 247 86 "},"ǎ":{"ha":833,"x_min":0,"x_max":0,"o":"m 297 1015 l 394 890 l 492 1015 l 589 1015 l 460 831 l 329 831 l 200 1015 m 319 -17 b 75 183 181 -17 75 64 b 308 406 75 308 147 374 l 556 456 b 392 642 556 581 497 642 b 213 510 289 642 235 594 l 89 519 b 392 753 117 658 225 753 b 672 453 569 753 672 639 l 672 147 b 717 103 672 114 686 103 l 764 103 l 764 0 b 703 -3 753 -1 725 -3 b 560 104 622 -3 575 29 b 319 -17 519 32 425 -17 m 331 86 b 556 292 481 86 556 169 l 556 356 l 331 311 b 197 194 231 292 197 256 b 331 86 197 125 247 86 "},"â":{"ha":833,"x_min":0,"x_max":0,"o":"m 328 1015 l 458 1015 l 588 831 l 490 831 l 393 956 l 296 831 l 199 831 m 319 -17 b 75 183 181 -17 75 64 b 308 406 75 308 147 374 l 556 456 b 392 642 556 581 497 642 b 213 510 289 642 235 594 l 89 519 b 392 753 117 658 225 753 b 672 453 569 753 672 639 l 672 147 b 717 103 672 114 686 103 l 764 103 l 764 0 b 703 -3 753 -1 725 -3 b 560 104 622 -3 575 29 b 319 -17 519 32 425 -17 m 331 86 b 556 292 481 86 556 169 l 556 356 l 331 311 b 197 194 231 292 197 256 b 331 86 197 125 247 86 "},"ä":{"ha":833,"x_min":0,"x_max":0,"o":"m 200 988 l 322 988 l 322 851 l 200 851 m 467 988 l 589 988 l 589 851 l 467 851 m 319 -17 b 75 183 181 -17 75 64 b 308 406 75 308 147 374 l 556 456 b 392 642 556 581 497 642 b 213 510 289 642 235 594 l 89 519 b 392 753 117 658 225 753 b 672 453 569 753 672 639 l 672 147 b 717 103 672 114 686 103 l 764 103 l 764 0 b 703 -3 753 -1 725 -3 b 560 104 622 -3 575 29 b 319 -17 519 32 425 -17 m 331 86 b 556 292 481 86 556 169 l 556 356 l 331 311 b 197 194 231 292 197 256 b 331 86 197 125 247 86 "},"à":{"ha":833,"x_min":0,"x_max":0,"o":"m 228 1011 l 358 1011 l 450 833 l 353 833 m 319 -17 b 75 183 181 -17 75 64 b 308 406 75 308 147 374 l 556 456 b 392 642 556 581 497 642 b 213 510 289 642 235 594 l 89 519 b 392 753 117 658 225 753 b 672 453 569 753 672 639 l 672 147 b 717 103 672 114 686 103 l 764 103 l 764 0 b 703 -3 753 -1 725 -3 b 560 104 622 -3 575 29 b 319 -17 519 32 425 -17 m 331 86 b 556 292 481 86 556 169 l 556 356 l 331 311 b 197 194 231 292 197 256 b 331 86 197 125 247 86 "},"ā":{"ha":833,"x_min":0,"x_max":0,"o":"m 207 968 l 579 968 l 579 868 l 207 868 m 319 -17 b 75 183 181 -17 75 64 b 308 406 75 308 147 374 l 556 456 b 392 642 556 581 497 642 b 213 510 289 642 235 594 l 89 519 b 392 753 117 658 225 753 b 672 453 569 753 672 639 l 672 147 b 717 103 672 114 686 103 l 764 103 l 764 0 b 703 -3 753 -1 725 -3 b 560 104 622 -3 575 29 b 319 -17 519 32 425 -17 m 331 86 b 556 292 481 86 556 169 l 556 356 l 331 311 b 197 194 231 292 197 256 b 331 86 197 125 247 86 "},"ą":{"ha":833,"x_min":0,"x_max":0,"o":"m 319 -17 b 75 183 181 -17 75 64 b 308 406 75 308 147 374 l 556 456 b 392 642 556 581 497 642 b 213 510 289 642 235 594 l 89 519 b 392 753 117 658 225 753 b 672 453 569 753 672 639 l 672 147 b 717 103 672 114 686 103 l 764 103 l 764 0 l 715 -62 b 672 -156 679 -110 672 -133 b 714 -197 672 -183 688 -197 b 778 -178 733 -197 761 -192 l 811 -256 b 692 -292 789 -278 744 -292 b 567 -181 614 -292 567 -250 b 624 -42 567 -133 585 -90 l 658 1 b 560 104 604 11 572 44 b 319 -17 519 32 425 -17 m 331 86 b 556 292 481 86 556 169 l 556 356 l 331 311 b 197 194 231 292 197 256 b 331 86 197 125 247 86 "},"å":{"ha":833,"x_min":0,"x_max":0,"o":"m 394 800 b 267 928 322 800 267 856 b 394 1056 267 1000 322 1056 b 522 928 467 1056 522 1000 b 394 800 522 856 467 800 m 394 869 b 453 928 428 869 453 894 b 394 986 453 961 428 986 b 336 928 361 986 336 961 b 394 869 336 894 361 869 m 319 -17 b 75 183 181 -17 75 64 b 308 406 75 308 147 374 l 556 456 b 392 642 556 581 497 642 b 213 510 289 642 235 594 l 89 519 b 392 753 117 658 225 753 b 672 453 569 753 672 639 l 672 147 b 717 103 672 114 686 103 l 764 103 l 764 0 b 703 -3 753 -1 725 -3 b 560 104 622 -3 575 29 b 319 -17 519 32 425 -17 m 331 86 b 556 292 481 86 556 169 l 556 356 l 331 311 b 197 194 231 292 197 256 b 331 86 197 125 247 86 "},"ã":{"ha":833,"x_min":0,"x_max":0,"o":"m 478 847 b 381 889 442 847 411 864 b 308 925 349 915 336 925 b 247 838 275 925 250 904 l 175 838 b 308 1000 178 944 233 1000 b 414 956 353 1000 382 982 b 483 922 443 932 461 922 b 542 1014 518 922 536 944 l 614 1014 b 478 847 608 908 557 847 m 319 -17 b 75 183 181 -17 75 64 b 308 406 75 308 147 374 l 556 456 b 392 642 556 581 497 642 b 213 510 289 642 235 594 l 89 519 b 392 753 117 658 225 753 b 672 453 569 753 672 639 l 672 147 b 717 103 672 114 686 103 l 764 103 l 764 0 b 703 -3 753 -1 725 -3 b 560 104 622 -3 575 29 b 319 -17 519 32 425 -17 m 331 86 b 556 292 481 86 556 169 l 556 356 l 331 311 b 197 194 231 292 197 256 b 331 86 197 125 247 86 "},"æ":{"ha":833,"x_min":0,"x_max":0,"o":"m 203 -17 b 25 196 101 -17 25 47 b 222 417 25 313 100 400 l 342 433 b 247 642 342 581 313 642 b 153 511 183 642 164 588 l 36 519 b 247 753 60 675 129 753 b 411 660 322 753 378 722 b 582 753 451 721 508 753 b 808 386 725 753 808 632 l 808 332 l 463 332 b 582 94 469 179 513 94 b 682 218 636 94 664 129 l 800 208 b 582 -17 765 46 706 -17 b 386 125 490 -17 424 32 b 203 -17 357 35 294 -17 m 688 435 b 582 642 682 583 643 642 b 464 435 513 642 478 583 m 224 86 b 342 304 310 86 342 164 l 342 326 l 246 311 b 142 196 169 299 142 257 b 224 86 142 121 176 86 "},"b":{"ha":833,"x_min":0,"x_max":0,"o":"m 463 -17 b 235 111 360 -17 276 31 l 231 0 l 125 0 l 125 986 l 242 986 l 242 633 b 463 753 278 694 360 753 b 778 368 657 753 778 604 b 463 -17 778 132 657 -17 m 456 94 b 656 368 579 94 656 200 b 458 642 656 539 579 642 b 242 368 322 642 242 539 b 456 94 242 200 322 94 "},"c":{"ha":833,"x_min":0,"x_max":0,"o":"m 436 -17 b 97 368 231 -17 97 135 b 436 753 97 601 231 753 b 744 497 600 753 714 661 l 622 489 b 436 642 600 586 531 642 b 219 368 300 642 219 539 b 436 94 219 197 300 94 b 628 261 531 94 606 150 l 750 253 b 436 -17 719 89 600 -17 "},"ć":{"ha":833,"x_min":0,"x_max":0,"o":"m 474 1011 l 604 1011 l 479 833 l 382 833 m 436 -17 b 97 368 231 -17 97 135 b 436 753 97 601 231 753 b 744 497 600 753 714 661 l 622 489 b 436 642 600 586 531 642 b 219 368 300 642 219 539 b 436 94 219 197 300 94 b 628 261 531 94 606 150 l 750 253 b 436 -17 719 89 600 -17 "},"č":{"ha":833,"x_min":0,"x_max":0,"o":"m 338 1015 l 435 890 l 532 1015 l 629 1015 l 500 831 l 369 831 l 240 1015 m 436 -17 b 97 368 231 -17 97 135 b 436 753 97 601 231 753 b 744 497 600 753 714 661 l 622 489 b 436 642 600 586 531 642 b 219 368 300 642 219 539 b 436 94 219 197 300 94 b 628 261 531 94 606 150 l 750 253 b 436 -17 719 89 600 -17 "},"ç":{"ha":833,"x_min":0,"x_max":0,"o":"m 421 -306 b 258 -197 332 -306 278 -258 l 329 -169 b 418 -228 346 -211 372 -228 b 493 -172 465 -228 493 -207 b 388 -111 493 -137 476 -111 l 349 -69 l 385 -14 b 97 368 208 10 97 156 b 436 753 97 601 231 753 b 744 497 600 753 714 661 l 622 489 b 436 642 600 586 531 642 b 219 368 300 642 219 539 b 436 94 219 197 300 94 b 628 261 531 94 606 150 l 750 253 b 469 -15 721 100 615 -3 l 443 -50 b 576 -175 533 -54 576 -103 b 421 -306 576 -253 511 -306 "},"ĉ":{"ha":833,"x_min":0,"x_max":0,"o":"m 368 1015 l 499 1015 l 628 831 l 531 831 l 433 956 l 336 831 l 239 831 m 436 -17 b 97 368 231 -17 97 135 b 436 753 97 601 231 753 b 744 497 600 753 714 661 l 622 489 b 436 642 600 586 531 642 b 219 368 300 642 219 539 b 436 94 219 197 300 94 b 628 261 531 94 606 150 l 750 253 b 436 -17 719 89 600 -17 "},"ċ":{"ha":833,"x_min":0,"x_max":0,"o":"m 372 988 l 494 988 l 494 851 l 372 851 m 436 -17 b 97 368 231 -17 97 135 b 436 753 97 601 231 753 b 744 497 600 753 714 661 l 622 489 b 436 642 600 586 531 642 b 219 368 300 642 219 539 b 436 94 219 197 300 94 b 628 261 531 94 606 150 l 750 253 b 436 -17 719 89 600 -17 "},"d":{"ha":833,"x_min":0,"x_max":0,"o":"m 371 -17 b 56 368 176 -17 56 132 b 371 753 56 604 176 753 b 592 633 474 753 556 694 l 592 986 l 708 986 l 708 0 l 603 0 l 599 111 b 371 -17 557 31 474 -17 m 378 94 b 592 368 511 94 592 200 b 375 642 592 539 511 642 b 178 368 254 642 178 539 b 378 94 178 200 254 94 "},"ď":{"ha":833,"x_min":0,"x_max":0,"o":"m 315 -17 b 28 368 135 -17 28 132 b 315 753 28 604 135 753 b 508 633 410 753 472 694 l 508 986 l 625 986 l 625 0 l 519 0 l 515 111 b 315 -17 474 31 410 -17 m 703 986 l 819 986 l 744 633 l 661 633 m 322 94 b 508 368 433 94 508 200 b 319 642 508 539 433 642 b 150 368 219 642 150 539 b 322 94 150 200 219 94 "},"đ":{"ha":833,"x_min":0,"x_max":0,"o":"m 371 -17 b 56 368 176 -17 56 132 b 371 753 56 604 176 753 b 592 633 474 753 556 694 l 592 808 l 389 808 l 389 903 l 592 903 l 592 986 l 708 986 l 708 903 l 806 903 l 806 808 l 708 808 l 708 0 l 603 0 l 599 111 b 371 -17 557 31 474 -17 m 378 94 b 592 368 511 94 592 200 b 375 642 592 539 511 642 b 178 368 254 642 178 539 b 378 94 178 200 254 94 "},"ð":{"ha":833,"x_min":0,"x_max":0,"o":"m 419 -17 b 83 340 215 -17 83 119 b 419 697 83 561 215 697 b 610 631 493 697 557 671 b 519 789 589 696 558 749 l 353 731 l 319 819 l 425 857 b 250 900 375 881 317 894 l 278 1003 b 551 901 392 992 482 956 l 744 969 l 778 881 l 626 828 b 756 354 718 711 756 546 b 419 -17 756 119 622 -17 m 419 94 b 633 354 554 94 633 179 b 419 586 633 497 554 586 b 206 340 283 586 206 497 b 419 94 206 183 283 94 "},"e":{"ha":833,"x_min":0,"x_max":0,"o":"m 429 -17 b 92 368 221 -17 92 135 b 424 753 92 601 221 753 b 750 367 615 753 750 614 l 750 332 l 214 332 b 429 94 222 174 301 94 b 613 218 525 94 588 143 l 738 208 b 429 -17 699 76 585 -17 m 622 435 b 424 642 611 576 532 642 b 214 435 310 642 233 571 "},"é":{"ha":833,"x_min":0,"x_max":0,"o":"m 464 1008 l 594 1008 l 469 831 l 372 831 m 429 -17 b 92 368 221 -17 92 135 b 424 753 92 601 221 753 b 750 367 615 753 750 614 l 750 332 l 214 332 b 429 94 222 174 301 94 b 613 218 525 94 588 143 l 738 208 b 429 -17 699 76 585 -17 m 622 435 b 424 642 611 576 532 642 b 214 435 310 642 233 571 "},"ě":{"ha":833,"x_min":0,"x_max":0,"o":"m 328 1013 l 425 888 l 522 1013 l 619 1013 l 490 828 l 360 828 l 231 1013 m 429 -17 b 92 368 221 -17 92 135 b 424 753 92 601 221 753 b 750 367 615 753 750 614 l 750 332 l 214 332 b 429 94 222 174 301 94 b 613 218 525 94 588 143 l 738 208 b 429 -17 699 76 585 -17 m 622 435 b 424 642 611 576 532 642 b 214 435 310 642 233 571 "},"ê":{"ha":833,"x_min":0,"x_max":0,"o":"m 358 1013 l 489 1013 l 618 828 l 521 828 l 424 953 l 326 828 l 229 828 m 429 -17 b 92 368 221 -17 92 135 b 424 753 92 601 221 753 b 750 367 615 753 750 614 l 750 332 l 214 332 b 429 94 222 174 301 94 b 613 218 525 94 588 143 l 738 208 b 429 -17 699 76 585 -17 m 622 435 b 424 642 611 576 532 642 b 214 435 310 642 233 571 "},"ë":{"ha":833,"x_min":0,"x_max":0,"o":"m 231 985 l 353 985 l 353 849 l 231 849 m 497 985 l 619 985 l 619 849 l 497 849 m 429 -17 b 92 368 221 -17 92 135 b 424 753 92 601 221 753 b 750 367 615 753 750 614 l 750 332 l 214 332 b 429 94 222 174 301 94 b 613 218 525 94 588 143 l 738 208 b 429 -17 699 76 585 -17 m 622 435 b 424 642 611 576 532 642 b 214 435 310 642 233 571 "},"ė":{"ha":833,"x_min":0,"x_max":0,"o":"m 363 985 l 485 985 l 485 849 l 363 849 m 429 -17 b 92 368 221 -17 92 135 b 424 753 92 601 221 753 b 750 367 615 753 750 614 l 750 332 l 214 332 b 429 94 222 174 301 94 b 613 218 525 94 588 143 l 738 208 b 429 -17 699 76 585 -17 m 622 435 b 424 642 611 576 532 642 b 214 435 310 642 233 571 "},"è":{"ha":833,"x_min":0,"x_max":0,"o":"m 258 1008 l 389 1008 l 481 831 l 383 831 m 429 -17 b 92 368 221 -17 92 135 b 424 753 92 601 221 753 b 750 367 615 753 750 614 l 750 332 l 214 332 b 429 94 222 174 301 94 b 613 218 525 94 588 143 l 738 208 b 429 -17 699 76 585 -17 m 622 435 b 424 642 611 576 532 642 b 214 435 310 642 233 571 "},"ē":{"ha":833,"x_min":0,"x_max":0,"o":"m 238 965 l 610 965 l 610 865 l 238 865 m 429 -17 b 92 368 221 -17 92 135 b 424 753 92 601 221 753 b 750 367 615 753 750 614 l 750 332 l 214 332 b 429 94 222 174 301 94 b 613 218 525 94 588 143 l 738 208 b 429 -17 699 76 585 -17 m 622 435 b 424 642 611 576 532 642 b 214 435 310 642 233 571 "},"ę":{"ha":833,"x_min":0,"x_max":0,"o":"m 429 -17 b 92 368 221 -17 92 135 b 424 753 92 601 221 753 b 750 367 615 753 750 614 l 750 332 l 214 332 b 429 94 222 174 301 94 b 613 218 525 94 588 143 l 738 208 b 608 33 715 135 671 74 l 560 -29 b 517 -122 524 -76 517 -100 b 558 -164 517 -150 532 -164 b 622 -144 578 -164 606 -158 l 656 -222 b 536 -258 633 -244 589 -258 b 411 -147 458 -258 411 -217 b 463 -15 411 -100 429 -57 b 429 -17 451 -17 440 -17 m 622 435 b 424 642 611 576 532 642 b 214 435 310 642 233 571 "},"ẽ":{"ha":833,"x_min":0,"x_max":0,"o":"m 508 844 b 411 886 472 844 442 861 b 339 922 379 913 367 922 b 278 835 306 922 281 901 l 206 835 b 339 997 208 942 264 997 b 444 953 383 997 413 979 b 514 919 474 929 492 919 b 572 1011 549 919 567 942 l 644 1011 b 508 844 639 906 588 844 m 429 -17 b 92 368 221 -17 92 135 b 424 753 92 601 221 753 b 750 367 615 753 750 614 l 750 332 l 214 332 b 429 94 222 174 301 94 b 613 218 525 94 588 143 l 738 208 b 429 -17 699 76 585 -17 m 622 435 b 424 642 611 576 532 642 b 214 435 310 642 233 571 "},"ə":{"ha":833,"x_min":0,"x_max":0,"o":"m 404 753 b 742 368 613 753 742 601 b 410 -17 742 135 613 -17 b 83 369 218 -17 83 122 l 83 404 l 619 404 b 404 642 611 563 532 642 b 221 518 308 642 246 593 l 96 528 b 404 753 135 660 249 753 m 211 301 b 410 94 222 160 301 94 b 619 301 524 94 600 165 "},"f":{"ha":833,"x_min":0,"x_max":0,"o":"m 294 633 l 97 633 l 97 736 l 294 736 l 294 783 b 500 986 294 914 361 986 l 736 986 l 736 883 l 500 883 b 411 783 442 883 411 844 l 411 736 l 722 736 l 722 633 l 411 633 l 411 0 l 294 0 "},"g":{"ha":833,"x_min":0,"x_max":0,"o":"m 413 -225 b 104 -11 254 -225 135 -140 l 226 -3 b 413 -114 249 -72 299 -114 b 619 47 546 -114 619 -61 l 619 167 b 404 39 583 89 500 39 b 83 396 217 39 83 186 b 399 753 83 606 214 753 b 625 619 501 753 592 701 l 625 736 l 736 736 l 736 50 b 413 -225 736 -122 615 -225 m 410 150 b 619 396 536 150 618 244 b 410 642 622 547 538 642 b 206 396 281 642 206 547 b 410 150 206 244 283 150 "},"ğ":{"ha":833,"x_min":0,"x_max":0,"o":"m 414 838 b 219 1015 300 838 225 907 l 300 1015 b 414 924 308 951 350 924 b 528 1015 478 924 519 951 l 608 1015 b 414 838 603 907 528 838 m 413 -225 b 104 -11 254 -225 135 -140 l 226 -3 b 413 -114 249 -72 299 -114 b 619 47 546 -114 619 -61 l 619 167 b 404 39 583 89 500 39 b 83 396 217 39 83 186 b 399 753 83 606 214 753 b 625 619 501 753 592 701 l 625 736 l 736 736 l 736 50 b 413 -225 736 -122 615 -225 m 410 150 b 619 396 536 150 618 244 b 410 642 622 547 538 642 b 206 396 281 642 206 547 b 410 150 206 244 283 150 "},"ǧ":{"ha":833,"x_min":0,"x_max":0,"o":"m 317 1015 l 414 890 l 511 1015 l 608 1015 l 479 831 l 349 831 l 219 1015 m 413 -225 b 104 -11 254 -225 135 -140 l 226 -3 b 413 -114 249 -72 299 -114 b 619 47 546 -114 619 -61 l 619 167 b 404 39 583 89 500 39 b 83 396 217 39 83 186 b 399 753 83 606 214 753 b 625 619 501 753 592 701 l 625 736 l 736 736 l 736 50 b 413 -225 736 -122 615 -225 m 410 150 b 619 396 536 150 618 244 b 410 642 622 547 538 642 b 206 396 281 642 206 547 b 410 150 206 244 283 150 "},"ĝ":{"ha":833,"x_min":0,"x_max":0,"o":"m 347 1015 l 478 1015 l 607 831 l 510 831 l 413 956 l 315 831 l 218 831 m 413 -225 b 104 -11 254 -225 135 -140 l 226 -3 b 413 -114 249 -72 299 -114 b 619 47 546 -114 619 -61 l 619 167 b 404 39 583 89 500 39 b 83 396 217 39 83 186 b 399 753 83 606 214 753 b 625 619 501 753 592 701 l 625 736 l 736 736 l 736 50 b 413 -225 736 -122 615 -225 m 410 150 b 619 396 536 150 618 244 b 410 642 622 547 538 642 b 206 396 281 642 206 547 b 410 150 206 244 283 150 "},"ģ":{"ha":833,"x_min":0,"x_max":0,"o":"m 454 963 l 501 963 l 501 838 l 363 838 l 363 957 l 451 1096 l 529 1096 m 413 -225 b 104 -11 254 -225 135 -140 l 226 -3 b 413 -114 249 -72 299 -114 b 619 47 546 -114 619 -61 l 619 167 b 404 39 583 89 500 39 b 83 396 217 39 83 186 b 399 753 83 606 214 753 b 625 619 501 753 592 701 l 625 736 l 736 736 l 736 50 b 413 -225 736 -122 615 -225 m 410 150 b 619 396 536 150 618 244 b 410 642 622 547 538 642 b 206 396 281 642 206 547 b 410 150 206 244 283 150 "},"ġ":{"ha":833,"x_min":0,"x_max":0,"o":"m 351 988 l 474 988 l 474 851 l 351 851 m 413 -225 b 104 -11 254 -225 135 -140 l 226 -3 b 413 -114 249 -72 299 -114 b 619 47 546 -114 619 -61 l 619 167 b 404 39 583 89 500 39 b 83 396 217 39 83 186 b 399 753 83 606 214 753 b 625 619 501 753 592 701 l 625 736 l 736 736 l 736 50 b 413 -225 736 -122 615 -225 m 410 150 b 619 396 536 150 618 244 b 410 642 622 547 538 642 b 206 396 281 642 206 547 b 410 150 206 244 283 150 "},"ḡ":{"ha":833,"x_min":0,"x_max":0,"o":"m 226 968 l 599 968 l 599 868 l 226 868 m 413 -225 b 104 -11 254 -225 135 -140 l 226 -3 b 413 -114 249 -72 299 -114 b 619 47 546 -114 619 -61 l 619 167 b 404 39 583 89 500 39 b 83 396 217 39 83 186 b 399 753 83 606 214 753 b 625 619 501 753 592 701 l 625 736 l 736 736 l 736 50 b 413 -225 736 -122 615 -225 m 410 150 b 619 396 536 150 618 244 b 410 642 622 547 538 642 b 206 396 281 642 206 547 b 410 150 206 244 283 150 "},"ǥ":{"ha":833,"x_min":0,"x_max":0,"o":"m 413 -225 b 104 -11 254 -225 135 -140 l 226 -3 b 413 -114 249 -72 299 -114 b 619 47 546 -114 619 -61 l 619 167 b 404 39 583 89 500 39 b 83 396 217 39 83 186 b 399 753 83 606 214 753 b 625 619 501 753 592 701 l 625 736 l 736 736 l 736 439 l 806 439 l 806 342 l 736 342 l 736 50 b 413 -225 736 -122 615 -225 m 410 150 b 615 342 521 150 597 222 l 410 342 l 410 439 l 618 439 b 410 642 606 565 525 642 b 206 396 281 642 206 547 b 410 150 206 244 283 150 "},"h":{"ha":833,"x_min":0,"x_max":0,"o":"m 139 986 l 256 986 l 256 621 b 476 753 293 711 376 753 b 722 474 635 753 722 638 l 722 0 l 606 0 l 606 440 b 451 650 606 582 554 650 b 256 439 333 650 256 575 l 256 0 l 139 0 "},"ħ":{"ha":833,"x_min":0,"x_max":0,"o":"m 139 808 l 50 808 l 50 903 l 139 903 l 139 986 l 256 986 l 256 903 l 467 903 l 467 808 l 256 808 l 256 621 b 476 753 293 711 376 753 b 722 474 635 753 722 638 l 722 0 l 606 0 l 606 440 b 451 650 606 582 554 650 b 256 439 333 650 256 575 l 256 0 l 139 0 "},"ĥ":{"ha":833,"x_min":0,"x_max":0,"o":"m 132 1265 l 263 1265 l 392 1081 l 294 1081 l 197 1206 l 100 1081 l 3 1081 m 139 986 l 256 986 l 256 621 b 476 753 293 711 376 753 b 722 474 635 753 722 638 l 722 0 l 606 0 l 606 440 b 451 650 606 582 554 650 b 256 439 333 650 256 575 l 256 0 l 139 0 "},"i":{"ha":833,"x_min":0,"x_max":0,"o":"m 396 988 l 518 988 l 518 851 l 396 851 m 111 103 l 407 103 l 407 633 l 125 633 l 125 736 l 524 736 l 524 103 l 778 103 l 778 0 l 111 0 "},"ı":{"ha":833,"x_min":0,"x_max":0,"o":"m 111 103 l 407 103 l 407 633 l 125 633 l 125 736 l 524 736 l 524 103 l 778 103 l 778 0 l 111 0 "},"í":{"ha":833,"x_min":0,"x_max":0,"o":"m 497 1011 l 628 1011 l 503 833 l 406 833 m 111 103 l 407 103 l 407 633 l 125 633 l 125 736 l 524 736 l 524 103 l 778 103 l 778 0 l 111 0 "},"î":{"ha":833,"x_min":0,"x_max":0,"o":"m 392 1015 l 522 1015 l 651 831 l 554 831 l 457 956 l 360 831 l 263 831 m 111 103 l 407 103 l 407 633 l 125 633 l 125 736 l 524 736 l 524 103 l 778 103 l 778 0 l 111 0 "},"ï":{"ha":833,"x_min":0,"x_max":0,"o":"m 264 988 l 386 988 l 386 851 l 264 851 m 531 988 l 653 988 l 653 851 l 531 851 m 111 103 l 407 103 l 407 633 l 125 633 l 125 736 l 524 736 l 524 103 l 778 103 l 778 0 l 111 0 "},"ì":{"ha":833,"x_min":0,"x_max":0,"o":"m 292 1011 l 422 1011 l 514 833 l 417 833 m 111 103 l 407 103 l 407 633 l 125 633 l 125 736 l 524 736 l 524 103 l 778 103 l 778 0 l 111 0 "},"ī":{"ha":833,"x_min":0,"x_max":0,"o":"m 271 968 l 643 968 l 643 868 l 271 868 m 111 103 l 407 103 l 407 633 l 125 633 l 125 736 l 524 736 l 524 103 l 778 103 l 778 0 l 111 0 "},"į":{"ha":833,"x_min":0,"x_max":0,"o":"m 396 988 l 518 988 l 518 851 l 396 851 m 111 103 l 407 103 l 407 633 l 125 633 l 125 736 l 524 736 l 524 103 l 778 103 l 778 0 l 729 -62 b 686 -156 693 -110 686 -133 b 728 -197 686 -183 701 -197 b 792 -178 747 -197 775 -192 l 825 -256 b 706 -292 803 -278 758 -292 b 581 -181 628 -292 581 -250 b 638 -42 581 -133 599 -90 l 671 0 l 111 0 "},"ĩ":{"ha":833,"x_min":0,"x_max":0,"o":"m 542 847 b 444 889 506 847 475 864 b 372 925 413 915 400 925 b 311 838 339 925 314 904 l 239 838 b 372 1000 242 944 297 1000 b 478 956 417 1000 446 982 b 547 922 507 932 525 922 b 606 1014 582 922 600 944 l 678 1014 b 542 847 672 908 621 847 m 111 103 l 407 103 l 407 633 l 125 633 l 125 736 l 524 736 l 524 103 l 778 103 l 778 0 l 111 0 "},"j":{"ha":833,"x_min":0,"x_max":0,"o":"m 488 988 l 610 988 l 610 851 l 488 851 m 153 -106 l 386 -106 b 494 8 458 -106 494 -81 l 494 633 l 167 633 l 167 736 l 611 736 l 611 0 b 400 -208 611 -135 547 -208 l 153 -208 "},"ȷ":{"ha":833,"x_min":0,"x_max":0,"o":"m 153 -106 l 386 -106 b 494 8 458 -106 494 -81 l 494 633 l 167 633 l 167 736 l 611 736 l 611 0 b 400 -208 611 -135 547 -208 l 153 -208 "},"ĵ":{"ha":833,"x_min":0,"x_max":0,"o":"m 483 1015 l 614 1015 l 743 831 l 646 831 l 549 956 l 451 831 l 354 831 m 153 -106 l 386 -106 b 494 8 458 -106 494 -81 l 494 633 l 167 633 l 167 736 l 611 736 l 611 0 b 400 -208 611 -135 547 -208 l 153 -208 "},"k":{"ha":833,"x_min":0,"x_max":0,"o":"m 125 986 l 242 986 l 242 340 l 600 736 l 756 736 l 465 424 l 769 0 l 628 0 l 386 344 l 242 192 l 242 0 l 125 0 "},"ǩ":{"ha":833,"x_min":0,"x_max":0,"o":"m 88 1265 l 185 1140 l 282 1265 l 379 1265 l 250 1081 l 119 1081 l -10 1265 m 125 986 l 242 986 l 242 340 l 600 736 l 756 736 l 465 424 l 769 0 l 628 0 l 386 344 l 242 192 l 242 0 l 125 0 "},"ķ":{"ha":833,"x_min":0,"x_max":0,"o":"m 125 986 l 242 986 l 242 340 l 600 736 l 756 736 l 465 424 l 769 0 l 628 0 l 386 344 l 242 192 l 242 0 l 125 0 m 407 -200 l 360 -200 l 360 -75 l 499 -75 l 499 -194 l 410 -333 l 332 -333 "},"l":{"ha":833,"x_min":0,"x_max":0,"o":"m 83 103 l 379 103 l 379 789 b 285 883 379 849 344 883 l 111 883 l 111 986 l 290 986 b 496 781 425 986 496 915 l 496 103 l 750 103 l 750 0 l 83 0 "},"ĺ":{"ha":833,"x_min":0,"x_max":0,"o":"m 428 1261 l 558 1261 l 433 1083 l 336 1083 m 83 103 l 379 103 l 379 789 b 285 883 379 849 344 883 l 111 883 l 111 986 l 290 986 b 496 781 425 986 496 915 l 496 103 l 750 103 l 750 0 l 83 0 "},"ľ":{"ha":833,"x_min":0,"x_max":0,"o":"m 83 103 l 379 103 l 379 789 b 285 883 379 849 344 883 l 111 883 l 111 986 l 290 986 b 496 781 425 986 496 915 l 496 103 l 750 103 l 750 0 l 83 0 m 625 986 l 742 986 l 667 633 l 583 633 "},"ļ":{"ha":833,"x_min":0,"x_max":0,"o":"m 83 103 l 379 103 l 379 789 b 285 883 379 849 344 883 l 111 883 l 111 986 l 290 986 b 496 781 425 986 496 915 l 496 103 l 750 103 l 750 0 l 83 0 m 414 -200 l 367 -200 l 367 -75 l 506 -75 l 506 -194 l 417 -333 l 339 -333 "},"ł":{"ha":833,"x_min":0,"x_max":0,"o":"m 83 103 l 379 103 l 379 479 l 236 422 l 236 514 l 379 571 l 379 789 b 285 883 379 849 344 883 l 111 883 l 111 986 l 290 986 b 496 781 425 986 496 915 l 496 618 l 653 681 l 653 589 l 496 526 l 496 103 l 750 103 l 750 0 l 83 0 "},"m":{"ha":833,"x_min":0,"x_max":0,"o":"m 56 736 l 163 736 l 165 628 b 311 753 190 706 242 753 b 450 607 388 753 433 703 b 608 753 474 697 531 753 b 778 489 726 753 778 678 l 778 0 l 661 0 l 661 472 b 575 650 661 603 633 650 b 475 469 517 650 475 594 l 475 0 l 358 0 l 358 472 b 272 650 358 597 333 650 b 172 469 214 650 172 594 l 172 0 l 56 0 "},"n":{"ha":833,"x_min":0,"x_max":0,"o":"m 117 736 l 224 736 l 226 604 b 461 753 267 706 360 753 b 717 474 629 753 717 629 l 717 0 l 600 0 l 600 440 b 436 650 600 576 547 650 b 233 440 322 650 233 576 l 233 0 l 117 0 "},"ń":{"ha":833,"x_min":0,"x_max":0,"o":"m 456 1011 l 586 1011 l 461 833 l 364 833 m 117 736 l 224 736 l 226 604 b 461 753 267 706 360 753 b 717 474 629 753 717 629 l 717 0 l 600 0 l 600 440 b 436 650 600 576 547 650 b 233 440 322 650 233 576 l 233 0 l 117 0 "},"ň":{"ha":833,"x_min":0,"x_max":0,"o":"m 319 1015 l 417 890 l 514 1015 l 611 1015 l 482 831 l 351 831 l 222 1015 m 117 736 l 224 736 l 226 604 b 461 753 267 706 360 753 b 717 474 629 753 717 629 l 717 0 l 600 0 l 600 440 b 436 650 600 576 547 650 b 233 440 322 650 233 576 l 233 0 l 117 0 "},"ņ":{"ha":833,"x_min":0,"x_max":0,"o":"m 117 736 l 224 736 l 226 604 b 461 753 267 706 360 753 b 717 474 629 753 717 629 l 717 0 l 600 0 l 600 440 b 436 650 600 576 547 650 b 233 440 322 650 233 576 l 233 0 l 117 0 m 394 -200 l 347 -200 l 347 -75 l 486 -75 l 486 -194 l 397 -333 l 319 -333 "},"ñ":{"ha":833,"x_min":0,"x_max":0,"o":"m 500 847 b 403 889 464 847 433 864 b 331 925 371 915 358 925 b 269 838 297 925 272 904 l 197 838 b 331 1000 200 944 256 1000 b 436 956 375 1000 404 982 b 506 922 465 932 483 922 b 564 1014 540 922 558 944 l 636 1014 b 500 847 631 908 579 847 m 117 736 l 224 736 l 226 604 b 461 753 267 706 360 753 b 717 474 629 753 717 629 l 717 0 l 600 0 l 600 440 b 436 650 600 576 547 650 b 233 440 322 650 233 576 l 233 0 l 117 0 "},"ŋ":{"ha":833,"x_min":0,"x_max":0,"o":"m 117 736 l 224 736 l 226 604 b 461 753 267 706 360 753 b 717 474 629 753 717 629 l 717 -10 b 508 -208 717 -131 638 -208 l 396 -208 l 396 -106 l 511 -106 b 600 -11 567 -106 600 -68 l 600 440 b 436 650 600 576 547 650 b 233 440 322 650 233 576 l 233 0 l 117 0 "},"o":{"ha":833,"x_min":0,"x_max":0,"o":"m 417 -17 b 81 368 213 -17 81 133 b 417 753 81 603 213 753 b 753 368 619 753 753 603 b 417 -17 753 133 619 -17 m 417 94 b 631 368 551 94 631 197 b 417 642 631 539 551 642 b 203 368 281 642 203 539 b 417 94 203 197 281 94 "},"ó":{"ha":833,"x_min":0,"x_max":0,"o":"m 456 1011 l 586 1011 l 461 833 l 364 833 m 417 -17 b 81 368 213 -17 81 133 b 417 753 81 603 213 753 b 753 368 619 753 753 603 b 417 -17 753 133 619 -17 m 417 94 b 631 368 551 94 631 197 b 417 642 631 539 551 642 b 203 368 281 642 203 539 b 417 94 203 197 281 94 "},"ô":{"ha":833,"x_min":0,"x_max":0,"o":"m 350 1015 l 481 1015 l 610 831 l 513 831 l 415 956 l 318 831 l 221 831 m 417 -17 b 81 368 213 -17 81 133 b 417 753 81 603 213 753 b 753 368 619 753 753 603 b 417 -17 753 133 619 -17 m 417 94 b 631 368 551 94 631 197 b 417 642 631 539 551 642 b 203 368 281 642 203 539 b 417 94 203 197 281 94 "},"ö":{"ha":833,"x_min":0,"x_max":0,"o":"m 222 988 l 344 988 l 344 851 l 222 851 m 489 988 l 611 988 l 611 851 l 489 851 m 417 -17 b 81 368 213 -17 81 133 b 417 753 81 603 213 753 b 753 368 619 753 753 603 b 417 -17 753 133 619 -17 m 417 94 b 631 368 551 94 631 197 b 417 642 631 539 551 642 b 203 368 281 642 203 539 b 417 94 203 197 281 94 "},"ò":{"ha":833,"x_min":0,"x_max":0,"o":"m 250 1011 l 381 1011 l 472 833 l 375 833 m 417 -17 b 81 368 213 -17 81 133 b 417 753 81 603 213 753 b 753 368 619 753 753 603 b 417 -17 753 133 619 -17 m 417 94 b 631 368 551 94 631 197 b 417 642 631 539 551 642 b 203 368 281 642 203 539 b 417 94 203 197 281 94 "},"ő":{"ha":833,"x_min":0,"x_max":0,"o":"m 356 1008 l 486 1008 l 361 831 l 264 831 m 550 1008 l 681 1008 l 556 831 l 458 831 m 417 -17 b 81 368 213 -17 81 133 b 417 753 81 603 213 753 b 753 368 619 753 753 603 b 417 -17 753 133 619 -17 m 417 94 b 631 368 551 94 631 197 b 417 642 631 539 551 642 b 203 368 281 642 203 539 b 417 94 203 197 281 94 "},"ō":{"ha":833,"x_min":0,"x_max":0,"o":"m 229 968 l 601 968 l 601 868 l 229 868 m 417 -17 b 81 368 213 -17 81 133 b 417 753 81 603 213 753 b 753 368 619 753 753 603 b 417 -17 753 133 619 -17 m 417 94 b 631 368 551 94 631 197 b 417 642 631 539 551 642 b 203 368 281 642 203 539 b 417 94 203 197 281 94 "},"ø":{"ha":833,"x_min":0,"x_max":0,"o":"m 178 82 b 81 368 115 149 81 247 b 417 753 81 603 213 753 b 590 707 483 753 542 738 l 622 756 l 722 756 l 656 654 b 753 368 718 588 753 489 b 417 -17 753 133 619 -17 b 243 29 350 -17 292 -1 l 211 -19 l 111 -19 m 203 368 b 246 185 203 293 218 231 l 528 611 b 417 642 497 632 460 642 b 203 368 281 642 203 539 m 417 94 b 631 368 551 94 631 197 b 588 550 631 443 615 504 l 306 124 b 417 94 336 104 374 94 "},"õ":{"ha":833,"x_min":0,"x_max":0,"o":"m 500 847 b 403 889 464 847 433 864 b 331 925 371 915 358 925 b 269 838 297 925 272 904 l 197 838 b 331 1000 200 944 256 1000 b 436 956 375 1000 404 982 b 506 922 465 932 483 922 b 564 1014 540 922 558 944 l 636 1014 b 500 847 631 908 579 847 m 417 -17 b 81 368 213 -17 81 133 b 417 753 81 603 213 753 b 753 368 619 753 753 603 b 417 -17 753 133 619 -17 m 417 94 b 631 368 551 94 631 197 b 417 642 631 539 551 642 b 203 368 281 642 203 539 b 417 94 203 197 281 94 "},"œ":{"ha":833,"x_min":0,"x_max":0,"o":"m 243 -17 b 14 368 103 -17 14 132 b 243 753 14 604 103 753 b 414 643 317 753 375 714 b 594 753 454 714 515 753 b 821 385 742 753 821 624 l 821 332 l 475 332 b 594 94 482 179 525 94 b 694 218 649 94 676 129 l 813 208 b 594 -17 778 46 718 -17 b 414 97 515 -17 454 25 b 243 -17 374 25 315 -17 m 243 94 b 354 368 313 94 354 197 b 243 642 354 539 313 642 b 133 368 175 642 133 538 b 243 94 133 199 175 94 m 700 435 b 588 642 690 574 653 642 b 476 435 524 642 488 574 "},"p":{"ha":833,"x_min":0,"x_max":0,"o":"m 111 736 l 219 736 l 221 618 b 447 753 265 706 347 753 b 764 368 667 753 764 571 b 447 -17 764 165 667 -17 b 228 97 351 -17 267 26 l 228 -208 l 111 -208 m 436 94 b 642 368 564 94 642 196 b 436 642 642 540 564 642 b 228 368 308 642 228 549 b 436 94 228 188 307 94 "},"þ":{"ha":833,"x_min":0,"x_max":0,"o":"m 111 986 l 231 986 l 231 638 b 454 753 272 708 349 753 b 764 368 667 753 764 571 b 454 -17 764 165 667 -17 b 231 94 349 -17 275 25 l 231 -208 l 111 -208 m 431 94 b 642 368 583 94 642 228 b 431 647 642 514 583 647 b 218 368 279 647 218 511 b 431 94 218 231 279 94 "},"q":{"ha":833,"x_min":0,"x_max":0,"o":"m 606 -208 l 606 97 b 386 -17 567 26 482 -17 b 69 368 167 -17 69 165 b 386 753 69 571 167 753 b 613 618 486 753 568 706 l 614 736 l 722 736 l 722 -208 m 397 94 b 606 368 526 94 606 188 b 397 642 606 549 525 642 b 192 368 269 642 192 540 b 397 94 192 196 269 94 "},"r":{"ha":833,"x_min":0,"x_max":0,"o":"m 125 103 l 317 103 l 317 633 l 125 633 l 125 736 l 414 736 l 422 594 b 599 736 447 690 507 736 l 750 736 l 750 631 l 600 631 b 433 444 492 631 433 565 l 433 103 l 667 103 l 667 0 l 125 0 "},"ŕ":{"ha":833,"x_min":0,"x_max":0,"o":"m 510 1011 l 640 1011 l 515 833 l 418 833 m 125 103 l 317 103 l 317 633 l 125 633 l 125 736 l 414 736 l 422 594 b 599 736 447 690 507 736 l 750 736 l 750 631 l 600 631 b 433 444 492 631 433 565 l 433 103 l 667 103 l 667 0 l 125 0 "},"ř":{"ha":833,"x_min":0,"x_max":0,"o":"m 374 1015 l 471 890 l 568 1015 l 665 1015 l 536 831 l 406 831 l 276 1015 m 125 103 l 317 103 l 317 633 l 125 633 l 125 736 l 414 736 l 422 594 b 599 736 447 690 507 736 l 750 736 l 750 631 l 600 631 b 433 444 492 631 433 565 l 433 103 l 667 103 l 667 0 l 125 0 "},"ŗ":{"ha":833,"x_min":0,"x_max":0,"o":"m 125 103 l 317 103 l 317 633 l 125 633 l 125 736 l 414 736 l 422 594 b 599 736 447 690 507 736 l 750 736 l 750 631 l 600 631 b 433 444 492 631 433 565 l 433 103 l 667 103 l 667 0 l 125 0 m 351 -200 l 304 -200 l 304 -75 l 443 -75 l 443 -194 l 354 -333 l 276 -333 "},"s":{"ha":833,"x_min":0,"x_max":0,"o":"m 431 -17 b 111 232 239 -17 122 93 l 233 240 b 431 94 247 149 314 94 b 603 192 539 94 603 125 b 408 308 603 256 569 281 b 131 531 194 346 131 411 b 410 753 131 658 229 753 b 708 517 592 753 686 644 l 586 508 b 408 642 569 586 508 642 b 250 531 300 642 250 593 b 433 411 250 456 300 433 b 722 192 661 374 722 314 b 431 -17 722 61 597 -17 "},"ś":{"ha":833,"x_min":0,"x_max":0,"o":"m 458 1011 l 589 1011 l 464 833 l 367 833 m 431 -17 b 111 232 239 -17 122 93 l 233 240 b 431 94 247 149 314 94 b 603 192 539 94 603 125 b 408 308 603 256 569 281 b 131 531 194 346 131 411 b 410 753 131 658 229 753 b 708 517 592 753 686 644 l 586 508 b 408 642 569 586 508 642 b 250 531 300 642 250 593 b 433 411 250 456 300 433 b 722 192 661 374 722 314 b 431 -17 722 61 597 -17 "},"š":{"ha":833,"x_min":0,"x_max":0,"o":"m 322 1015 l 419 890 l 517 1015 l 614 1015 l 485 831 l 354 831 l 225 1015 m 431 -17 b 111 232 239 -17 122 93 l 233 240 b 431 94 247 149 314 94 b 603 192 539 94 603 125 b 408 308 603 256 569 281 b 131 531 194 346 131 411 b 410 753 131 658 229 753 b 708 517 592 753 686 644 l 586 508 b 408 642 569 586 508 642 b 250 531 300 642 250 593 b 433 411 250 456 300 433 b 722 192 661 374 722 314 b 431 -17 722 61 597 -17 "},"ş":{"ha":833,"x_min":0,"x_max":0,"o":"m 406 -306 b 243 -197 317 -306 263 -258 l 314 -169 b 403 -228 331 -211 357 -228 b 478 -172 450 -228 478 -207 b 372 -111 478 -137 461 -111 l 333 -69 l 369 -12 b 111 232 214 8 121 108 l 233 240 b 431 94 247 149 314 94 b 603 192 539 94 603 125 b 408 308 603 256 569 281 b 131 531 194 346 131 411 b 410 753 131 658 229 753 b 708 517 592 753 686 644 l 586 508 b 408 642 569 586 508 642 b 250 531 300 642 250 593 b 433 411 250 456 300 433 b 722 192 661 374 722 314 b 453 -17 722 67 608 -10 l 428 -50 b 561 -175 518 -54 561 -103 b 406 -306 561 -253 496 -306 "},"ŝ":{"ha":833,"x_min":0,"x_max":0,"o":"m 353 1015 l 483 1015 l 613 831 l 515 831 l 418 956 l 321 831 l 224 831 m 431 -17 b 111 232 239 -17 122 93 l 233 240 b 431 94 247 149 314 94 b 603 192 539 94 603 125 b 408 308 603 256 569 281 b 131 531 194 346 131 411 b 410 753 131 658 229 753 b 708 517 592 753 686 644 l 586 508 b 408 642 569 586 508 642 b 250 531 300 642 250 593 b 433 411 250 456 300 433 b 722 192 661 374 722 314 b 431 -17 722 61 597 -17 "},"ș":{"ha":833,"x_min":0,"x_max":0,"o":"m 431 -17 b 111 232 239 -17 122 93 l 233 240 b 431 94 247 149 314 94 b 603 192 539 94 603 125 b 408 308 603 256 569 281 b 131 531 194 346 131 411 b 410 753 131 658 229 753 b 708 517 592 753 686 644 l 586 508 b 408 642 569 586 508 642 b 250 531 300 642 250 593 b 433 411 250 456 300 433 b 722 192 661 374 722 314 b 431 -17 722 61 597 -17 m 397 -200 l 350 -200 l 350 -75 l 489 -75 l 489 -194 l 400 -333 l 322 -333 "},"ß":{"ha":833,"x_min":0,"x_max":0,"o":"m 111 697 b 411 1000 111 883 231 1000 b 700 744 592 1000 700 896 b 551 535 700 642 643 565 b 761 281 679 504 761 408 b 411 0 761 106 633 0 l 322 0 l 322 111 l 411 111 b 639 286 557 111 639 168 b 397 469 639 401 557 469 l 336 469 l 336 579 l 397 579 b 581 742 513 579 581 643 b 411 889 581 828 525 889 b 228 697 300 889 228 817 l 228 0 l 111 0 "},"t":{"ha":833,"x_min":0,"x_max":0,"o":"m 525 0 b 313 203 382 0 313 65 l 313 633 l 69 633 l 69 736 l 313 736 l 313 908 l 429 908 l 429 736 l 722 736 l 722 633 l 429 633 l 429 203 b 525 103 429 135 460 103 l 722 103 l 722 0 l 525 0 "},"ŧ":{"ha":833,"x_min":0,"x_max":0,"o":"m 150 450 l 313 450 l 313 633 l 69 633 l 69 736 l 313 736 l 313 908 l 429 908 l 429 736 l 722 736 l 722 633 l 429 633 l 429 450 l 650 450 l 650 356 l 429 356 l 429 203 b 525 103 429 135 460 103 l 722 103 l 722 0 l 525 0 b 313 203 382 0 313 65 l 313 356 l 150 356 "},"ť":{"ha":833,"x_min":0,"x_max":0,"o":"m 568 1149 l 685 1149 l 610 796 l 526 796 m 525 0 b 313 203 382 0 313 65 l 313 633 l 69 633 l 69 736 l 313 736 l 313 908 l 429 908 l 429 736 l 722 736 l 722 633 l 429 633 l 429 203 b 525 103 429 135 460 103 l 722 103 l 722 0 l 525 0 "},"ţ":{"ha":833,"x_min":0,"x_max":0,"o":"m 486 -306 b 324 -197 397 -306 343 -258 l 394 -169 b 483 -228 411 -211 438 -228 b 558 -172 531 -228 558 -207 b 453 -111 558 -137 542 -111 l 414 -69 l 461 6 b 313 203 361 24 313 88 l 313 633 l 69 633 l 69 736 l 313 736 l 313 908 l 429 908 l 429 736 l 722 736 l 722 633 l 429 633 l 429 203 b 525 103 429 135 460 103 l 722 103 l 722 0 l 546 0 l 508 -50 b 642 -175 599 -54 642 -103 b 486 -306 642 -253 576 -306 "},"ț":{"ha":833,"x_min":0,"x_max":0,"o":"m 525 0 b 313 203 382 0 313 65 l 313 633 l 69 633 l 69 736 l 313 736 l 313 908 l 429 908 l 429 736 l 722 736 l 722 633 l 429 633 l 429 203 b 525 103 429 135 460 103 l 722 103 l 722 0 l 525 0 m 478 -200 l 431 -200 l 431 -75 l 569 -75 l 569 -194 l 481 -333 l 403 -333 "},"u":{"ha":833,"x_min":0,"x_max":0,"o":"m 365 -17 b 125 263 219 -17 125 88 l 125 736 l 242 736 l 242 294 b 397 86 242 151 292 86 b 583 297 513 86 583 165 l 583 736 l 700 736 l 700 0 l 589 0 l 589 119 b 365 -17 549 32 471 -17 "},"ú":{"ha":833,"x_min":0,"x_max":0,"o":"m 446 1011 l 576 1011 l 451 833 l 354 833 m 365 -17 b 125 263 219 -17 125 88 l 125 736 l 242 736 l 242 294 b 397 86 242 151 292 86 b 583 297 513 86 583 165 l 583 736 l 700 736 l 700 0 l 589 0 l 589 119 b 365 -17 549 32 471 -17 "},"ŭ":{"ha":833,"x_min":0,"x_max":0,"o":"m 407 838 b 213 1015 293 838 218 907 l 293 1015 b 407 924 301 951 343 924 b 521 1015 471 924 513 951 l 601 1015 b 407 838 596 907 521 838 m 365 -17 b 125 263 219 -17 125 88 l 125 736 l 242 736 l 242 294 b 397 86 242 151 292 86 b 583 297 513 86 583 165 l 583 736 l 700 736 l 700 0 l 589 0 l 589 119 b 365 -17 549 32 471 -17 "},"û":{"ha":833,"x_min":0,"x_max":0,"o":"m 340 1015 l 471 1015 l 600 831 l 503 831 l 406 956 l 308 831 l 211 831 m 365 -17 b 125 263 219 -17 125 88 l 125 736 l 242 736 l 242 294 b 397 86 242 151 292 86 b 583 297 513 86 583 165 l 583 736 l 700 736 l 700 0 l 589 0 l 589 119 b 365 -17 549 32 471 -17 "},"ü":{"ha":833,"x_min":0,"x_max":0,"o":"m 213 988 l 335 988 l 335 851 l 213 851 m 479 988 l 601 988 l 601 851 l 479 851 m 365 -17 b 125 263 219 -17 125 88 l 125 736 l 242 736 l 242 294 b 397 86 242 151 292 86 b 583 297 513 86 583 165 l 583 736 l 700 736 l 700 0 l 589 0 l 589 119 b 365 -17 549 32 471 -17 "},"ù":{"ha":833,"x_min":0,"x_max":0,"o":"m 240 1011 l 371 1011 l 463 833 l 365 833 m 365 -17 b 125 263 219 -17 125 88 l 125 736 l 242 736 l 242 294 b 397 86 242 151 292 86 b 583 297 513 86 583 165 l 583 736 l 700 736 l 700 0 l 589 0 l 589 119 b 365 -17 549 32 471 -17 "},"ű":{"ha":833,"x_min":0,"x_max":0,"o":"m 346 1008 l 476 1008 l 351 831 l 254 831 m 540 1008 l 671 1008 l 546 831 l 449 831 m 365 -17 b 125 263 219 -17 125 88 l 125 736 l 242 736 l 242 294 b 397 86 242 151 292 86 b 583 297 513 86 583 165 l 583 736 l 700 736 l 700 0 l 589 0 l 589 119 b 365 -17 549 32 471 -17 "},"ū":{"ha":833,"x_min":0,"x_max":0,"o":"m 219 968 l 592 968 l 592 868 l 219 868 m 365 -17 b 125 263 219 -17 125 88 l 125 736 l 242 736 l 242 294 b 397 86 242 151 292 86 b 583 297 513 86 583 165 l 583 736 l 700 736 l 700 0 l 589 0 l 589 119 b 365 -17 549 32 471 -17 "},"ų":{"ha":833,"x_min":0,"x_max":0,"o":"m 365 -17 b 125 263 219 -17 125 88 l 125 736 l 242 736 l 242 294 b 397 86 242 151 292 86 b 583 297 513 86 583 165 l 583 736 l 700 736 l 700 0 l 651 -62 b 608 -156 615 -110 608 -133 b 650 -197 608 -183 624 -197 b 714 -178 669 -197 697 -192 l 747 -256 b 628 -292 725 -278 681 -292 b 503 -181 550 -292 503 -250 b 560 -42 503 -133 521 -90 l 593 0 l 589 0 l 589 119 b 365 -17 549 32 471 -17 "},"ů":{"ha":833,"x_min":0,"x_max":0,"o":"m 407 800 b 279 928 335 800 279 856 b 407 1056 279 1000 335 1056 b 535 928 479 1056 535 1000 b 407 800 535 856 479 800 m 407 869 b 465 928 440 869 465 894 b 407 986 465 961 440 986 b 349 928 374 986 349 961 b 407 869 349 894 374 869 m 365 -17 b 125 263 219 -17 125 88 l 125 736 l 242 736 l 242 294 b 397 86 242 151 292 86 b 583 297 513 86 583 165 l 583 736 l 700 736 l 700 0 l 589 0 l 589 119 b 365 -17 549 32 471 -17 "},"ũ":{"ha":833,"x_min":0,"x_max":0,"o":"m 490 847 b 393 889 454 847 424 864 b 321 925 361 915 349 925 b 260 838 288 925 263 904 l 188 838 b 321 1000 190 944 246 1000 b 426 956 365 1000 394 982 b 496 922 456 932 474 922 b 554 1014 531 922 549 944 l 626 1014 b 490 847 621 908 569 847 m 365 -17 b 125 263 219 -17 125 88 l 125 736 l 242 736 l 242 294 b 397 86 242 151 292 86 b 583 297 513 86 583 165 l 583 736 l 700 736 l 700 0 l 589 0 l 589 119 b 365 -17 549 32 471 -17 "},"v":{"ha":833,"x_min":0,"x_max":0,"o":"m 69 736 l 197 736 l 417 119 l 636 736 l 764 736 l 490 0 l 343 0 "},"w":{"ha":833,"x_min":0,"x_max":0,"o":"m 28 736 l 156 736 l 251 122 l 360 633 l 474 633 l 582 122 l 678 736 l 806 736 l 661 0 l 514 0 l 417 464 l 319 0 l 174 0 "},"ẃ":{"ha":833,"x_min":0,"x_max":0,"o":"m 456 1011 l 586 1011 l 461 833 l 364 833 m 28 736 l 156 736 l 251 122 l 360 633 l 474 633 l 582 122 l 678 736 l 806 736 l 661 0 l 514 0 l 417 464 l 319 0 l 174 0 "},"ŵ":{"ha":833,"x_min":0,"x_max":0,"o":"m 350 1015 l 481 1015 l 610 831 l 513 831 l 415 956 l 318 831 l 221 831 m 28 736 l 156 736 l 251 122 l 360 633 l 474 633 l 582 122 l 678 736 l 806 736 l 661 0 l 514 0 l 417 464 l 319 0 l 174 0 "},"ẅ":{"ha":833,"x_min":0,"x_max":0,"o":"m 222 988 l 344 988 l 344 851 l 222 851 m 489 988 l 611 988 l 611 851 l 489 851 m 28 736 l 156 736 l 251 122 l 360 633 l 474 633 l 582 122 l 678 736 l 806 736 l 661 0 l 514 0 l 417 464 l 319 0 l 174 0 "},"ẁ":{"ha":833,"x_min":0,"x_max":0,"o":"m 250 1011 l 381 1011 l 472 833 l 375 833 m 28 736 l 156 736 l 251 122 l 360 633 l 474 633 l 582 122 l 678 736 l 806 736 l 661 0 l 514 0 l 417 464 l 319 0 l 174 0 "},"x":{"ha":833,"x_min":0,"x_max":0,"o":"m 346 378 l 89 736 l 225 736 l 418 458 l 607 736 l 746 736 l 490 375 l 758 0 l 622 0 l 418 297 l 214 0 l 75 0 "},"y":{"ha":833,"x_min":0,"x_max":0,"o":"m 192 -106 l 276 -106 b 363 -56 328 -106 349 -90 l 389 14 l 349 14 l 75 736 l 203 736 l 426 122 l 636 736 l 764 736 l 465 -93 b 288 -208 438 -172 386 -208 l 192 -208 "},"ý":{"ha":833,"x_min":0,"x_max":0,"o":"m 460 1011 l 590 1011 l 465 833 l 368 833 m 192 -106 l 276 -106 b 363 -56 328 -106 349 -90 l 389 14 l 349 14 l 75 736 l 203 736 l 426 122 l 636 736 l 764 736 l 465 -93 b 288 -208 438 -172 386 -208 l 192 -208 "},"ŷ":{"ha":833,"x_min":0,"x_max":0,"o":"m 354 1015 l 485 1015 l 614 831 l 517 831 l 419 956 l 322 831 l 225 831 m 192 -106 l 276 -106 b 363 -56 328 -106 349 -90 l 389 14 l 349 14 l 75 736 l 203 736 l 426 122 l 636 736 l 764 736 l 465 -93 b 288 -208 438 -172 386 -208 l 192 -208 "},"ÿ":{"ha":833,"x_min":0,"x_max":0,"o":"m 226 988 l 349 988 l 349 851 l 226 851 m 493 988 l 615 988 l 615 851 l 493 851 m 192 -106 l 276 -106 b 363 -56 328 -106 349 -90 l 389 14 l 349 14 l 75 736 l 203 736 l 426 122 l 636 736 l 764 736 l 465 -93 b 288 -208 438 -172 386 -208 l 192 -208 "},"ỳ":{"ha":833,"x_min":0,"x_max":0,"o":"m 254 1011 l 385 1011 l 476 833 l 379 833 m 192 -106 l 276 -106 b 363 -56 328 -106 349 -90 l 389 14 l 349 14 l 75 736 l 203 736 l 426 122 l 636 736 l 764 736 l 465 -93 b 288 -208 438 -172 386 -208 l 192 -208 "},"ỹ":{"ha":833,"x_min":0,"x_max":0,"o":"m 504 847 b 407 889 468 847 438 864 b 335 925 375 915 363 925 b 274 838 301 925 276 904 l 201 838 b 335 1000 204 944 260 1000 b 440 956 379 1000 408 982 b 510 922 469 932 488 922 b 568 1014 544 922 563 944 l 640 1014 b 504 847 635 908 583 847 m 192 -106 l 276 -106 b 363 -56 328 -106 349 -90 l 389 14 l 349 14 l 75 736 l 203 736 l 426 122 l 636 736 l 764 736 l 465 -93 b 288 -208 438 -172 386 -208 l 192 -208 "},"z":{"ha":833,"x_min":0,"x_max":0,"o":"m 114 117 l 581 633 l 128 633 l 128 736 l 708 736 l 708 619 l 242 103 l 719 103 l 719 0 l 114 0 "},"ź":{"ha":833,"x_min":0,"x_max":0,"o":"m 457 1011 l 588 1011 l 463 833 l 365 833 m 114 117 l 581 633 l 128 633 l 128 736 l 708 736 l 708 619 l 242 103 l 719 103 l 719 0 l 114 0 "},"ž":{"ha":833,"x_min":0,"x_max":0,"o":"m 321 1015 l 418 890 l 515 1015 l 613 1015 l 483 831 l 353 831 l 224 1015 m 114 117 l 581 633 l 128 633 l 128 736 l 708 736 l 708 619 l 242 103 l 719 103 l 719 0 l 114 0 "},"ż":{"ha":833,"x_min":0,"x_max":0,"o":"m 356 988 l 478 988 l 478 851 l 356 851 m 114 117 l 581 633 l 128 633 l 128 736 l 708 736 l 708 619 l 242 103 l 719 103 l 719 0 l 114 0 "},"ꞌ":{"ha":833,"x_min":0,"x_max":0,"o":"m 356 797 l 356 986 l 478 986 l 478 797 l 458 525 l 375 525 "},"ª":{"ha":833,"x_min":0,"x_max":0,"o":"m 342 522 b 181 647 244 522 181 568 b 331 794 181 731 235 775 l 485 825 b 399 919 485 888 453 919 b 308 850 346 919 318 894 l 189 856 b 399 1008 206 954 282 1008 b 601 817 532 1008 601 940 l 601 643 b 626 610 601 618 610 610 l 642 610 l 642 526 b 599 522 636 525 619 522 b 499 606 549 522 507 540 b 342 522 476 558 421 522 m 361 604 b 485 715 433 604 485 647 l 485 747 l 369 722 b 300 657 321 711 300 688 b 361 604 300 624 321 604 "},"º":{"ha":833,"x_min":0,"x_max":0,"o":"m 417 522 b 181 765 272 522 181 617 b 417 1008 181 913 272 1008 b 653 765 560 1008 653 911 b 417 522 653 617 560 522 m 417 613 b 536 765 492 613 536 669 b 417 918 536 860 492 918 b 297 765 339 918 297 857 b 417 613 297 671 339 613 "},"А":{"ha":833,"x_min":0,"x_max":0,"o":"m 336 986 l 497 986 l 797 0 l 669 0 l 589 281 l 244 281 l 164 0 l 36 0 m 278 397 l 556 397 l 417 878 "},"Б":{"ha":833,"x_min":0,"x_max":0,"o":"m 111 986 l 726 986 l 726 869 l 231 869 l 231 603 l 411 603 b 750 301 617 603 750 490 b 411 0 750 113 617 0 l 111 0 m 397 117 b 625 301 553 117 625 182 b 397 486 625 421 553 486 l 231 486 l 231 117 "},"В":{"ha":833,"x_min":0,"x_max":0,"o":"m 125 986 l 403 986 b 731 717 619 986 731 883 b 551 508 731 610 660 528 b 772 275 690 490 772 403 b 438 0 772 104 646 0 l 125 0 m 408 560 b 606 714 544 560 606 615 b 408 869 606 814 544 869 l 244 869 l 244 560 m 439 117 b 647 275 581 117 647 175 b 439 443 647 381 575 443 l 244 443 l 244 117 "},"Г":{"ha":833,"x_min":0,"x_max":0,"o":"m 139 986 l 767 986 l 767 869 l 258 869 l 258 0 l 139 0 "},"Ѓ":{"ha":833,"x_min":0,"x_max":0,"o":"m 492 1261 l 622 1261 l 497 1083 l 400 1083 m 139 986 l 767 986 l 767 869 l 258 869 l 258 0 l 139 0 "},"Ґ":{"ha":833,"x_min":0,"x_max":0,"o":"m 139 986 l 661 986 l 661 1201 l 781 1201 l 781 869 l 258 869 l 258 0 l 139 0 "},"Ғ":{"ha":833,"x_min":0,"x_max":0,"o":"m 139 397 l 26 397 l 26 514 l 139 514 l 139 986 l 767 986 l 767 869 l 258 869 l 258 514 l 590 514 l 590 397 l 258 397 l 258 0 l 139 0 "},"Д":{"ha":833,"x_min":0,"x_max":0,"o":"m 17 117 l 74 117 b 192 300 143 117 178 174 l 264 986 l 683 986 l 683 117 l 806 117 l 806 -208 l 686 -208 l 686 0 l 136 0 l 136 -208 l 17 -208 m 564 117 l 564 869 l 374 869 l 311 286 b 256 117 303 213 285 157 "},"Е":{"ha":833,"x_min":0,"x_max":0,"o":"m 125 986 l 725 986 l 725 869 l 244 869 l 244 551 l 708 551 l 708 438 l 244 438 l 244 117 l 736 117 l 736 0 l 125 0 "},"Ѐ":{"ha":833,"x_min":0,"x_max":0,"o":"m 275 1263 l 406 1263 l 497 1085 l 400 1085 m 125 986 l 725 986 l 725 869 l 244 869 l 244 551 l 708 551 l 708 438 l 244 438 l 244 117 l 736 117 l 736 0 l 125 0 "},"Ё":{"ha":833,"x_min":0,"x_max":0,"o":"m 247 1239 l 369 1239 l 369 1103 l 247 1103 m 514 1239 l 636 1239 l 636 1103 l 514 1103 m 125 986 l 725 986 l 725 869 l 244 869 l 244 551 l 708 551 l 708 438 l 244 438 l 244 117 l 736 117 l 736 0 l 125 0 "},"Ж":{"ha":833,"x_min":0,"x_max":0,"o":"m 242 493 l 24 986 l 153 986 l 357 525 l 357 986 l 476 986 l 476 525 l 681 986 l 810 986 l 592 493 l 824 0 l 694 0 l 476 464 l 476 0 l 357 0 l 357 464 l 139 0 l 10 0 "},"З":{"ha":833,"x_min":0,"x_max":0,"o":"m 417 -22 b 46 254 213 -22 54 92 l 169 263 b 417 94 179 160 281 94 b 661 281 561 94 661 167 b 436 467 661 413 539 468 l 333 465 l 333 583 l 436 582 b 626 751 515 581 626 624 b 417 892 626 838 540 892 b 207 763 304 892 219 842 l 82 771 b 417 1008 100 910 243 1008 b 751 751 608 1008 751 903 b 571 533 751 642 690 568 b 785 271 708 493 785 399 b 417 -22 785 99 628 -22 "},"И":{"ha":833,"x_min":0,"x_max":0,"o":"m 617 0 l 617 850 l 267 0 l 97 0 l 97 986 l 217 986 l 217 136 l 567 986 l 736 986 l 736 0 "},"Й":{"ha":833,"x_min":0,"x_max":0,"o":"m 417 1088 b 222 1265 303 1088 228 1157 l 303 1265 b 417 1174 311 1201 353 1174 b 531 1265 481 1174 522 1201 l 611 1265 b 417 1088 606 1157 531 1088 m 617 0 l 617 850 l 267 0 l 97 0 l 97 986 l 217 986 l 217 136 l 567 986 l 736 986 l 736 0 "},"Ѝ":{"ha":833,"x_min":0,"x_max":0,"o":"m 250 1261 l 381 1261 l 472 1083 l 375 1083 m 617 0 l 617 850 l 267 0 l 97 0 l 97 986 l 217 986 l 217 136 l 567 986 l 736 986 l 736 0 "},"К":{"ha":833,"x_min":0,"x_max":0,"o":"m 81 986 l 200 986 l 200 504 l 614 986 l 771 986 l 344 493 l 785 0 l 628 0 l 200 482 l 200 0 l 81 0 "},"Ќ":{"ha":833,"x_min":0,"x_max":0,"o":"m 447 1261 l 578 1261 l 453 1083 l 356 1083 m 81 986 l 200 986 l 200 504 l 614 986 l 771 986 l 344 493 l 785 0 l 628 0 l 200 482 l 200 0 l 81 0 "},"Л":{"ha":833,"x_min":0,"x_max":0,"o":"m 28 117 l 108 117 b 190 218 158 117 185 157 l 254 986 l 760 986 l 760 0 l 640 0 l 640 869 l 367 869 l 311 204 b 126 0 301 81 249 0 l 28 0 "},"М":{"ha":833,"x_min":0,"x_max":0,"o":"m 189 829 l 189 0 l 69 0 l 69 986 l 250 986 l 417 290 l 583 986 l 764 986 l 764 0 l 644 0 l 644 829 l 469 111 l 364 111 "},"Н":{"ha":833,"x_min":0,"x_max":0,"o":"m 83 986 l 203 986 l 203 554 l 631 554 l 631 986 l 750 986 l 750 0 l 631 0 l 631 438 l 203 438 l 203 0 l 83 0 "},"О":{"ha":833,"x_min":0,"x_max":0,"o":"m 417 -22 b 53 492 183 -22 53 163 b 417 1008 53 824 183 1008 b 781 492 650 1008 781 824 b 417 -22 781 163 650 -22 m 417 94 b 656 492 569 94 656 233 b 417 892 656 750 569 892 b 178 492 264 892 178 750 b 417 94 178 233 264 94 "},"П":{"ha":833,"x_min":0,"x_max":0,"o":"m 97 986 l 736 986 l 736 0 l 617 0 l 617 869 l 217 869 l 217 0 l 97 0 "},"Р":{"ha":833,"x_min":0,"x_max":0,"o":"m 125 986 l 425 986 b 764 685 631 986 764 874 b 425 383 764 496 631 383 l 244 383 l 244 0 l 125 0 m 411 500 b 639 685 567 500 639 565 b 411 869 639 804 567 869 l 244 869 l 244 500 "},"С":{"ha":833,"x_min":0,"x_max":0,"o":"m 419 -22 b 53 492 183 -22 53 176 b 419 1008 53 810 183 1008 b 764 685 593 1008 722 889 l 636 676 b 419 892 604 818 522 892 b 178 492 263 892 178 747 b 419 94 178 238 263 94 b 646 332 533 94 618 175 l 772 325 b 419 -22 736 108 606 -22 "},"Т":{"ha":833,"x_min":0,"x_max":0,"o":"m 357 869 l 56 869 l 56 986 l 778 986 l 778 869 l 476 869 l 476 0 l 357 0 "},"У":{"ha":833,"x_min":0,"x_max":0,"o":"m 196 117 l 281 117 b 353 168 317 117 339 131 l 388 264 l 340 264 l 72 986 l 204 986 l 425 375 l 639 986 l 769 986 l 456 115 b 292 0 428 36 375 0 l 196 0 "},"Ў":{"ha":833,"x_min":0,"x_max":0,"o":"m 422 1088 b 228 1265 308 1088 233 1157 l 308 1265 b 422 1174 317 1201 358 1174 b 536 1265 486 1174 528 1201 l 617 1265 b 422 1088 611 1157 536 1088 m 196 117 l 281 117 b 353 168 317 117 339 131 l 388 264 l 340 264 l 72 986 l 204 986 l 425 375 l 639 986 l 769 986 l 456 115 b 292 0 428 36 375 0 l 196 0 "},"Ф":{"ha":833,"x_min":0,"x_max":0,"o":"m 356 106 b 35 493 157 129 35 274 b 356 881 35 713 157 857 l 356 986 l 475 986 l 475 882 b 799 493 676 857 799 713 b 475 104 799 274 676 129 l 475 0 l 356 0 m 674 493 b 475 763 674 640 599 740 l 475 224 b 674 493 599 246 674 346 m 160 493 b 356 224 160 347 233 247 l 356 763 b 160 493 233 739 160 639 "},"Х":{"ha":833,"x_min":0,"x_max":0,"o":"m 342 496 l 75 986 l 214 986 l 418 590 l 622 986 l 758 986 l 492 494 l 764 0 l 625 0 l 415 401 l 206 0 l 69 0 "},"Ч":{"ha":833,"x_min":0,"x_max":0,"o":"m 617 469 b 356 331 575 388 472 331 b 69 650 186 331 69 454 l 69 986 l 189 986 l 189 650 b 356 447 189 525 260 447 b 617 651 504 447 617 532 l 617 986 l 736 986 l 736 0 l 617 0 "},"Ц":{"ha":833,"x_min":0,"x_max":0,"o":"m 693 0 l 83 0 l 83 986 l 203 986 l 203 117 l 603 117 l 603 986 l 722 986 l 722 117 l 813 117 l 813 -208 l 693 -208 "},"Ш":{"ha":833,"x_min":0,"x_max":0,"o":"m 76 986 l 196 986 l 196 117 l 357 117 l 357 986 l 476 986 l 476 117 l 638 117 l 638 986 l 757 986 l 757 0 l 76 0 "},"Щ":{"ha":833,"x_min":0,"x_max":0,"o":"m 49 986 l 168 986 l 168 117 l 329 117 l 329 986 l 449 986 l 449 117 l 610 117 l 610 986 l 729 986 l 729 117 l 813 117 l 813 -208 l 693 -208 l 693 0 l 49 0 "},"Џ":{"ha":833,"x_min":0,"x_max":0,"o":"m 357 0 l 97 0 l 97 986 l 217 986 l 217 117 l 617 117 l 617 986 l 736 986 l 736 0 l 476 0 l 476 -208 l 357 -208 "},"Ь":{"ha":833,"x_min":0,"x_max":0,"o":"m 244 986 l 244 603 l 425 603 b 764 301 631 603 764 490 b 425 0 764 113 631 0 l 125 0 l 125 986 m 244 117 l 411 117 b 639 301 567 117 639 182 b 411 486 639 421 567 486 l 244 486 "},"Ы":{"ha":833,"x_min":0,"x_max":0,"o":"m 49 986 l 169 986 l 169 603 l 236 603 b 585 299 456 603 585 489 b 236 0 585 111 456 0 l 49 0 m 665 986 l 785 986 l 785 0 l 665 0 m 236 117 b 460 299 386 117 460 178 b 236 486 460 422 386 486 l 169 486 l 169 117 "},"Ъ":{"ha":833,"x_min":0,"x_max":0,"o":"m 42 986 l 269 986 l 269 869 l 268 869 l 268 603 l 449 603 b 788 301 654 603 788 490 b 449 0 788 113 654 0 l 149 0 l 149 869 l 42 869 m 268 117 l 435 117 b 663 301 590 117 663 182 b 435 486 663 421 590 486 l 268 486 "},"Љ":{"ha":833,"x_min":0,"x_max":0,"o":"m 7 117 l 46 117 b 128 218 96 117 125 157 l 164 986 l 507 986 l 508 603 l 547 603 b 826 299 725 603 826 489 b 547 0 826 111 725 0 l 388 0 l 388 869 l 276 869 l 249 204 b 64 0 243 81 186 0 l 7 0 m 535 117 b 689 299 643 117 689 178 b 535 486 689 422 643 486 l 508 486 l 508 117 "},"Њ":{"ha":833,"x_min":0,"x_max":0,"o":"m 28 986 l 147 986 l 147 603 l 311 603 l 311 986 l 432 986 l 432 603 l 485 603 b 806 299 704 603 806 489 b 485 0 806 111 704 0 l 311 0 l 311 486 l 147 486 l 147 0 l 28 0 m 472 117 b 668 299 622 117 668 178 b 472 486 668 422 622 486 l 432 486 l 432 117 "},"Ѕ":{"ha":833,"x_min":0,"x_max":0,"o":"m 432 -22 b 61 315 224 -22 78 115 l 186 324 b 435 94 206 176 296 94 b 647 244 572 94 647 149 b 371 456 647 339 600 390 b 85 728 165 514 85 581 b 413 1008 85 893 210 1008 b 754 694 615 1008 732 875 l 629 686 b 410 892 613 806 543 892 b 210 733 288 892 210 828 b 446 556 210 640 260 608 b 772 242 686 488 772 406 b 432 -22 772 86 633 -22 "},"Є":{"ha":833,"x_min":0,"x_max":0,"o":"m 417 -22 b 53 492 183 -22 53 163 b 417 1008 53 824 183 1008 b 771 642 613 1008 735 879 l 643 642 b 417 892 615 803 536 892 b 179 550 276 892 192 769 l 479 550 l 479 433 l 179 433 b 417 94 192 215 276 94 b 644 344 536 94 615 183 l 771 344 b 417 -22 736 108 613 -22 "},"Э":{"ha":833,"x_min":0,"x_max":0,"o":"m 417 -22 b 63 344 221 -22 97 108 l 189 344 b 417 94 218 183 297 94 b 654 433 557 94 642 215 l 354 433 l 354 550 l 654 550 b 417 892 642 769 557 892 b 190 642 297 892 218 803 l 63 642 b 417 1008 99 879 221 1008 b 781 492 650 1008 781 824 b 417 -22 781 163 650 -22 "},"І":{"ha":833,"x_min":0,"x_max":0,"o":"m 111 117 l 357 117 l 357 869 l 111 869 l 111 986 l 722 986 l 722 869 l 476 869 l 476 117 l 722 117 l 722 0 l 111 0 "},"Ї":{"ha":833,"x_min":0,"x_max":0,"o":"m 222 1238 l 344 1238 l 344 1101 l 222 1101 m 489 1238 l 611 1238 l 611 1101 l 489 1101 m 111 117 l 357 117 l 357 869 l 111 869 l 111 986 l 722 986 l 722 869 l 476 869 l 476 117 l 722 117 l 722 0 l 111 0 "},"Ј":{"ha":833,"x_min":0,"x_max":0,"o":"m 382 -22 b 56 319 188 -22 61 111 l 172 331 b 382 94 178 171 244 94 b 589 331 519 94 589 174 l 589 986 l 708 986 l 708 331 b 382 -22 708 113 583 -22 "},"Ћ":{"ha":833,"x_min":0,"x_max":0,"o":"m 167 869 l 7 869 l 7 986 l 489 986 l 489 869 l 286 869 l 286 524 b 506 656 322 601 407 656 b 792 336 675 656 792 532 l 792 0 l 672 0 l 672 336 b 492 539 672 456 597 539 b 286 335 371 539 286 454 l 286 0 l 167 0 "},"Ю":{"ha":833,"x_min":0,"x_max":0,"o":"m 28 986 l 147 986 l 147 551 l 269 551 b 536 1008 278 869 361 1008 b 806 492 724 1008 806 851 b 536 -22 806 135 724 -22 b 269 435 360 -22 278 118 l 147 435 l 147 0 l 28 0 m 536 94 b 681 492 640 94 681 204 b 536 892 681 781 640 892 b 394 492 433 892 394 781 b 536 94 394 204 433 94 "},"Я":{"ha":833,"x_min":0,"x_max":0,"o":"m 617 0 l 617 397 l 413 397 l 193 0 l 61 0 l 300 421 b 89 688 164 465 89 550 b 422 986 89 875 215 986 l 736 986 l 736 0 m 617 869 l 422 869 b 214 690 278 869 214 804 b 422 514 214 576 275 514 l 617 514 "},"Ђ":{"ha":833,"x_min":0,"x_max":0,"o":"m 167 869 l 7 869 l 7 986 l 489 986 l 489 869 l 286 869 l 286 525 b 496 656 321 603 401 656 b 819 332 685 656 819 522 b 422 0 819 128 667 0 l 422 117 b 694 332 593 117 694 200 b 496 539 694 460 617 539 b 286 335 372 539 286 454 l 286 0 l 167 0 "},"Ѣ":{"ha":833,"x_min":0,"x_max":0,"o":"m 21 853 l 158 853 l 158 986 l 278 986 l 278 853 l 506 853 l 506 736 l 278 736 l 278 603 l 458 603 b 797 301 664 603 797 490 b 458 0 797 113 664 0 l 158 0 l 158 736 l 21 736 m 278 117 l 444 117 b 672 301 600 117 672 182 b 444 486 672 421 600 486 l 278 486 "},"Ѫ":{"ha":833,"x_min":0,"x_max":0,"o":"m 146 401 b 292 540 181 497 236 540 l 89 869 l 89 986 l 744 986 l 744 869 l 542 540 b 686 401 601 538 653 493 l 832 0 l 704 0 l 582 344 b 506 424 560 406 539 424 l 476 424 l 476 0 l 357 0 l 357 424 l 328 424 b 250 344 293 424 271 406 l 129 0 l 1 0 m 417 563 l 606 869 l 228 869 "},"Ѳ":{"ha":833,"x_min":0,"x_max":0,"o":"m 417 -22 b 53 492 183 -22 53 163 b 417 1008 53 824 183 1008 b 781 492 650 1008 781 824 b 417 -22 781 163 650 -22 m 389 569 b 642 507 557 506 578 500 b 656 508 646 507 651 508 b 417 892 651 757 565 892 b 183 599 286 892 204 789 l 189 599 b 389 569 247 606 329 593 m 417 94 b 650 388 547 94 629 196 b 399 449 593 382 560 389 b 203 481 333 474 257 486 b 178 476 194 479 186 478 b 417 94 182 228 267 94 "},"Ѵ":{"ha":833,"x_min":0,"x_max":0,"o":"m 19 986 l 146 986 l 390 182 l 579 807 b 763 986 613 917 682 986 l 826 986 l 826 869 l 807 869 b 686 742 747 869 715 839 l 458 0 l 324 0 "},"Җ":{"ha":833,"x_min":0,"x_max":0,"o":"m 232 493 l 22 986 l 147 986 l 343 525 l 343 986 l 457 986 l 457 525 l 653 986 l 778 986 l 568 493 l 747 97 l 819 97 l 819 -208 l 700 -208 l 700 0 l 667 0 l 457 464 l 457 0 l 343 0 l 343 464 l 133 0 l 10 0 "},"Қ":{"ha":833,"x_min":0,"x_max":0,"o":"m 67 986 l 186 986 l 186 504 l 600 986 l 757 986 l 331 493 l 683 97 l 799 97 l 799 -208 l 679 -208 l 679 0 l 614 0 l 186 482 l 186 0 l 67 0 "},"Ң":{"ha":833,"x_min":0,"x_max":0,"o":"m 63 986 l 182 986 l 182 554 l 610 554 l 610 986 l 729 986 l 729 97 l 813 97 l 813 -208 l 693 -208 l 693 0 l 610 0 l 610 438 l 182 438 l 182 0 l 63 0 "},"Ү":{"ha":833,"x_min":0,"x_max":0,"o":"m 358 403 l 56 986 l 192 986 l 417 525 l 642 986 l 778 986 l 478 403 l 478 0 l 358 0 "},"Ұ":{"ha":833,"x_min":0,"x_max":0,"o":"m 121 435 l 340 435 l 54 986 l 190 986 l 415 525 l 640 986 l 776 986 l 493 435 l 710 435 l 710 318 l 476 318 l 476 0 l 357 0 l 357 318 l 121 318 "},"Ҳ":{"ha":833,"x_min":0,"x_max":0,"o":"m 342 496 l 75 986 l 214 986 l 418 590 l 622 986 l 758 986 l 492 494 l 710 97 l 806 97 l 806 -208 l 686 -208 l 686 0 l 625 0 l 415 401 l 206 0 l 69 0 "},"Ҷ":{"ha":833,"x_min":0,"x_max":0,"o":"m 596 469 b 335 331 554 388 451 331 b 49 650 165 331 49 454 l 49 986 l 168 986 l 168 650 b 335 447 168 525 239 447 b 596 651 483 447 596 532 l 596 986 l 715 986 l 715 97 l 813 97 l 813 -208 l 693 -208 l 693 0 l 596 0 "},"Һ":{"ha":833,"x_min":0,"x_max":0,"o":"m 217 517 b 478 656 258 599 361 656 b 764 336 647 656 764 532 l 764 0 l 644 0 l 644 336 b 478 539 644 461 574 539 b 217 335 329 539 217 454 l 217 0 l 97 0 l 97 986 l 217 986 "},"Ӏ":{"ha":833,"x_min":0,"x_max":0,"o":"m 111 117 l 357 117 l 357 869 l 111 869 l 111 986 l 722 986 l 722 869 l 476 869 l 476 117 l 722 117 l 722 0 l 111 0 "},"Ә":{"ha":833,"x_min":0,"x_max":0,"o":"m 428 -22 b 53 476 192 -22 53 181 l 53 542 l 668 542 b 419 892 668 751 574 892 b 203 681 306 892 233 808 l 72 692 b 414 1008 128 890 249 1008 b 794 493 654 1008 794 824 b 428 -22 794 176 643 -22 m 428 94 b 667 425 574 94 667 219 l 182 425 b 428 94 182 219 275 94 "},"Ӣ":{"ha":833,"x_min":0,"x_max":0,"o":"m 229 1218 l 601 1218 l 601 1118 l 229 1118 m 617 0 l 617 850 l 267 0 l 97 0 l 97 986 l 217 986 l 217 136 l 567 986 l 736 986 l 736 0 "},"Ө":{"ha":833,"x_min":0,"x_max":0,"o":"m 417 -22 b 53 492 183 -22 53 163 b 417 1008 53 824 183 1008 b 781 492 650 1008 781 824 b 417 -22 781 163 650 -22 m 417 892 b 179 551 276 892 192 772 l 654 551 b 417 892 642 772 557 892 m 417 94 b 654 435 558 94 642 213 l 179 435 b 417 94 192 213 275 94 "},"Ӯ":{"ha":833,"x_min":0,"x_max":0,"o":"m 235 1218 l 607 1218 l 607 1118 l 235 1118 m 196 117 l 281 117 b 353 168 317 117 339 131 l 388 264 l 340 264 l 72 986 l 204 986 l 425 375 l 639 986 l 769 986 l 456 115 b 292 0 428 36 375 0 l 196 0 "},"а":{"ha":833,"x_min":0,"x_max":0,"o":"m 319 -17 b 75 183 181 -17 75 64 b 308 406 75 308 147 374 l 556 456 b 392 642 556 581 497 642 b 213 510 289 642 235 594 l 89 519 b 392 753 117 658 225 753 b 672 453 569 753 672 639 l 672 147 b 717 103 672 114 686 103 l 764 103 l 764 0 b 703 -3 753 -1 725 -3 b 560 104 622 -3 575 29 b 319 -17 519 32 425 -17 m 331 86 b 556 292 481 86 556 169 l 556 356 l 331 311 b 197 194 231 292 197 256 b 331 86 197 125 247 86 "},"б":{"ha":833,"x_min":0,"x_max":0,"o":"m 417 -22 b 186 85 331 -22 257 8 b 81 435 115 156 81 282 b 321 901 81 703 151 822 b 443 1056 414 944 443 976 l 563 1057 b 410 817 563 949 522 876 b 201 531 306 761 211 729 b 438 672 251 621 331 672 b 751 328 619 672 751 531 b 417 -22 751 113 607 -22 m 417 89 b 629 328 542 89 629 188 b 424 561 629 465 544 561 b 208 328 299 561 210 465 b 417 89 206 188 292 89 "},"в":{"ha":833,"x_min":0,"x_max":0,"o":"m 125 736 l 431 736 b 708 532 600 736 708 657 b 551 381 708 450 650 394 b 739 208 668 368 739 303 b 471 0 739 81 635 0 l 125 0 m 431 425 b 583 532 524 425 583 467 b 431 633 583 594 524 633 l 242 633 l 242 425 m 471 103 b 614 208 558 103 614 144 b 471 322 614 279 558 322 l 242 322 l 242 103 "},"г":{"ha":833,"x_min":0,"x_max":0,"o":"m 207 736 l 722 736 l 722 633 l 324 633 l 324 0 l 207 0 "},"ѓ":{"ha":833,"x_min":0,"x_max":0,"o":"m 504 1011 l 635 1011 l 510 833 l 413 833 m 207 736 l 722 736 l 722 633 l 324 633 l 324 0 l 207 0 "},"ґ":{"ha":833,"x_min":0,"x_max":0,"o":"m 207 736 l 603 736 l 603 951 l 722 951 l 722 633 l 324 633 l 324 0 l 207 0 "},"ғ":{"ha":833,"x_min":0,"x_max":0,"o":"m 207 322 l 57 322 l 57 425 l 207 425 l 207 736 l 722 736 l 722 633 l 324 633 l 324 425 l 482 425 l 482 322 l 324 322 l 324 0 l 207 0 "},"д":{"ha":833,"x_min":0,"x_max":0,"o":"m 28 103 l 93 103 b 196 236 151 103 183 144 l 263 736 l 686 736 l 686 103 l 806 103 l 806 -208 l 689 -208 l 689 0 l 144 0 l 144 -208 l 28 -208 m 310 225 b 265 103 303 174 288 133 l 569 103 l 569 633 l 368 633 l 310 225 "},"е":{"ha":833,"x_min":0,"x_max":0,"o":"m 429 -17 b 92 368 221 -17 92 135 b 424 753 92 601 221 753 b 750 367 615 753 750 614 l 750 332 l 214 332 b 429 94 222 174 301 94 b 613 218 525 94 588 143 l 738 208 b 429 -17 699 76 585 -17 m 622 435 b 424 642 611 576 532 642 b 214 435 310 642 233 571 "},"ѐ":{"ha":833,"x_min":0,"x_max":0,"o":"m 258 1008 l 389 1008 l 481 831 l 383 831 m 429 -17 b 92 368 221 -17 92 135 b 424 753 92 601 221 753 b 750 367 615 753 750 614 l 750 332 l 214 332 b 429 94 222 174 301 94 b 613 218 525 94 588 143 l 738 208 b 429 -17 699 76 585 -17 m 622 435 b 424 642 611 576 532 642 b 214 435 310 642 233 571 "},"ё":{"ha":833,"x_min":0,"x_max":0,"o":"m 231 985 l 353 985 l 353 849 l 231 849 m 497 985 l 619 985 l 619 849 l 497 849 m 429 -17 b 92 368 221 -17 92 135 b 424 753 92 601 221 753 b 750 367 615 753 750 614 l 750 332 l 214 332 b 429 94 222 174 301 94 b 613 218 525 94 588 143 l 738 208 b 429 -17 699 76 585 -17 m 622 435 b 424 642 611 576 532 642 b 214 435 310 642 233 571 "},"ж":{"ha":833,"x_min":0,"x_max":0,"o":"m 233 368 l 24 736 l 157 736 l 358 383 l 358 736 l 475 736 l 475 383 l 676 736 l 810 736 l 600 368 l 818 0 l 685 0 l 475 354 l 475 0 l 358 0 l 358 354 l 149 0 l 15 0 "},"з":{"ha":833,"x_min":0,"x_max":0,"o":"m 414 -17 b 111 206 235 -17 118 69 l 233 211 b 414 94 239 140 308 94 b 593 207 524 94 593 138 b 428 335 593 288 528 336 l 351 333 l 351 444 l 428 443 b 568 546 513 442 568 482 b 414 642 568 604 508 642 b 264 554 328 642 271 607 l 138 561 b 414 753 151 679 258 753 b 690 546 583 753 690 674 b 543 396 690 476 635 421 b 715 200 650 365 715 292 b 414 -17 715 67 599 -17 "},"и":{"ha":833,"x_min":0,"x_max":0,"o":"m 131 736 l 247 736 l 247 178 l 567 736 l 704 736 l 704 0 l 588 0 l 588 547 l 275 0 l 131 0 "},"й":{"ha":833,"x_min":0,"x_max":0,"o":"m 418 838 b 224 1015 304 838 229 907 l 304 1015 b 418 924 313 951 354 924 b 532 1015 482 924 524 951 l 613 1015 b 418 838 607 907 532 838 m 131 736 l 247 736 l 247 178 l 567 736 l 704 736 l 704 0 l 588 0 l 588 547 l 275 0 l 131 0 "},"ѝ":{"ha":833,"x_min":0,"x_max":0,"o":"m 251 1011 l 382 1011 l 474 833 l 376 833 m 131 736 l 247 736 l 247 178 l 567 736 l 704 736 l 704 0 l 588 0 l 588 547 l 275 0 l 131 0 "},"к":{"ha":833,"x_min":0,"x_max":0,"o":"m 126 736 l 246 736 l 246 378 l 592 736 l 756 736 l 393 368 l 772 0 l 606 0 l 246 358 l 246 0 l 126 0 "},"ќ":{"ha":833,"x_min":0,"x_max":0,"o":"m 457 1011 l 588 1011 l 463 833 l 365 833 m 126 736 l 246 736 l 246 378 l 592 736 l 756 736 l 393 368 l 772 0 l 606 0 l 246 358 l 246 0 l 126 0 "},"л":{"ha":833,"x_min":0,"x_max":0,"o":"m 35 117 l 103 117 b 183 217 149 117 176 151 l 239 736 l 736 736 l 736 0 l 619 0 l 619 633 l 346 633 l 300 204 b 119 0 286 68 228 0 l 35 0 "},"м":{"ha":833,"x_min":0,"x_max":0,"o":"m 64 736 l 218 736 l 425 143 l 631 736 l 783 736 l 783 0 l 667 0 l 667 479 l 497 0 l 351 0 l 178 486 l 167 0 l 50 0 "},"н":{"ha":833,"x_min":0,"x_max":0,"o":"m 126 736 l 243 736 l 243 418 l 590 418 l 590 736 l 707 736 l 707 0 l 590 0 l 590 315 l 243 315 l 243 0 l 126 0 "},"о":{"ha":833,"x_min":0,"x_max":0,"o":"m 417 -17 b 81 368 213 -17 81 133 b 417 753 81 603 213 753 b 753 368 619 753 753 603 b 417 -17 753 133 619 -17 m 417 94 b 631 368 551 94 631 197 b 417 642 631 539 551 642 b 203 368 281 642 203 539 b 417 94 203 197 281 94 "},"п":{"ha":833,"x_min":0,"x_max":0,"o":"m 125 736 l 708 736 l 708 0 l 592 0 l 592 633 l 242 633 l 242 0 l 125 0 "},"р":{"ha":833,"x_min":0,"x_max":0,"o":"m 111 736 l 219 736 l 221 618 b 447 753 265 706 347 753 b 764 368 667 753 764 571 b 447 -17 764 165 667 -17 b 228 97 351 -17 267 26 l 228 -208 l 111 -208 m 436 94 b 642 368 564 94 642 196 b 436 642 642 540 564 642 b 228 368 308 642 228 549 b 436 94 228 188 307 94 "},"с":{"ha":833,"x_min":0,"x_max":0,"o":"m 436 -17 b 97 368 231 -17 97 135 b 436 753 97 601 231 753 b 744 497 600 753 714 661 l 622 489 b 436 642 600 586 531 642 b 219 368 300 642 219 539 b 436 94 219 197 300 94 b 628 261 531 94 606 150 l 750 253 b 436 -17 719 89 600 -17 "},"т":{"ha":833,"x_min":0,"x_max":0,"o":"m 358 633 l 93 633 l 93 736 l 742 736 l 742 633 l 476 633 l 476 0 l 358 0 "},"у":{"ha":833,"x_min":0,"x_max":0,"o":"m 192 -106 l 276 -106 b 363 -56 328 -106 349 -90 l 389 14 l 349 14 l 75 736 l 203 736 l 426 122 l 636 736 l 764 736 l 465 -93 b 288 -208 438 -172 386 -208 l 192 -208 "},"ў":{"ha":833,"x_min":0,"x_max":0,"o":"m 421 838 b 226 1015 307 838 232 907 l 307 1015 b 421 924 315 951 357 924 b 535 1015 485 924 526 951 l 615 1015 b 421 838 610 907 535 838 m 192 -106 l 276 -106 b 363 -56 328 -106 349 -90 l 389 14 l 349 14 l 75 736 l 203 736 l 426 122 l 636 736 l 764 736 l 465 -93 b 288 -208 438 -172 386 -208 l 192 -208 "},"ф":{"ha":833,"x_min":0,"x_max":0,"o":"m 358 38 b 32 372 164 60 32 190 b 358 707 32 554 164 685 l 358 986 l 476 986 l 476 706 b 800 372 669 683 800 553 b 476 39 800 192 669 61 l 476 -208 l 358 -208 m 157 372 b 358 156 157 254 233 174 l 358 589 b 157 372 233 571 157 490 m 675 372 b 476 589 675 489 600 569 l 476 156 b 675 372 600 175 675 256 "},"х":{"ha":833,"x_min":0,"x_max":0,"o":"m 346 378 l 89 736 l 225 736 l 418 458 l 607 736 l 746 736 l 490 375 l 758 0 l 622 0 l 418 297 l 214 0 l 75 0 "},"ч":{"ha":833,"x_min":0,"x_max":0,"o":"m 592 357 b 375 219 557 275 474 219 b 96 539 204 219 96 343 l 96 736 l 213 736 l 213 539 b 375 331 213 411 276 331 b 592 540 508 331 592 411 l 592 736 l 708 736 l 708 0 l 592 0 "},"ц":{"ha":833,"x_min":0,"x_max":0,"o":"m 694 0 l 125 0 l 125 736 l 242 736 l 242 103 l 592 103 l 592 736 l 708 736 l 708 103 l 811 103 l 811 -208 l 694 -208 "},"ш":{"ha":833,"x_min":0,"x_max":0,"o":"m 78 736 l 194 736 l 194 103 l 357 103 l 357 736 l 475 736 l 475 103 l 638 103 l 638 736 l 754 736 l 754 0 l 78 0 "},"щ":{"ha":833,"x_min":0,"x_max":0,"o":"m 78 736 l 194 736 l 194 103 l 357 103 l 357 736 l 475 736 l 475 103 l 638 103 l 638 736 l 754 736 l 754 103 l 819 103 l 819 -208 l 703 -208 l 703 0 l 78 0 "},"џ":{"ha":833,"x_min":0,"x_max":0,"o":"m 358 0 l 125 0 l 125 736 l 242 736 l 242 103 l 592 103 l 592 736 l 708 736 l 708 0 l 475 0 l 475 -208 l 358 -208 "},"ь":{"ha":833,"x_min":0,"x_max":0,"o":"m 113 736 l 229 736 l 229 465 l 424 465 b 746 232 631 465 746 382 b 424 0 746 83 631 0 l 113 0 m 424 104 b 624 232 557 104 624 146 b 424 363 624 319 557 363 l 229 363 l 229 104 "},"ы":{"ha":833,"x_min":0,"x_max":0,"o":"m 49 736 l 165 736 l 165 465 l 275 465 b 597 232 482 465 597 382 b 275 0 597 83 482 0 l 49 0 m 668 736 l 785 736 l 785 0 l 668 0 m 275 104 b 475 232 408 104 475 146 b 275 363 475 319 408 363 l 165 363 l 165 104 "},"ъ":{"ha":833,"x_min":0,"x_max":0,"o":"m 133 633 l 14 633 l 14 736 l 250 736 l 250 465 l 444 465 b 767 232 651 465 767 382 b 444 0 767 83 651 0 l 133 0 m 444 104 b 644 232 578 104 644 146 b 444 363 644 319 578 363 l 250 363 l 250 104 "},"љ":{"ha":833,"x_min":0,"x_max":0,"o":"m 7 117 l 19 117 b 100 217 65 117 93 151 l 156 736 l 496 736 l 496 465 l 574 465 b 826 232 736 465 826 382 b 574 0 826 83 736 0 l 378 0 l 378 633 l 263 633 l 217 204 b 36 0 203 68 144 0 l 7 0 m 496 363 l 496 104 l 574 104 b 704 232 657 104 704 150 b 574 363 704 315 657 363 "},"њ":{"ha":833,"x_min":0,"x_max":0,"o":"m 28 736 l 144 736 l 144 465 l 364 465 l 364 736 l 481 736 l 481 465 l 560 465 b 813 232 722 465 813 382 b 560 0 813 83 722 0 l 364 0 l 364 363 l 144 363 l 144 0 l 28 0 m 560 104 b 690 232 643 104 690 150 b 560 363 690 315 643 363 l 481 363 l 481 104 "},"ѕ":{"ha":833,"x_min":0,"x_max":0,"o":"m 431 -17 b 111 232 239 -17 122 93 l 233 240 b 431 94 247 149 314 94 b 603 192 539 94 603 125 b 408 308 603 256 569 281 b 131 531 194 346 131 411 b 410 753 131 658 229 753 b 708 517 592 753 686 644 l 586 508 b 408 642 569 586 508 642 b 250 531 300 642 250 593 b 433 411 250 456 300 433 b 722 192 661 374 722 314 b 431 -17 722 61 597 -17 "},"є":{"ha":833,"x_min":0,"x_max":0,"o":"m 422 -17 b 85 368 218 -17 85 133 b 422 753 85 603 218 753 b 747 479 590 753 711 649 l 622 479 b 422 642 594 582 524 642 b 210 419 300 642 224 560 l 456 419 l 456 317 l 210 317 b 422 94 224 176 300 94 b 621 253 522 94 593 153 l 746 253 b 422 -17 710 85 589 -17 "},"э":{"ha":833,"x_min":0,"x_max":0,"o":"m 411 -17 b 88 253 244 -17 124 85 l 213 253 b 411 94 240 153 311 94 b 624 317 533 94 610 176 l 378 317 l 378 419 l 624 419 b 411 642 610 560 533 642 b 211 479 310 642 239 582 l 86 479 b 411 753 122 649 243 753 b 749 368 615 753 749 603 b 411 -17 749 133 615 -17 "},"і":{"ha":833,"x_min":0,"x_max":0,"o":"m 396 988 l 518 988 l 518 851 l 396 851 m 111 103 l 407 103 l 407 633 l 125 633 l 125 736 l 524 736 l 524 103 l 778 103 l 778 0 l 111 0 "},"ї":{"ha":833,"x_min":0,"x_max":0,"o":"m 264 988 l 386 988 l 386 851 l 264 851 m 531 988 l 653 988 l 653 851 l 531 851 m 111 103 l 407 103 l 407 633 l 125 633 l 125 736 l 524 736 l 524 103 l 778 103 l 778 0 l 111 0 "},"ј":{"ha":833,"x_min":0,"x_max":0,"o":"m 488 988 l 610 988 l 610 851 l 488 851 m 153 -106 l 386 -106 b 494 8 458 -106 494 -81 l 494 633 l 167 633 l 167 736 l 611 736 l 611 0 b 400 -208 611 -135 547 -208 l 153 -208 "},"ћ":{"ha":833,"x_min":0,"x_max":0,"o":"m 139 808 l 50 808 l 50 903 l 139 903 l 139 986 l 256 986 l 256 903 l 467 903 l 467 808 l 256 808 l 256 621 b 476 753 293 711 376 753 b 722 474 635 753 722 638 l 722 0 l 606 0 l 606 440 b 451 650 606 582 554 650 b 256 439 333 650 256 575 l 256 0 l 139 0 "},"ю":{"ha":833,"x_min":0,"x_max":0,"o":"m 28 736 l 144 736 l 144 419 l 228 419 b 508 753 242 635 340 753 b 792 368 690 753 792 615 b 508 -17 792 121 690 -17 b 228 317 340 -17 242 101 l 144 317 l 144 0 l 28 0 m 508 94 b 669 368 611 94 669 193 b 508 642 669 543 611 642 b 349 368 406 642 349 543 b 508 94 349 193 406 94 "},"я":{"ha":833,"x_min":0,"x_max":0,"o":"m 292 306 b 124 514 183 344 124 419 b 418 736 124 657 229 736 l 708 736 l 708 0 l 592 0 l 592 285 l 417 285 l 249 0 l 113 0 m 592 388 l 592 635 l 418 635 b 249 511 310 635 249 590 b 418 388 249 432 310 388 "},"ђ":{"ha":833,"x_min":0,"x_max":0,"o":"m 132 811 l 35 811 l 35 914 l 132 914 l 132 986 l 249 986 l 249 914 l 388 914 l 388 811 l 249 811 l 249 636 b 468 753 290 717 376 753 b 717 474 621 753 717 644 l 717 -4 b 531 -208 717 -129 654 -208 l 460 -208 l 460 -106 l 517 -106 b 600 -4 568 -106 600 -67 l 600 432 b 443 642 600 572 549 642 b 249 432 326 642 249 568 l 249 0 l 132 0 "},"ѣ":{"ha":833,"x_min":0,"x_max":0,"o":"m 178 736 l 14 736 l 14 853 l 178 853 l 178 986 l 294 986 l 294 853 l 457 853 l 457 736 l 294 736 l 294 493 l 489 493 b 811 246 696 493 811 404 b 489 0 811 88 696 0 l 178 0 m 489 104 b 689 246 617 104 689 154 b 489 390 689 338 617 390 l 294 390 l 294 104 "},"ѫ":{"ha":833,"x_min":0,"x_max":0,"o":"m 135 299 b 278 401 160 363 218 396 l 60 633 l 60 736 l 775 736 l 775 633 l 557 401 b 699 299 617 394 674 363 l 814 0 l 681 0 l 596 246 b 506 303 579 293 549 303 l 476 303 l 476 0 l 357 0 l 357 303 l 326 303 b 238 246 285 303 254 293 l 153 0 l 19 0 m 418 404 l 633 633 l 201 633 "},"ѳ":{"ha":833,"x_min":0,"x_max":0,"o":"m 417 -17 b 81 368 213 -17 81 133 b 417 753 81 603 213 753 b 753 368 619 753 753 603 b 417 -17 753 133 619 -17 m 382 428 b 590 365 521 364 538 364 b 631 372 604 365 618 368 b 417 642 629 542 550 642 b 211 457 306 642 233 574 l 217 457 b 382 428 265 460 332 451 m 417 94 b 619 264 521 94 592 157 b 601 263 613 263 607 263 b 390 324 551 263 526 263 b 228 356 336 349 272 357 b 203 353 219 356 211 354 b 417 94 208 190 285 94 "},"ѵ":{"ha":833,"x_min":0,"x_max":0,"o":"m 51 736 l 176 736 l 393 122 l 550 569 b 774 736 588 676 668 736 l 806 736 l 806 633 l 792 633 b 660 531 729 633 685 599 l 467 0 l 319 0 "},"җ":{"ha":833,"x_min":0,"x_max":0,"o":"m 233 368 l 24 736 l 157 736 l 358 383 l 358 736 l 475 736 l 475 383 l 676 736 l 810 736 l 600 368 l 757 103 l 819 103 l 819 -208 l 703 -208 l 703 0 l 685 0 l 475 354 l 475 0 l 358 0 l 358 354 l 149 0 l 15 0 "},"қ":{"ha":833,"x_min":0,"x_max":0,"o":"m 125 736 l 244 736 l 244 378 l 590 736 l 754 736 l 392 368 l 665 103 l 778 103 l 778 -208 l 661 -208 l 661 0 l 604 0 l 244 358 l 244 0 l 125 0 "},"ң":{"ha":833,"x_min":0,"x_max":0,"o":"m 126 736 l 243 736 l 243 418 l 590 418 l 590 736 l 707 736 l 707 103 l 803 103 l 803 -208 l 686 -208 l 686 0 l 590 0 l 590 315 l 243 315 l 243 0 l 126 0 "},"ү":{"ha":833,"x_min":0,"x_max":0,"o":"m 75 736 l 200 736 l 417 140 l 633 736 l 758 736 l 475 0 l 475 -208 l 358 -208 l 358 0 "},"ұ":{"ha":833,"x_min":0,"x_max":0,"o":"m 194 51 l 339 51 l 75 736 l 200 736 l 417 140 l 633 736 l 758 736 l 494 51 l 638 51 l 638 -51 l 475 -51 l 475 -208 l 358 -208 l 358 -51 l 194 -51 "},"ҳ":{"ha":833,"x_min":0,"x_max":0,"o":"m 346 378 l 89 736 l 225 736 l 418 458 l 607 736 l 746 736 l 490 375 l 685 103 l 790 103 l 790 -208 l 674 -208 l 674 0 l 622 0 l 418 297 l 214 0 l 75 0 "},"ҷ":{"ha":833,"x_min":0,"x_max":0,"o":"m 592 357 b 375 219 557 275 474 219 b 96 539 204 219 96 343 l 96 736 l 213 736 l 213 539 b 375 331 213 411 276 331 b 592 540 508 331 592 411 l 592 736 l 708 736 l 708 103 l 804 103 l 804 -208 l 688 -208 l 688 0 l 592 0 "},"һ":{"ha":833,"x_min":0,"x_max":0,"o":"m 139 986 l 256 986 l 256 621 b 476 753 293 711 376 753 b 722 474 635 753 722 638 l 722 0 l 606 0 l 606 440 b 451 650 606 582 554 650 b 256 439 333 650 256 575 l 256 0 l 139 0 "},"ӏ":{"ha":833,"x_min":0,"x_max":0,"o":"m 111 117 l 357 117 l 357 869 l 111 869 l 111 986 l 722 986 l 722 869 l 476 869 l 476 117 l 722 117 l 722 0 l 111 0 "},"ә":{"ha":833,"x_min":0,"x_max":0,"o":"m 404 753 b 742 368 613 753 742 601 b 410 -17 742 135 613 -17 b 83 369 218 -17 83 122 l 83 404 l 619 404 b 404 642 611 563 532 642 b 221 518 308 642 246 593 l 96 528 b 404 753 135 660 249 753 m 211 301 b 410 94 222 160 301 94 b 619 301 524 94 600 165 "},"ӣ":{"ha":833,"x_min":0,"x_max":0,"o":"m 231 968 l 603 968 l 603 868 l 231 868 m 131 736 l 247 736 l 247 178 l 567 736 l 704 736 l 704 0 l 588 0 l 588 547 l 275 0 l 131 0 "},"ө":{"ha":833,"x_min":0,"x_max":0,"o":"m 417 -17 b 81 368 213 -17 81 133 b 417 753 81 603 213 753 b 753 368 619 753 753 603 b 417 -17 753 133 619 -17 m 417 642 b 206 419 294 642 219 560 l 628 419 b 417 642 614 560 538 642 m 417 94 b 628 317 538 94 614 176 l 206 317 b 417 94 219 176 294 94 "},"ӯ":{"ha":833,"x_min":0,"x_max":0,"o":"m 233 968 l 606 968 l 606 868 l 233 868 m 192 -106 l 276 -106 b 363 -56 328 -106 349 -90 l 389 14 l 349 14 l 75 736 l 203 736 l 426 122 l 636 736 l 764 736 l 465 -93 b 288 -208 438 -172 386 -208 l 192 -208 "},"Λ":{"ha":833,"x_min":0,"x_max":0,"o":"m 336 986 l 497 986 l 797 0 l 675 0 l 417 882 l 158 0 l 36 0 "},"Ω":{"ha":833,"x_min":0,"x_max":0,"o":"m 15 117 l 199 117 b 13 506 89 190 13 353 b 417 1008 13 801 179 1008 b 821 506 654 1008 821 801 b 635 117 821 353 744 190 l 818 117 l 818 0 l 472 0 l 472 117 b 696 506 597 118 696 289 b 417 892 696 732 581 892 b 138 506 253 892 138 732 b 361 117 138 289 236 118 l 361 0 l 15 0 "},"λ":{"ha":833,"x_min":0,"x_max":0,"o":"m 354 693 l 319 806 b 233 883 304 856 283 883 l 146 883 l 146 986 l 224 986 b 440 800 340 986 399 935 l 631 181 b 715 103 646 132 665 103 l 764 103 l 764 0 l 717 0 b 510 186 603 0 553 47 l 406 525 l 204 0 l 82 0 "},"π":{"ha":833,"x_min":0,"x_max":0,"o":"m 171 633 l 22 633 l 22 736 l 808 736 l 808 633 l 667 633 l 667 203 b 761 103 667 140 700 103 l 806 103 l 806 0 l 763 0 b 550 203 613 0 550 81 l 550 633 l 288 633 l 288 0 l 171 0 "},"ℇ":{"ha":833,"x_min":0,"x_max":0,"o":"m 426 -22 b 71 271 214 -22 71 99 b 279 533 71 399 142 493 b 104 751 163 568 104 640 b 426 1008 104 903 236 1008 b 749 875 549 1008 681 953 l 671 779 b 426 897 613 847 511 897 b 226 751 303 897 226 840 b 426 578 226 624 333 576 l 501 579 l 501 469 l 426 471 b 193 281 285 474 193 397 b 426 89 193 167 285 89 b 706 221 521 89 639 142 l 781 122 b 426 -22 708 38 564 -22 "},"⓿":{"ha":833,"x_min":0,"x_max":0,"o":"m 417 -22 b 19 493 172 -22 19 176 b 417 1008 19 810 172 1008 b 814 493 660 1008 814 810 b 417 -22 814 176 660 -22 m 418 211 b 635 492 549 211 635 318 b 418 771 635 665 550 771 b 201 492 286 771 201 665 b 418 211 201 318 288 211 m 310 386 b 293 492 299 415 293 451 b 418 688 293 622 336 688 b 482 668 443 688 464 681 l 310 386 m 418 294 b 354 318 394 294 372 303 l 528 601 b 543 492 538 572 543 536 b 418 294 543 363 499 294 "},"❶":{"ha":833,"x_min":0,"x_max":0,"o":"m 417 -22 b 19 493 172 -22 19 176 b 417 1008 19 810 172 1008 b 814 493 660 1008 814 810 b 417 -22 814 176 660 -22 m 489 222 l 489 761 l 421 761 b 297 643 421 688 378 643 l 264 643 l 264 574 l 397 575 l 397 222 "},"❷":{"ha":833,"x_min":0,"x_max":0,"o":"m 417 -22 b 19 493 172 -22 19 176 b 417 1008 19 810 172 1008 b 814 493 660 1008 814 810 b 417 -22 814 176 660 -22 m 599 222 l 599 303 l 335 303 b 414 410 335 339 358 379 l 471 440 b 604 615 551 483 604 526 b 429 771 604 707 536 771 b 233 596 310 771 244 701 l 322 592 b 429 690 331 658 363 690 b 513 615 474 690 513 663 b 442 513 513 563 494 542 l 369 472 b 232 222 247 404 232 338 "},"❸":{"ha":833,"x_min":0,"x_max":0,"o":"m 417 -22 b 19 493 172 -22 19 176 b 417 1008 19 810 172 1008 b 814 493 660 1008 814 810 b 417 -22 814 176 660 -22 m 418 211 b 614 375 529 211 614 272 b 494 510 614 436 586 488 b 588 624 554 528 588 560 b 411 771 588 711 528 771 b 231 626 303 771 242 707 l 319 621 b 411 689 324 658 354 689 b 497 615 469 689 497 658 b 411 544 497 568 463 544 l 376 544 l 376 465 l 411 465 b 524 376 490 465 524 429 b 418 292 524 325 486 292 b 311 367 344 292 315 322 l 222 363 b 418 211 228 275 274 211 "},"❹":{"ha":833,"x_min":0,"x_max":0,"o":"m 417 -22 b 19 493 172 -22 19 176 b 417 1008 19 810 172 1008 b 814 493 660 1008 814 810 b 417 -22 814 176 660 -22 m 551 222 l 551 347 l 626 347 l 626 428 l 551 428 l 551 760 l 465 760 l 210 418 l 210 347 l 460 347 l 460 222 m 460 626 l 460 428 l 307 428 "},"❺":{"ha":833,"x_min":0,"x_max":0,"o":"m 417 -22 b 19 493 172 -22 19 176 b 417 1008 19 810 172 1008 b 814 493 660 1008 814 810 b 417 -22 814 176 660 -22 m 411 211 b 608 396 531 211 608 279 b 439 579 608 500 553 579 b 332 540 394 579 354 565 l 350 679 l 572 679 l 572 760 l 269 760 l 236 447 l 321 447 b 425 501 343 481 372 501 b 519 396 489 501 519 456 b 414 292 519 328 478 292 b 315 357 358 292 326 313 l 226 353 b 411 211 235 263 306 211 "},"❻":{"ha":833,"x_min":0,"x_max":0,"o":"m 417 -22 b 19 493 172 -22 19 176 b 417 1008 19 810 172 1008 b 814 493 660 1008 814 810 b 417 -22 814 176 660 -22 m 417 211 b 619 401 533 211 619 281 b 431 590 619 529 538 590 b 308 532 372 590 328 565 b 433 690 314 632 361 690 b 526 629 489 690 515 671 l 613 638 b 433 771 592 726 544 771 b 217 461 278 771 217 631 b 417 211 217 299 297 211 m 418 292 b 308 404 349 292 307 336 b 419 510 310 471 354 510 b 531 404 493 510 531 471 b 418 292 531 336 490 292 "},"❼":{"ha":833,"x_min":0,"x_max":0,"o":"m 417 -22 b 19 493 172 -22 19 176 b 417 1008 19 810 172 1008 b 814 493 660 1008 814 810 b 417 -22 814 176 660 -22 m 424 222 b 599 700 424 414 490 561 l 599 761 l 238 761 l 238 681 l 494 681 b 335 222 392 547 335 390 "},"❽":{"ha":833,"x_min":0,"x_max":0,"o":"m 417 -22 b 19 493 172 -22 19 176 b 417 1008 19 810 172 1008 b 814 493 660 1008 814 810 b 417 -22 814 176 660 -22 m 418 211 b 619 367 549 211 619 268 b 511 513 619 432 576 485 b 593 631 561 531 593 564 b 418 771 593 718 533 771 b 243 631 304 771 243 718 b 325 513 243 564 275 531 b 217 367 258 486 217 432 b 418 211 217 268 288 211 m 418 550 b 335 625 364 550 335 575 b 418 690 335 665 364 690 b 501 625 472 690 501 665 b 418 550 501 575 472 550 m 418 292 b 308 372 349 292 308 318 b 418 467 308 425 349 467 b 528 372 488 467 528 425 b 418 292 528 318 488 292 "},"❾":{"ha":833,"x_min":0,"x_max":0,"o":"m 417 -22 b 19 493 172 -22 19 176 b 417 1008 19 810 172 1008 b 814 493 660 1008 814 810 b 417 -22 814 176 660 -22 m 403 211 b 619 521 558 211 619 351 b 419 771 619 683 539 771 b 217 581 303 771 217 701 b 406 392 217 453 299 392 b 528 450 464 392 508 417 b 403 292 522 350 475 292 b 310 353 347 292 321 311 l 224 344 b 403 211 244 256 292 211 m 417 472 b 306 578 343 472 306 511 b 418 690 306 646 346 690 b 528 578 488 690 529 646 b 417 472 526 511 482 472 "},"⓪":{"ha":833,"x_min":0,"x_max":0,"o":"m 417 -22 b 17 493 169 -22 17 163 b 417 1008 17 824 169 1008 b 817 493 663 1008 817 824 b 417 -22 817 163 663 -22 m 417 72 b 722 493 603 72 722 222 b 417 914 722 764 603 914 b 111 493 229 914 111 764 b 417 72 111 222 229 72 m 418 211 b 201 492 288 211 201 318 b 418 771 201 665 286 771 b 635 492 550 771 635 665 b 418 211 635 318 549 211 m 293 492 b 310 386 293 451 299 415 l 482 668 b 418 688 464 681 443 688 b 293 492 336 688 293 622 m 418 294 b 543 492 499 294 543 363 b 526 601 543 536 538 572 l 354 318 b 418 294 372 303 394 294 "},"①":{"ha":833,"x_min":0,"x_max":0,"o":"m 417 -22 b 17 493 169 -22 17 163 b 417 1008 17 824 169 1008 b 817 493 663 1008 817 824 b 417 -22 817 163 663 -22 m 417 72 b 722 493 603 72 722 222 b 417 914 722 764 603 914 b 111 493 229 914 111 764 b 417 72 111 222 229 72 m 396 575 l 263 574 l 263 643 l 296 643 b 419 761 376 643 419 688 l 488 761 l 488 222 l 396 222 "},"②":{"ha":833,"x_min":0,"x_max":0,"o":"m 417 -22 b 17 493 169 -22 17 163 b 417 1008 17 824 169 1008 b 817 493 663 1008 817 824 b 417 -22 817 163 663 -22 m 417 72 b 722 493 603 72 722 222 b 417 914 722 764 603 914 b 111 493 229 914 111 764 b 417 72 111 222 229 72 m 232 222 b 369 472 232 338 247 404 l 442 513 b 513 615 494 542 513 563 b 429 690 513 663 474 690 b 322 592 363 690 331 658 l 233 596 b 429 771 244 701 310 771 b 604 615 536 771 604 707 b 471 440 604 526 551 483 l 414 410 b 335 303 358 379 335 339 l 599 303 l 599 222 l 232 222 "},"③":{"ha":833,"x_min":0,"x_max":0,"o":"m 417 -22 b 17 493 169 -22 17 163 b 417 1008 17 824 169 1008 b 817 493 663 1008 817 824 b 417 -22 817 163 663 -22 m 417 72 b 722 493 603 72 722 222 b 417 914 722 764 603 914 b 111 493 229 914 111 764 b 417 72 111 222 229 72 m 418 211 b 222 363 274 211 228 275 l 311 367 b 418 292 315 322 344 292 b 524 376 486 292 524 325 b 411 465 524 429 490 465 l 376 465 l 376 544 l 411 544 b 497 615 463 544 497 568 b 411 689 497 658 469 689 b 319 621 354 689 324 658 l 231 626 b 411 771 242 707 303 771 b 588 624 528 771 588 711 b 494 510 588 560 554 528 b 614 375 586 488 614 436 b 418 211 614 272 529 211 "},"④":{"ha":833,"x_min":0,"x_max":0,"o":"m 417 -22 b 17 493 169 -22 17 163 b 417 1008 17 824 169 1008 b 817 493 663 1008 817 824 b 417 -22 817 163 663 -22 m 417 72 b 722 493 603 72 722 222 b 417 914 722 764 603 914 b 111 493 229 914 111 764 b 417 72 111 222 229 72 m 460 347 l 210 347 l 210 418 l 465 760 l 551 760 l 551 428 l 626 428 l 626 347 l 551 347 l 551 222 l 460 222 m 460 428 l 460 626 l 307 428 "},"⑤":{"ha":833,"x_min":0,"x_max":0,"o":"m 417 -22 b 17 493 169 -22 17 163 b 417 1008 17 824 169 1008 b 817 493 663 1008 817 824 b 417 -22 817 163 663 -22 m 417 72 b 722 493 603 72 722 222 b 417 914 722 764 603 914 b 111 493 229 914 111 764 b 417 72 111 222 229 72 m 411 211 b 226 353 306 211 235 263 l 315 357 b 414 292 326 313 358 292 b 519 396 478 292 519 328 b 425 501 519 456 489 501 b 321 447 372 501 343 481 l 236 447 l 269 760 l 572 760 l 572 679 l 350 679 l 332 540 b 439 579 354 565 394 579 b 608 396 553 579 608 500 b 411 211 608 279 531 211 "},"⑥":{"ha":833,"x_min":0,"x_max":0,"o":"m 417 -22 b 17 493 169 -22 17 163 b 417 1008 17 824 169 1008 b 817 493 663 1008 817 824 b 417 -22 817 163 663 -22 m 417 72 b 722 493 603 72 722 222 b 417 914 722 764 603 914 b 111 493 229 914 111 764 b 417 72 111 222 229 72 m 417 211 b 217 461 297 211 217 299 b 433 771 217 631 278 771 b 613 638 544 771 592 726 l 526 629 b 433 690 515 671 489 690 b 308 532 361 690 314 632 b 431 590 328 565 372 590 b 619 401 538 590 619 529 b 417 211 619 281 533 211 m 418 292 b 531 404 490 292 531 336 b 419 510 531 471 493 510 b 308 404 354 510 310 471 b 418 292 307 336 349 292 "},"⑦":{"ha":833,"x_min":0,"x_max":0,"o":"m 417 -22 b 17 493 169 -22 17 163 b 417 1008 17 824 169 1008 b 817 493 663 1008 817 824 b 417 -22 817 163 663 -22 m 417 72 b 722 493 603 72 722 222 b 417 914 722 764 603 914 b 111 493 229 914 111 764 b 417 72 111 222 229 72 m 335 222 b 494 681 335 390 392 547 l 238 681 l 238 761 l 599 761 l 599 700 b 424 222 490 561 424 414 l 335 222 "},"⑧":{"ha":833,"x_min":0,"x_max":0,"o":"m 417 -22 b 17 493 169 -22 17 163 b 417 1008 17 824 169 1008 b 817 493 663 1008 817 824 b 417 -22 817 163 663 -22 m 417 72 b 722 493 603 72 722 222 b 417 914 722 764 603 914 b 111 493 229 914 111 764 b 417 72 111 222 229 72 m 418 211 b 217 367 288 211 217 268 b 325 513 217 432 258 486 b 243 631 275 531 243 564 b 418 771 243 718 304 771 b 593 631 533 771 593 718 b 511 513 593 564 561 531 b 619 367 576 485 619 432 b 418 211 619 268 549 211 m 418 550 b 501 625 472 550 501 575 b 418 690 501 665 472 690 b 335 625 364 690 335 665 b 418 550 335 575 364 550 m 418 292 b 528 372 488 292 528 318 b 418 467 528 425 488 467 b 308 372 349 467 308 425 b 418 292 308 318 349 292 "},"⑨":{"ha":833,"x_min":0,"x_max":0,"o":"m 417 -22 b 17 493 169 -22 17 163 b 417 1008 17 824 169 1008 b 817 493 663 1008 817 824 b 417 -22 817 163 663 -22 m 417 72 b 722 493 603 72 722 222 b 417 914 722 764 603 914 b 111 493 229 914 111 764 b 417 72 111 222 229 72 m 419 771 b 619 521 539 771 619 683 b 403 211 619 351 558 211 b 224 344 292 211 244 256 l 310 353 b 403 292 321 311 347 292 b 528 450 475 292 522 350 b 406 392 508 417 464 392 b 217 581 299 392 217 453 b 419 771 217 701 303 771 m 418 690 b 306 578 346 690 306 646 b 417 472 306 511 343 472 b 528 578 482 472 526 511 b 418 690 529 646 488 690 "},"⁄":{"ha":833,"x_min":0,"x_max":0,"o":"m 669 986 l 778 986 l 585 631 l 476 631 m 249 354 l 357 354 l 164 0 l 56 0 "},"½":{"ha":833,"x_min":0,"x_max":0,"o":"m 219 801 l 86 800 l 86 869 l 119 869 b 243 988 200 869 243 914 l 311 988 l 311 449 l 219 449 m 669 986 l 778 986 l 585 631 l 476 631 m 394 0 b 532 250 394 115 410 182 l 604 290 b 675 393 657 319 675 340 b 592 468 675 440 636 468 b 485 369 525 468 493 436 l 396 374 b 592 549 407 479 472 549 b 767 393 699 549 767 485 b 633 218 767 304 714 261 l 576 188 b 497 81 521 157 497 117 l 761 81 l 761 0 l 394 0 m 249 354 l 357 354 l 164 0 l 56 0 "},"⅓":{"ha":833,"x_min":0,"x_max":0,"o":"m 219 801 l 86 800 l 86 869 l 119 869 b 243 988 200 869 243 914 l 311 988 l 311 449 l 219 449 m 669 986 l 778 986 l 585 631 l 476 631 m 571 -11 b 375 140 426 -11 381 53 l 464 144 b 571 69 468 100 497 69 b 676 154 639 69 676 103 b 564 243 676 207 643 243 l 529 243 l 529 322 l 564 322 b 650 393 615 322 650 346 b 564 467 650 436 622 467 b 472 399 507 467 476 436 l 383 404 b 564 549 394 485 456 549 b 740 401 681 549 740 489 b 647 288 740 338 707 306 b 767 153 739 265 767 214 b 571 -11 767 50 682 -11 m 249 354 l 357 354 l 164 0 l 56 0 "},"⅔":{"ha":833,"x_min":0,"x_max":0,"o":"m 25 449 b 163 699 25 564 40 631 l 235 739 b 306 842 288 768 306 789 b 222 917 306 889 267 917 b 115 818 156 917 124 885 l 26 822 b 222 997 38 928 103 997 b 397 842 329 997 397 933 b 264 667 397 753 344 710 l 207 636 b 128 529 151 606 128 565 l 392 529 l 392 449 l 25 449 m 664 986 l 772 986 l 579 631 l 471 631 m 613 -11 b 417 140 468 -11 422 53 l 506 144 b 613 69 510 100 539 69 b 718 154 681 69 718 103 b 606 243 718 207 685 243 l 571 243 l 571 322 l 606 322 b 692 393 657 322 692 346 b 606 467 692 436 664 467 b 514 399 549 467 518 436 l 425 404 b 606 549 436 485 497 549 b 782 401 722 549 782 489 b 689 288 782 338 749 306 b 808 153 781 265 808 214 b 613 -11 808 50 724 -11 m 243 354 l 351 354 l 158 0 l 50 0 "},"¼":{"ha":833,"x_min":0,"x_max":0,"o":"m 219 801 l 86 800 l 86 869 l 119 869 b 243 988 200 869 243 914 l 311 988 l 311 449 l 219 449 m 669 986 l 778 986 l 585 631 l 476 631 m 597 125 l 347 125 l 347 196 l 603 538 l 689 538 l 689 206 l 764 206 l 764 125 l 689 125 l 689 0 l 597 0 m 597 206 l 597 404 l 444 206 m 249 354 l 357 354 l 164 0 l 56 0 "},"¾":{"ha":833,"x_min":0,"x_max":0,"o":"m 229 438 b 33 589 85 438 39 501 l 122 593 b 229 518 126 549 156 518 b 335 603 297 518 335 551 b 222 692 335 656 301 692 l 188 692 l 188 771 l 222 771 b 308 842 274 771 308 794 b 222 915 308 885 281 915 b 131 847 165 915 135 885 l 42 853 b 222 997 53 933 114 997 b 399 850 339 997 399 938 b 306 736 399 786 365 754 b 425 601 397 714 425 663 b 229 438 425 499 340 438 m 689 986 l 797 986 l 604 631 l 496 631 m 633 125 l 383 125 l 383 196 l 639 538 l 725 538 l 725 206 l 800 206 l 800 125 l 725 125 l 725 0 l 633 0 m 633 206 l 633 404 l 481 206 m 268 354 l 376 354 l 183 0 l 75 0 "},"⅕":{"ha":833,"x_min":0,"x_max":0,"o":"m 206 801 l 72 800 l 72 869 l 106 869 b 229 988 186 869 229 914 l 297 988 l 297 449 l 206 449 m 669 986 l 778 986 l 585 631 l 476 631 m 578 -11 b 393 131 472 -11 401 40 l 482 135 b 581 69 493 90 525 69 b 686 174 644 69 686 106 b 592 279 686 233 656 279 b 488 225 539 279 510 258 l 403 225 l 436 538 l 739 538 l 739 457 l 517 457 l 499 318 b 606 357 521 343 561 357 b 775 174 719 357 775 278 b 578 -11 775 57 697 -11 m 249 354 l 357 354 l 164 0 l 56 0 "},"⅛":{"ha":833,"x_min":0,"x_max":0,"o":"m 192 801 l 58 800 l 58 869 l 92 869 b 215 988 172 869 215 914 l 283 988 l 283 449 l 192 449 m 656 986 l 764 986 l 571 631 l 463 631 m 590 -11 b 389 144 460 -11 389 46 b 497 290 389 210 431 264 b 415 408 447 308 415 342 b 590 549 415 496 476 549 b 765 408 706 549 765 496 b 683 290 765 342 733 308 b 792 144 749 263 792 210 b 590 -11 792 46 721 -11 m 590 328 b 674 403 644 328 674 353 b 590 468 674 443 644 468 b 507 403 536 468 507 443 b 590 328 507 353 536 328 m 235 354 l 343 354 l 150 0 l 42 0 m 590 69 b 700 150 660 69 700 96 b 590 244 700 203 660 244 b 481 150 521 244 481 203 b 590 69 481 96 521 69 "},"⅜":{"ha":833,"x_min":0,"x_max":0,"o":"m 213 438 b 28 579 107 438 36 489 l 117 583 b 215 518 128 539 160 518 b 321 622 279 518 321 554 b 226 728 321 682 290 728 b 122 674 174 728 144 707 l 38 674 l 71 986 l 374 986 l 374 906 l 151 906 l 133 767 b 240 806 156 792 196 806 b 410 622 354 806 410 726 b 213 438 410 506 332 438 m 669 986 l 778 986 l 585 631 l 476 631 m 604 -11 b 403 144 474 -11 403 46 b 511 290 403 210 444 264 b 429 408 461 308 429 342 b 604 549 429 496 490 549 b 779 408 719 549 779 496 b 697 290 779 342 747 308 b 806 144 763 263 806 210 b 604 -11 806 46 735 -11 m 604 328 b 688 403 658 328 688 353 b 604 468 688 443 658 468 b 521 403 550 468 521 443 b 604 328 521 353 550 328 m 249 354 l 357 354 l 164 0 l 56 0 m 604 69 b 714 150 674 69 714 96 b 604 244 714 203 674 244 b 494 150 535 244 494 203 b 604 69 494 96 535 69 "},"⅝":{"ha":833,"x_min":0,"x_max":0,"o":"m 224 438 b 28 589 79 438 33 501 l 117 593 b 224 518 121 549 150 518 b 329 603 292 518 329 551 b 217 692 329 656 296 692 l 182 692 l 182 771 l 217 771 b 303 842 268 771 303 794 b 217 915 303 885 275 915 b 125 847 160 915 129 885 l 36 853 b 217 997 47 933 108 997 b 393 850 333 997 393 938 b 300 736 393 786 360 754 b 419 601 392 714 419 663 b 224 438 419 499 335 438 m 663 986 l 771 986 l 578 631 l 469 631 m 604 -11 b 403 144 474 -11 403 46 b 511 290 403 210 444 264 b 429 408 461 308 429 342 b 604 549 429 496 490 549 b 779 408 719 549 779 496 b 697 290 779 342 747 308 b 806 144 763 263 806 210 b 604 -11 806 46 735 -11 m 604 328 b 688 403 658 328 688 353 b 604 468 688 443 658 468 b 521 403 550 468 521 443 b 604 328 521 353 550 328 m 242 354 l 350 354 l 157 0 l 49 0 m 604 69 b 714 150 674 69 714 96 b 604 244 714 203 674 244 b 494 150 535 244 494 203 b 604 69 494 96 535 69 "},"⅞":{"ha":833,"x_min":0,"x_max":0,"o":"m 135 447 b 294 906 135 615 192 772 l 38 906 l 38 986 l 399 986 l 399 925 b 224 447 290 786 224 639 l 135 447 m 643 986 l 751 986 l 558 631 l 450 631 m 604 -11 b 403 144 474 -11 403 46 b 511 290 403 210 444 264 b 429 408 461 308 429 342 b 604 549 429 496 490 549 b 779 408 719 549 779 496 b 697 290 779 342 747 308 b 806 144 763 263 806 210 b 604 -11 806 46 735 -11 m 604 328 b 688 403 658 328 688 353 b 604 468 688 443 658 468 b 521 403 550 468 521 443 b 604 328 521 353 550 328 m 222 354 l 331 354 l 138 0 l 29 0 m 604 69 b 714 150 674 69 714 96 b 604 244 714 203 674 244 b 494 150 535 244 494 203 b 604 69 494 96 535 69 "},"₀":{"ha":833,"x_min":0,"x_max":0,"o":"m 417 -150 b 200 131 286 -150 200 -43 b 417 410 200 304 285 410 b 633 131 549 410 633 304 b 417 -150 633 -43 547 -150 m 292 131 b 308 25 292 90 297 54 l 481 307 b 417 326 463 319 442 326 b 292 131 335 326 292 261 m 417 -67 b 542 131 497 -67 542 1 b 525 240 542 175 536 211 l 353 -43 b 417 -67 371 -58 393 -67 "},"₁":{"ha":833,"x_min":0,"x_max":0,"o":"m 438 214 l 304 213 l 304 282 l 338 282 b 461 400 418 282 461 326 l 529 400 l 529 -139 l 438 -139 "},"₂":{"ha":833,"x_min":0,"x_max":0,"o":"m 231 -139 b 368 111 231 -24 246 43 l 440 151 b 511 254 493 181 511 201 b 428 329 511 301 472 329 b 321 231 361 329 329 297 l 232 235 b 428 410 243 340 308 410 b 603 254 535 410 603 346 b 469 79 603 165 550 122 l 413 49 b 333 -58 357 18 333 -22 l 597 -58 l 597 -139 l 231 -139 "},"₃":{"ha":833,"x_min":0,"x_max":0,"o":"m 417 -150 b 221 1 272 -150 226 -86 l 310 6 b 417 -69 314 -39 343 -69 b 522 15 485 -69 522 -36 b 410 104 522 68 489 104 l 375 104 l 375 183 l 410 183 b 496 254 461 183 496 207 b 410 328 496 297 468 328 b 318 260 353 328 322 297 l 229 265 b 410 410 240 346 301 410 b 586 263 526 410 586 350 b 493 149 586 199 553 167 b 613 14 585 126 613 75 b 417 -150 613 -89 528 -150 "},"₄":{"ha":833,"x_min":0,"x_max":0,"o":"m 458 -14 l 208 -14 l 208 57 l 464 399 l 550 399 l 550 67 l 625 67 l 625 -14 l 550 -14 l 550 -139 l 458 -139 m 458 67 l 458 265 l 306 67 "},"₅":{"ha":833,"x_min":0,"x_max":0,"o":"m 411 -150 b 226 -8 306 -150 235 -99 l 315 -4 b 414 -69 326 -49 358 -69 b 519 35 478 -69 519 -33 b 425 140 519 94 489 140 b 321 86 372 140 343 119 l 236 86 l 269 399 l 572 399 l 572 318 l 350 318 l 332 179 b 439 218 354 204 394 218 b 608 35 553 218 608 139 b 411 -150 608 -82 531 -150 "},"₆":{"ha":833,"x_min":0,"x_max":0,"o":"m 415 -150 b 215 100 296 -150 215 -62 b 432 410 215 269 276 410 b 611 276 543 410 590 365 l 525 268 b 432 329 514 310 488 329 b 307 171 360 329 313 271 b 429 229 326 204 371 229 b 618 40 536 229 618 168 b 415 -150 618 -81 532 -150 m 417 -69 b 529 43 489 -69 529 -25 b 418 149 529 110 492 149 b 307 43 353 149 308 110 b 417 -69 306 -25 347 -69 "},"₇":{"ha":833,"x_min":0,"x_max":0,"o":"m 333 -139 b 493 319 333 29 390 186 l 236 319 l 236 400 l 597 400 l 597 339 b 422 -139 489 200 422 53 l 333 -139 "},"₈":{"ha":833,"x_min":0,"x_max":0,"o":"m 417 -150 b 215 6 286 -150 215 -93 b 324 151 215 71 257 125 b 242 269 274 169 242 203 b 417 410 242 357 303 410 b 592 269 532 410 592 357 b 510 151 592 203 560 169 b 618 6 575 124 618 71 b 417 -150 618 -93 547 -150 m 417 189 b 500 264 471 189 500 214 b 417 329 500 304 471 329 b 333 264 363 329 333 304 b 417 189 333 214 363 189 m 417 -69 b 526 11 486 -69 526 -43 b 417 106 526 64 486 106 b 307 11 347 106 307 64 b 417 -69 307 -43 347 -69 "},"₉":{"ha":833,"x_min":0,"x_max":0,"o":"m 418 410 b 618 160 538 410 618 322 b 401 -150 618 -10 557 -150 b 222 -17 290 -150 243 -106 l 308 -8 b 401 -69 319 -50 346 -69 b 526 89 474 -69 521 -11 b 404 31 507 56 463 31 b 215 219 297 31 215 92 b 418 410 215 340 301 410 m 417 329 b 304 217 344 329 304 285 b 415 111 304 150 342 111 b 526 217 481 111 525 150 b 417 329 528 285 486 329 "},"⁰":{"ha":833,"x_min":0,"x_max":0,"o":"m 417 438 b 200 718 286 438 200 544 b 417 997 200 892 285 997 b 633 718 549 997 633 892 b 417 438 633 544 547 438 m 292 718 b 308 613 292 678 297 642 l 481 894 b 417 914 463 907 442 914 b 292 718 335 914 292 849 m 417 521 b 542 718 497 521 542 589 b 525 828 542 763 536 799 l 353 544 b 417 521 371 529 393 521 "},"¹":{"ha":833,"x_min":0,"x_max":0,"o":"m 438 801 l 304 800 l 304 869 l 338 869 b 461 988 418 869 461 914 l 529 988 l 529 449 l 438 449 "},"²":{"ha":833,"x_min":0,"x_max":0,"o":"m 231 449 b 368 699 231 564 246 631 l 440 739 b 511 842 493 768 511 789 b 428 917 511 889 472 917 b 321 818 361 917 329 885 l 232 822 b 428 997 243 928 308 997 b 603 842 535 997 603 933 b 469 667 603 753 550 710 l 413 636 b 333 529 357 606 333 565 l 597 529 l 597 449 l 231 449 "},"³":{"ha":833,"x_min":0,"x_max":0,"o":"m 417 438 b 221 589 272 438 226 501 l 310 593 b 417 518 314 549 343 518 b 522 603 485 518 522 551 b 410 692 522 656 489 692 l 375 692 l 375 771 l 410 771 b 496 842 461 771 496 794 b 410 915 496 885 468 915 b 318 847 353 915 322 885 l 229 853 b 410 997 240 933 301 997 b 586 850 526 997 586 938 b 493 736 586 786 553 754 b 613 601 585 714 613 663 b 417 438 613 499 528 438 "},"⁴":{"ha":833,"x_min":0,"x_max":0,"o":"m 458 574 l 208 574 l 208 644 l 464 986 l 550 986 l 550 654 l 625 654 l 625 574 l 550 574 l 550 449 l 458 449 m 458 654 l 458 853 l 306 654 "},"⁵":{"ha":833,"x_min":0,"x_max":0,"o":"m 411 438 b 226 579 306 438 235 489 l 315 583 b 414 518 326 539 358 518 b 519 622 478 518 519 554 b 425 728 519 682 489 728 b 321 674 372 728 343 707 l 236 674 l 269 986 l 572 986 l 572 906 l 350 906 l 332 767 b 439 806 354 792 394 806 b 608 622 553 806 608 726 b 411 438 608 506 531 438 "},"⁶":{"ha":833,"x_min":0,"x_max":0,"o":"m 415 438 b 215 688 296 438 215 525 b 432 997 215 857 276 997 b 611 864 543 997 590 953 l 525 856 b 432 917 514 897 488 917 b 307 758 360 917 313 858 b 429 817 326 792 371 817 b 618 628 536 817 618 756 b 415 438 618 507 532 438 m 417 518 b 529 631 489 518 529 563 b 418 736 529 697 492 736 b 307 631 353 736 308 697 b 417 518 306 563 347 518 "},"⁷":{"ha":833,"x_min":0,"x_max":0,"o":"m 333 447 b 493 906 333 615 390 772 l 236 906 l 236 986 l 597 986 l 597 925 b 422 447 489 786 422 639 l 333 447 "},"⁸":{"ha":833,"x_min":0,"x_max":0,"o":"m 417 438 b 215 593 286 438 215 494 b 324 739 215 658 257 713 b 242 857 274 757 242 790 b 417 997 242 944 303 997 b 592 857 532 997 592 944 b 510 739 592 790 560 757 b 618 593 575 711 618 658 b 417 438 618 494 547 438 m 417 776 b 500 851 471 776 500 801 b 417 917 500 892 471 917 b 333 851 363 917 333 892 b 417 776 333 801 363 776 m 417 518 b 526 599 486 518 526 544 b 417 693 526 651 486 693 b 307 599 347 693 307 651 b 417 518 307 544 347 518 "},"⁹":{"ha":833,"x_min":0,"x_max":0,"o":"m 418 997 b 618 747 538 997 618 910 b 401 438 618 578 557 438 b 222 571 290 438 243 482 l 308 579 b 401 518 319 538 346 518 b 526 676 474 518 521 576 b 404 618 507 643 463 618 b 215 807 297 618 215 679 b 418 997 215 928 301 997 m 417 917 b 304 804 344 917 304 872 b 415 699 304 738 342 699 b 526 804 481 699 525 738 b 417 917 528 872 486 917 "}," ":{"ha":833,"x_min":0,"x_max":0,"o":""}," ":{"ha":833,"x_min":0,"x_max":0,"o":""},".":{"ha":833,"x_min":0,"x_max":0,"o":"m 331 169 l 503 169 l 503 0 l 331 0 "},",":{"ha":833,"x_min":0,"x_max":0,"o":"m 408 0 l 333 0 l 333 169 l 500 169 l 500 19 l 413 -217 l 343 -217 "},":":{"ha":833,"x_min":0,"x_max":0,"o":"m 331 706 l 503 706 l 503 536 l 331 536 m 331 169 l 503 169 l 503 0 l 331 0 "},";":{"ha":833,"x_min":0,"x_max":0,"o":"m 331 706 l 503 706 l 503 536 l 331 536 m 408 0 l 333 0 l 333 169 l 500 169 l 500 19 l 413 -217 l 343 -217 "},"…":{"ha":833,"x_min":0,"x_max":0,"o":"m 69 169 l 242 169 l 242 0 l 69 0 m 329 169 l 501 169 l 501 0 l 329 0 m 592 169 l 764 169 l 764 0 l 592 0 "},"!":{"ha":833,"x_min":0,"x_max":0,"o":"m 379 290 b 357 667 371 388 357 556 l 357 986 l 476 986 l 476 667 b 456 290 476 556 464 388 l 379 290 m 331 169 l 503 169 l 503 0 l 331 0 "},"¡":{"ha":833,"x_min":0,"x_max":0,"o":"m 503 761 l 503 592 l 331 592 l 331 761 m 456 471 b 476 94 464 374 476 206 l 476 -225 l 357 -225 l 357 94 b 379 471 357 206 371 374 "},"?":{"ha":833,"x_min":0,"x_max":0,"o":"m 353 279 b 488 542 353 413 392 482 b 617 725 596 608 617 642 b 438 892 617 821 550 892 b 217 686 300 892 231 819 l 92 694 b 438 1008 108 878 235 1008 b 742 725 618 1008 742 890 b 568 469 742 608 688 547 b 472 279 493 421 472 376 l 353 279 m 326 169 l 499 169 l 499 0 l 326 0 "},"¿":{"ha":833,"x_min":0,"x_max":0,"o":"m 507 586 l 335 586 l 335 756 l 507 756 m 396 -225 b 92 35 215 -225 92 -125 b 265 299 92 157 146 221 b 361 489 340 347 361 392 l 481 489 b 346 226 481 356 442 286 b 217 35 238 160 217 124 b 396 -108 217 -56 283 -108 b 617 97 533 -108 603 -36 l 742 89 b 396 -225 725 -94 599 -225 "},"·":{"ha":833,"x_min":0,"x_max":0,"o":"m 331 507 l 503 507 l 503 338 l 331 338 "},"•":{"ha":833,"x_min":0,"x_max":0,"o":"m 417 282 b 267 432 335 282 267 350 b 417 582 267 515 335 582 b 567 432 499 582 567 515 b 417 282 567 350 499 282 "},"*":{"ha":833,"x_min":0,"x_max":0,"o":"m 253 578 l 346 719 l 181 719 l 181 808 l 346 808 l 253 950 l 325 997 l 417 849 l 510 997 l 582 950 l 488 808 l 653 808 l 653 719 l 488 719 l 582 578 l 510 531 l 417 678 l 325 531 "},"〃":{"ha":833,"x_min":0,"x_max":0,"o":"m 482 668 l 611 668 l 486 390 l 396 390 m 310 668 l 438 668 l 313 390 l 222 390 "},"#":{"ha":833,"x_min":0,"x_max":0,"o":"m 190 274 l 69 274 l 86 371 l 208 371 l 253 611 l 125 611 l 142 708 l 271 708 l 322 986 l 422 986 l 371 708 l 544 708 l 596 986 l 696 986 l 644 708 l 764 708 l 747 611 l 626 611 l 582 371 l 708 371 l 692 274 l 564 274 l 513 0 l 413 0 l 464 274 l 290 274 l 239 0 l 139 0 m 482 371 l 526 611 l 353 611 l 308 371 "},"/":{"ha":833,"x_min":0,"x_max":0,"o":"m 572 1042 l 683 1042 l 261 -153 l 150 -153 "},"\\":{"ha":833,"x_min":0,"x_max":0,"o":"m 572 -153 l 150 1042 l 261 1042 l 683 -153 "},"-":{"ha":833,"x_min":0,"x_max":0,"o":"m 194 460 l 639 460 l 639 350 l 194 350 "},"–":{"ha":833,"x_min":0,"x_max":0,"o":"m 139 460 l 694 460 l 694 351 l 139 351 "},"—":{"ha":833,"x_min":0,"x_max":0,"o":"m 28 460 l 806 460 l 806 351 l 28 351 "},"_":{"ha":833,"x_min":0,"x_max":0,"o":"m 111 0 l 722 0 l 722 -108 l 111 -108 "},"〜":{"ha":833,"x_min":0,"x_max":0,"o":"m 586 301 b 417 361 538 301 481 321 b 247 425 347 404 290 425 b 89 311 193 425 139 385 l 8 392 b 247 542 63 485 154 542 b 417 482 296 542 353 522 b 586 418 486 439 543 418 b 744 532 640 418 694 460 l 825 451 b 586 301 772 358 679 301 "},"(":{"ha":833,"x_min":0,"x_max":0,"o":"m 461 -153 b 268 444 333 39 268 242 b 461 1042 268 647 333 850 l 565 1042 b 389 444 449 843 389 643 b 565 -153 389 246 449 47 l 461 -153 "},")":{"ha":833,"x_min":0,"x_max":0,"o":"m 268 -153 b 444 444 385 47 444 246 b 268 1042 444 643 385 843 l 372 1042 b 565 444 500 850 565 647 b 372 -153 565 242 500 39 "},"{":{"ha":833,"x_min":0,"x_max":0,"o":"m 568 -160 b 332 79 421 -160 332 -61 l 332 194 b 189 383 332 314 281 383 l 189 499 b 332 688 281 499 332 568 l 332 803 b 568 1042 332 943 421 1042 l 644 1042 l 644 933 b 443 806 497 939 443 903 l 443 678 b 288 443 443 539 372 463 l 288 442 b 443 204 375 422 443 343 l 443 76 b 644 -51 443 -19 497 -56 l 644 -160 l 568 -160 "},"}":{"ha":833,"x_min":0,"x_max":0,"o":"m 189 -160 l 189 -51 b 390 76 336 -56 390 -19 l 390 204 b 546 442 390 343 458 422 l 546 443 b 390 678 461 463 390 539 l 390 806 b 189 933 390 903 336 939 l 189 1042 l 265 1042 b 501 803 413 1042 501 943 l 501 688 b 644 499 501 568 553 499 l 644 383 b 501 194 553 383 501 314 l 501 79 b 265 -160 501 -61 413 -160 "},"[":{"ha":833,"x_min":0,"x_max":0,"o":"m 250 -153 l 250 1042 l 583 1042 l 583 944 l 361 944 l 361 -56 l 583 -56 l 583 -153 "},"]":{"ha":833,"x_min":0,"x_max":0,"o":"m 250 -56 l 472 -56 l 472 944 l 250 944 l 250 1042 l 583 1042 l 583 -153 l 250 -153 "},"〈":{"ha":833,"x_min":0,"x_max":0,"o":"m 238 492 l 492 1140 l 603 1140 l 349 492 l 603 -158 l 492 -158 "},"〉":{"ha":833,"x_min":0,"x_max":0,"o":"m 231 -158 l 485 492 l 231 1140 l 342 1140 l 596 492 l 342 -158 "},"【":{"ha":833,"x_min":0,"x_max":0,"o":"m 257 -87 l 257 1146 l 638 1146 b 638 -87 388 749 388 311 "},"】":{"ha":833,"x_min":0,"x_max":0,"o":"m 196 -87 b 196 1146 446 311 446 749 l 576 1146 l 576 -87 l 196 -87 "},"「":{"ha":833,"x_min":0,"x_max":0,"o":"m 236 1147 l 657 1147 l 657 1039 l 349 1039 l 349 326 l 236 326 "},"」":{"ha":833,"x_min":0,"x_max":0,"o":"m 597 -143 l 176 -143 l 176 -35 l 485 -35 l 485 678 l 597 678 "},"《":{"ha":833,"x_min":0,"x_max":0,"o":"m 117 492 l 371 1140 l 482 1140 l 228 492 l 482 -158 l 371 -158 m 349 492 l 603 1140 l 714 1140 l 460 492 l 714 -158 l 603 -158 "},"》":{"ha":833,"x_min":0,"x_max":0,"o":"m 351 -158 l 606 492 l 351 1140 l 463 1140 l 717 492 l 463 -158 m 119 -158 l 374 492 l 119 1140 l 231 1140 l 485 492 l 231 -158 "},"〔":{"ha":833,"x_min":0,"x_max":0,"o":"m 244 111 l 244 871 l 590 1181 l 663 1101 l 356 826 l 356 156 l 665 -124 l 593 -203 "},"〕":{"ha":833,"x_min":0,"x_max":0,"o":"m 168 -124 l 478 156 l 478 826 l 171 1101 l 243 1181 l 589 871 l 589 111 l 240 -203 "},"『":{"ha":833,"x_min":0,"x_max":0,"o":"m 236 1147 l 657 1147 l 657 925 l 458 925 l 458 324 l 236 324 m 404 379 l 404 981 l 603 981 l 603 1092 l 292 1092 l 292 379 "},"』":{"ha":833,"x_min":0,"x_max":0,"o":"m 597 -143 l 176 -143 l 176 79 l 375 79 l 375 681 l 597 681 m 429 625 l 429 24 l 231 24 l 231 -87 l 542 -87 l 542 625 "},"〖":{"ha":833,"x_min":0,"x_max":0,"o":"m 257 -87 l 257 1146 l 625 1146 b 625 -87 375 749 375 311 m 528 -32 b 528 1090 335 342 335 718 l 313 1090 l 313 -32 l 528 -32 "},"〗":{"ha":833,"x_min":0,"x_max":0,"o":"m 208 -87 b 208 1146 458 311 458 749 l 576 1146 l 576 -87 l 208 -87 m 521 -32 l 521 1090 l 306 1090 b 306 -32 499 718 499 342 "},"‚":{"ha":833,"x_min":0,"x_max":0,"o":"m 408 0 l 333 0 l 333 169 l 500 169 l 500 19 l 413 -217 l 343 -217 "},"„":{"ha":833,"x_min":0,"x_max":0,"o":"m 269 0 l 194 0 l 194 169 l 361 169 l 361 19 l 274 -217 l 204 -217 m 547 0 l 472 0 l 472 169 l 639 169 l 639 19 l 551 -217 l 482 -217 "},"“":{"ha":833,"x_min":0,"x_max":0,"o":"m 564 792 l 639 792 l 639 622 l 472 622 l 472 772 l 560 1008 l 629 1008 m 286 792 l 361 792 l 361 622 l 194 622 l 194 772 l 282 1008 l 351 1008 "},"”":{"ha":833,"x_min":0,"x_max":0,"o":"m 269 817 l 194 817 l 194 986 l 361 986 l 361 836 l 274 600 l 204 600 m 547 817 l 472 817 l 472 986 l 639 986 l 639 836 l 551 600 l 482 600 "},"‘":{"ha":833,"x_min":0,"x_max":0,"o":"m 433 790 l 508 790 l 508 621 l 342 621 l 342 771 l 429 1007 l 499 1007 "},"’":{"ha":833,"x_min":0,"x_max":0,"o":"m 400 817 l 325 817 l 325 986 l 492 986 l 492 836 l 404 600 l 335 600 "},"«":{"ha":833,"x_min":0,"x_max":0,"o":"m 301 106 l 111 332 l 111 435 l 301 661 l 444 661 l 208 383 l 444 106 m 579 106 l 389 332 l 389 435 l 579 661 l 722 661 l 486 383 l 722 106 "},"»":{"ha":833,"x_min":0,"x_max":0,"o":"m 625 383 l 389 661 l 532 661 l 722 435 l 722 332 l 532 106 l 389 106 m 347 383 l 111 661 l 254 661 l 444 435 l 444 332 l 254 106 l 111 106 "},"‹":{"ha":833,"x_min":0,"x_max":0,"o":"m 440 106 l 250 332 l 250 435 l 440 661 l 583 661 l 347 383 l 583 106 "},"›":{"ha":833,"x_min":0,"x_max":0,"o":"m 486 383 l 250 661 l 393 661 l 583 435 l 583 332 l 393 106 l 250 106 "},"\"":{"ha":833,"x_min":0,"x_max":0,"o":"m 474 986 l 597 986 l 597 875 l 564 532 l 479 532 m 236 875 l 236 986 l 360 986 l 354 532 l 269 532 "},"'":{"ha":833,"x_min":0,"x_max":0,"o":"m 356 881 l 356 986 l 478 986 l 478 881 l 458 532 l 375 532 "},"ƒ":{"ha":833,"x_min":0,"x_max":0,"o":"m 111 103 l 239 103 b 325 179 290 103 319 129 l 375 633 l 226 633 l 226 736 l 386 736 l 393 800 b 601 986 407 924 476 988 l 722 985 l 722 883 l 592 883 b 507 806 542 883 513 856 l 499 736 l 722 736 l 722 633 l 488 633 l 438 185 b 228 -1 424 61 354 -3 l 111 0 "},"฿":{"ha":833,"x_min":0,"x_max":0,"o":"m 93 986 l 321 986 l 321 1118 l 418 1118 l 418 985 b 699 717 604 971 699 871 b 519 508 699 610 628 528 b 740 275 658 490 740 403 b 418 0 740 107 619 4 l 418 -126 l 321 -126 l 321 0 l 93 0 m 321 560 l 321 869 l 213 869 l 213 560 m 574 714 b 418 868 574 803 525 857 l 418 561 b 574 714 525 572 574 626 m 321 117 l 321 443 l 213 443 l 213 117 m 615 275 b 418 443 615 378 547 439 l 418 117 b 615 275 553 119 615 178 "},"":{"ha":833,"x_min":0,"x_max":0,"o":"m 146 0 b 11 135 68 0 11 57 l 11 676 b 146 811 11 754 68 811 l 688 811 b 822 676 765 811 822 754 l 822 135 b 688 0 822 57 765 0 l 146 0 m 713 172 l 415 688 l 119 172 "},"@":{"ha":833,"x_min":0,"x_max":0,"o":"m 594 -97 b 381 -153 521 -135 453 -153 b 28 340 175 -153 28 -7 b 458 986 28 769 213 986 b 806 531 686 986 806 799 b 608 106 806 194 718 106 b 492 226 553 106 510 154 b 347 111 463 151 410 111 b 200 350 254 111 200 204 b 407 696 200 532 292 696 b 508 626 457 696 494 668 l 517 694 l 614 694 b 578 303 593 500 578 374 b 625 200 578 235 599 200 b 708 524 675 200 708 281 b 453 889 708 749 632 889 b 125 342 269 889 125 711 b 383 -58 125 64 224 -58 b 558 -6 436 -58 497 -40 l 594 -97 m 381 197 b 493 464 440 197 493 324 b 419 601 493 556 468 601 b 308 361 358 601 308 486 b 381 197 308 261 333 197 "},"&":{"ha":833,"x_min":0,"x_max":0,"o":"m 333 -22 b 28 242 144 -22 28 72 b 222 547 28 368 75 443 b 122 781 158 631 122 693 b 364 1008 122 922 214 1008 b 594 797 511 1008 594 928 b 389 518 594 692 538 617 l 614 231 b 664 442 647 276 664 347 l 781 431 b 688 143 779 319 742 208 l 806 0 l 665 0 l 614 63 b 333 -22 560 11 467 -22 m 325 603 b 469 789 431 668 469 718 b 364 892 469 856 431 892 b 247 781 290 892 247 850 b 325 603 247 724 267 678 m 347 89 b 536 147 442 89 504 114 l 292 456 b 153 242 192 386 153 328 b 347 89 153 149 211 89 "},"¶":{"ha":833,"x_min":0,"x_max":0,"o":"m 375 425 b 111 706 224 425 111 533 b 382 986 111 878 231 986 l 694 986 l 694 0 l 583 0 l 583 881 l 486 881 l 486 0 l 375 0 "},"§":{"ha":833,"x_min":0,"x_max":0,"o":"m 431 -89 b 111 160 242 -89 125 17 l 232 168 b 431 22 246 79 310 22 b 599 125 557 22 599 63 b 399 254 599 182 544 224 b 135 461 208 294 135 356 b 265 639 135 542 179 601 b 138 794 181 676 138 729 b 424 1008 138 925 253 1008 b 721 772 590 1008 700 921 l 601 764 b 411 897 586 849 517 897 b 261 800 324 897 261 856 b 438 681 261 743 300 717 b 722 447 653 624 722 571 b 606 292 722 374 683 322 b 719 117 683 254 719 201 b 431 -89 719 -3 599 -89 m 471 344 b 613 453 557 344 613 388 b 386 582 613 544 490 582 b 246 474 310 582 246 533 b 471 344 246 411 299 344 "},"©":{"ha":833,"x_min":0,"x_max":0,"o":"m 415 -17 b 14 496 174 -17 14 194 b 415 1008 14 797 174 1008 b 819 496 657 1008 819 797 b 415 -17 819 194 657 -17 m 415 69 b 728 496 608 69 728 240 b 415 922 728 753 608 922 b 106 496 222 922 106 753 b 415 69 106 240 222 69 m 417 200 b 181 494 278 200 181 322 b 417 789 181 665 278 789 b 647 579 533 789 633 708 l 551 572 b 417 693 540 651 490 693 b 276 494 325 693 276 614 b 417 296 276 375 325 296 b 556 428 492 296 543 340 l 651 421 b 417 200 635 285 538 200 "},"®":{"ha":833,"x_min":0,"x_max":0,"o":"m 418 249 b 39 629 207 249 39 419 b 418 1008 39 839 207 1008 b 794 629 628 1008 794 839 b 418 249 794 419 628 249 m 418 324 b 714 629 594 324 714 463 b 418 933 714 796 594 933 b 119 629 240 933 119 796 b 418 324 119 463 240 324 m 267 835 l 404 835 b 575 708 511 835 575 788 b 485 593 575 650 542 608 l 592 421 l 504 421 l 408 583 l 344 583 l 344 421 l 267 421 m 415 647 b 500 711 469 647 500 672 b 415 769 500 749 469 769 l 344 769 l 344 647 "},"℗":{"ha":833,"x_min":0,"x_max":0,"o":"m 418 249 b 39 629 207 249 39 419 b 418 1008 39 839 207 1008 b 794 629 628 1008 794 839 b 418 249 794 419 628 249 m 418 324 b 714 629 594 324 714 463 b 418 933 714 796 594 933 b 119 629 240 933 119 796 b 418 324 119 463 240 324 m 292 835 l 429 835 b 600 708 536 835 600 788 b 429 583 600 624 536 583 l 369 583 l 369 421 l 292 421 m 440 647 b 525 711 494 647 525 672 b 440 769 525 749 494 769 l 369 769 l 369 647 "},"™":{"ha":833,"x_min":0,"x_max":0,"o":"m 379 986 l 468 986 l 592 607 l 718 986 l 806 986 l 806 499 l 724 499 l 724 765 l 633 499 l 551 499 l 461 767 l 461 499 l 379 499 m 142 908 l 28 908 l 28 986 l 339 986 l 339 908 l 224 908 l 224 499 l 142 499 "},"°":{"ha":833,"x_min":0,"x_max":0,"o":"m 417 569 b 197 789 297 569 197 664 b 417 1008 197 914 297 1008 b 636 789 536 1008 636 914 b 417 569 636 664 536 569 m 417 672 b 533 789 481 672 533 719 b 417 908 533 860 479 908 b 300 789 354 908 300 860 b 417 672 300 719 353 672 "},"′":{"ha":833,"x_min":0,"x_max":0,"o":"m 390 986 l 508 986 l 432 669 l 326 669 "},"″":{"ha":833,"x_min":0,"x_max":0,"o":"m 306 986 l 424 986 l 347 669 l 242 669 m 475 986 l 593 986 l 517 669 l 411 669 "},"|":{"ha":833,"x_min":0,"x_max":0,"o":"m 361 1042 l 472 1042 l 472 -153 l 361 -153 "},"¦":{"ha":833,"x_min":0,"x_max":0,"o":"m 363 1042 l 471 1042 l 471 549 l 363 549 m 363 340 l 471 340 l 471 -153 l 363 -153 "},"†":{"ha":833,"x_min":0,"x_max":0,"o":"m 361 631 l 139 631 l 139 736 l 361 736 l 361 986 l 472 986 l 472 736 l 694 736 l 694 631 l 472 631 l 472 0 l 361 0 "},"‡":{"ha":833,"x_min":0,"x_max":0,"o":"m 139 344 l 361 344 l 361 631 l 139 631 l 139 736 l 361 736 l 361 986 l 472 986 l 472 736 l 694 736 l 694 631 l 472 631 l 472 344 l 694 344 l 694 239 l 472 239 l 472 0 l 361 0 l 361 239 l 139 239 "},"№":{"ha":833,"x_min":0,"x_max":0,"o":"m 644 522 b 469 765 528 522 469 617 b 644 1008 469 913 528 1008 b 819 765 760 1008 819 911 b 644 522 819 617 760 522 m 14 986 l 181 986 l 319 194 l 319 986 l 431 986 l 431 0 l 264 0 l 125 792 l 125 0 l 14 0 m 644 613 b 708 765 692 613 708 669 b 644 918 708 860 692 918 b 581 765 594 918 581 857 b 644 613 581 671 594 613 m 492 394 l 797 394 l 797 292 l 492 292 "},"␣":{"ha":833,"x_min":0,"x_max":0,"o":"m 53 0 l 163 0 l 163 -156 l 671 -156 l 671 0 l 781 0 l 781 -264 l 53 -264 "},"␌":{"ha":833,"x_min":0,"x_max":0,"o":"m 110 875 l 393 875 l 393 807 l 181 807 l 181 675 l 381 675 l 381 607 l 181 607 l 181 417 l 110 417 m 461 557 l 744 557 l 744 489 l 531 489 l 531 357 l 732 357 l 732 289 l 531 289 l 531 99 l 461 99 "},"⌧":{"ha":833,"x_min":0,"x_max":0,"o":"m 19 986 l 814 986 l 814 0 l 19 0 m 718 96 l 718 890 l 115 890 l 115 96 m 214 365 l 340 492 l 213 618 l 290 696 l 418 569 l 543 694 l 619 618 l 494 493 l 621 365 l 543 288 l 417 415 l 290 289 "},"⌫":{"ha":833,"x_min":0,"x_max":0,"o":"m 6 490 l 219 986 l 822 986 l 822 0 l 219 0 m 726 96 l 726 890 l 285 890 l 111 492 l 285 96 m 251 365 l 378 492 l 250 618 l 328 696 l 454 568 l 581 694 l 656 618 l 531 493 l 657 365 l 581 288 l 453 415 l 328 289 "},"⌦":{"ha":833,"x_min":0,"x_max":0,"o":"m 11 0 l 11 986 l 614 986 l 828 490 l 614 0 m 722 492 l 549 890 l 107 890 l 107 96 l 549 96 m 176 365 l 303 493 l 178 618 l 253 694 l 379 568 l 506 696 l 583 618 l 457 492 l 582 365 l 506 289 l 381 415 l 253 288 "},"⏎":{"ha":833,"x_min":0,"x_max":0,"o":"m 6 419 l 419 847 l 419 581 l 501 581 l 501 986 l 824 986 l 824 258 l 419 258 l 419 -11 m 332 608 l 150 418 l 332 229 l 332 367 l 715 367 l 715 878 l 610 878 l 610 472 l 332 472 "},"␋":{"ha":833,"x_min":0,"x_max":0,"o":"m 72 875 l 146 875 l 250 521 l 354 875 l 428 875 l 288 417 l 213 417 m 558 489 l 426 489 l 426 557 l 761 557 l 761 489 l 629 489 l 629 99 l 558 99 "},"¢":{"ha":833,"x_min":0,"x_max":0,"o":"m 326 122 b 90 493 181 165 90 301 b 390 876 90 711 207 858 l 401 1008 l 499 1008 l 488 874 b 738 622 619 854 711 767 l 615 614 b 478 761 597 693 547 746 l 432 219 b 621 386 525 221 599 276 l 743 378 b 429 108 713 214 593 108 b 422 108 426 108 424 108 l 411 -17 l 314 -17 m 213 493 b 336 239 213 367 257 276 l 381 763 b 213 493 274 740 213 642 "},"¤":{"ha":833,"x_min":0,"x_max":0,"o":"m 46 231 l 175 360 b 124 524 143 406 124 463 b 175 689 124 585 143 642 l 46 818 l 124 894 l 253 767 b 417 817 300 799 356 817 b 581 767 478 817 533 799 l 710 894 l 788 818 l 658 689 b 710 524 690 642 710 585 b 658 360 710 463 690 406 l 788 231 l 710 154 l 582 282 b 417 231 535 250 478 231 b 251 282 356 231 299 250 l 124 154 m 417 328 b 613 524 522 328 613 415 b 417 719 613 632 522 719 b 221 524 308 719 221 632 b 417 328 221 415 308 328 "},"$":{"ha":833,"x_min":0,"x_max":0,"o":"m 365 -17 b 61 315 193 8 76 138 l 186 324 b 365 103 203 203 265 126 l 365 443 b 85 714 164 497 85 582 b 365 985 85 865 190 968 l 365 1111 l 468 1111 l 468 983 b 754 681 636 963 735 844 l 629 672 b 468 864 615 772 564 844 l 468 535 b 772 242 692 469 772 400 b 468 -21 772 96 650 -8 l 468 -125 l 365 -125 m 210 719 b 365 567 210 642 244 607 l 365 867 b 210 719 269 854 210 801 m 647 244 b 468 414 647 324 617 367 l 468 96 b 647 244 585 104 647 157 "},"€":{"ha":833,"x_min":0,"x_max":0,"o":"m 14 429 l 88 429 b 86 492 86 450 86 471 b 88 540 86 508 86 525 l 14 540 l 14 643 l 96 643 b 439 1008 129 871 243 1008 b 783 685 613 1008 742 889 l 656 676 b 439 892 624 818 542 892 b 221 643 317 892 246 804 l 529 643 l 514 540 l 213 540 b 211 492 211 525 211 508 b 213 429 211 469 211 449 l 501 429 l 486 326 l 224 326 b 439 94 250 176 319 94 b 665 332 553 94 638 175 l 792 325 b 439 -22 756 108 625 -22 b 99 326 247 -22 135 108 l 14 326 "},"₴":{"ha":833,"x_min":0,"x_max":0,"o":"m 28 643 l 611 643 b 642 742 626 668 642 703 b 442 892 642 828 589 892 b 219 729 314 892 250 833 l 89 742 b 439 1008 132 906 235 1008 b 756 742 644 1008 756 897 b 728 643 756 700 742 665 l 806 643 l 806 540 l 28 540 m 407 -17 b 72 244 207 -17 72 88 b 89 326 72 272 78 307 l 28 326 l 28 429 l 806 429 l 806 326 l 211 326 b 192 253 197 304 192 276 b 400 100 192 161 278 100 b 628 243 503 100 590 156 l 764 232 b 407 -17 719 79 583 -17 "},"₽":{"ha":833,"x_min":0,"x_max":0,"o":"m 153 169 l 42 169 l 42 272 l 153 272 l 153 986 l 453 986 b 792 685 658 986 792 874 b 453 383 792 496 658 383 l 272 383 l 272 272 l 514 272 l 514 169 l 272 169 l 272 0 l 153 0 m 439 500 b 667 685 594 500 667 565 b 439 869 667 804 594 869 l 272 869 l 272 500 "},"₹":{"ha":833,"x_min":0,"x_max":0,"o":"m 42 383 l 42 500 l 321 500 b 539 632 446 500 518 544 l 42 632 l 42 736 l 540 736 b 321 869 521 825 449 869 l 42 869 l 42 986 l 792 986 l 792 883 l 601 883 b 667 736 636 844 658 794 l 792 736 l 792 632 l 665 632 b 322 383 643 475 519 383 l 203 383 l 636 0 l 467 0 "},"₪":{"ha":833,"x_min":0,"x_max":0,"o":"m 247 771 l 361 771 l 361 114 l 607 114 b 692 201 658 114 692 147 l 692 986 l 806 986 l 806 208 b 597 0 806 81 725 0 l 247 0 m 28 986 l 378 986 b 585 778 504 986 585 906 l 585 215 l 471 215 l 471 785 b 386 872 471 838 438 872 l 142 872 l 142 0 l 28 0 "},"£":{"ha":833,"x_min":0,"x_max":0,"o":"m 64 114 b 226 386 168 176 226 269 b 221 440 226 403 224 421 l 64 440 l 64 543 l 197 543 b 157 735 174 615 157 678 b 450 1008 157 890 282 1008 b 769 764 657 1008 749 893 l 631 754 b 456 892 607 846 536 892 b 281 715 350 892 281 818 b 317 543 281 672 294 617 l 564 543 l 564 440 l 333 440 b 183 121 333 275 300 181 l 753 121 l 753 0 l 64 0 "},"¥":{"ha":833,"x_min":0,"x_max":0,"o":"m 108 307 l 358 307 l 358 403 l 357 404 l 108 404 l 108 513 l 301 513 l 56 986 l 192 986 l 417 525 l 642 986 l 778 986 l 535 513 l 728 513 l 728 404 l 479 404 l 478 403 l 478 307 l 728 307 l 728 199 l 478 199 l 478 0 l 358 0 l 358 199 l 108 199 "},"+":{"ha":833,"x_min":0,"x_max":0,"o":"m 85 464 l 363 464 l 363 742 l 471 742 l 471 464 l 749 464 l 749 356 l 471 356 l 471 78 l 363 78 l 363 356 l 85 356 "},"−":{"ha":833,"x_min":0,"x_max":0,"o":"m 111 464 l 722 464 l 722 356 l 111 356 "},"×":{"ha":833,"x_min":0,"x_max":0,"o":"m 340 410 l 124 626 l 200 703 l 417 486 l 633 703 l 710 626 l 493 410 l 710 193 l 633 117 l 417 333 l 200 117 l 124 193 "},"÷":{"ha":833,"x_min":0,"x_max":0,"o":"m 417 575 b 328 661 361 575 328 611 b 417 747 328 711 361 747 b 506 661 472 747 506 711 b 417 575 506 611 472 575 m 97 464 l 736 464 l 736 356 l 97 356 m 417 72 b 328 158 361 72 328 108 b 417 244 328 208 361 244 b 506 158 472 244 506 208 b 417 72 506 108 472 72 "},"=":{"ha":833,"x_min":0,"x_max":0,"o":"m 111 614 l 722 614 l 722 506 l 111 506 m 111 326 l 722 326 l 722 218 l 111 218 "},"≠":{"ha":833,"x_min":0,"x_max":0,"o":"m 111 326 l 342 326 l 394 506 l 111 506 l 111 614 l 428 614 l 476 779 l 574 779 l 525 614 l 722 614 l 722 506 l 492 506 l 439 326 l 722 326 l 722 218 l 407 218 l 357 51 l 260 51 l 310 218 l 111 218 "},">":{"ha":833,"x_min":0,"x_max":0,"o":"m 100 165 l 629 401 l 100 638 l 100 757 l 733 475 l 733 328 l 100 46 "},"<":{"ha":833,"x_min":0,"x_max":0,"o":"m 100 328 l 100 475 l 733 757 l 733 638 l 204 401 l 733 165 l 733 46 "},"≥":{"ha":833,"x_min":0,"x_max":0,"o":"m 101 272 l 635 457 l 101 642 l 101 758 l 732 531 l 732 383 l 101 156 m 101 103 l 732 103 l 732 0 l 101 0 "},"≤":{"ha":833,"x_min":0,"x_max":0,"o":"m 56 383 l 56 531 l 686 758 l 686 642 l 153 457 l 686 272 l 686 156 m 56 0 l 56 103 l 686 103 l 686 0 "},"±":{"ha":833,"x_min":0,"x_max":0,"o":"m 363 411 l 99 411 l 99 519 l 363 519 l 363 783 l 471 783 l 471 519 l 735 519 l 735 411 l 471 411 l 471 147 l 363 147 m 99 103 l 735 103 l 735 0 l 99 0 "},"≈":{"ha":833,"x_min":0,"x_max":0,"o":"m 597 481 b 447 568 532 481 503 501 b 349 643 390 638 379 643 b 274 494 300 643 274 592 l 164 494 b 344 750 164 646 238 750 b 496 661 415 750 447 724 b 596 588 544 599 560 588 b 669 736 643 588 669 639 l 779 736 b 597 481 779 583 706 481 m 597 175 b 447 263 532 175 503 196 b 349 338 390 332 379 338 b 274 189 300 338 274 286 l 164 189 b 344 444 164 340 238 444 b 496 356 415 444 447 418 b 596 282 544 293 560 282 b 669 431 643 282 669 333 l 779 431 b 597 175 779 278 706 175 "},"~":{"ha":833,"x_min":0,"x_max":0,"o":"m 543 328 b 393 415 478 328 449 349 b 294 490 336 485 325 490 b 219 342 246 490 219 439 l 110 342 b 290 597 110 493 183 597 b 442 508 361 597 393 571 b 542 435 490 446 506 435 b 615 583 589 435 615 486 l 725 583 b 543 328 725 431 651 328 "},"¬":{"ha":833,"x_min":0,"x_max":0,"o":"m 606 336 l 125 336 l 125 439 l 708 439 l 708 92 l 606 92 "},"^":{"ha":833,"x_min":0,"x_max":0,"o":"m 343 935 l 490 935 l 657 532 l 543 532 l 417 831 l 290 532 l 176 532 "},"∞":{"ha":833,"x_min":0,"x_max":0,"o":"m 210 160 b 11 376 94 160 11 257 b 210 593 11 496 94 593 b 417 454 288 593 371 539 b 626 592 464 542 547 592 b 822 376 739 593 822 496 b 626 160 822 257 739 160 b 417 299 551 160 463 207 b 210 160 371 210 285 160 m 210 265 b 367 376 265 265 331 311 b 210 488 331 440 265 486 b 117 376 154 488 117 442 b 210 265 117 311 154 265 m 626 265 b 717 376 679 267 717 313 b 626 486 717 439 679 485 b 465 376 571 488 506 442 b 626 265 504 310 571 264 "},"∫":{"ha":833,"x_min":0,"x_max":0,"o":"m 153 -208 l 163 -106 l 231 -106 b 315 -28 281 -106 308 -89 l 406 800 b 615 986 419 924 490 986 l 681 986 l 671 883 l 606 883 b 519 806 554 883 525 856 l 428 -22 b 218 -208 414 -146 349 -208 "},"∆":{"ha":833,"x_min":0,"x_max":0,"o":"m 14 111 l 342 986 l 492 986 l 819 111 l 819 0 l 14 0 m 725 108 l 417 892 l 108 108 "},"∏":{"ha":833,"x_min":0,"x_max":0,"o":"m 179 878 l 28 878 l 28 986 l 806 986 l 806 878 l 660 878 l 660 -208 l 551 -208 l 551 878 l 288 878 l 288 -208 l 179 -208 "},"∑":{"ha":833,"x_min":0,"x_max":0,"o":"m 86 117 l 339 493 l 86 869 l 86 986 l 747 986 l 747 869 l 224 869 l 475 493 l 224 117 l 747 117 l 747 0 l 86 0 "},"√":{"ha":833,"x_min":0,"x_max":0,"o":"m 14 467 l 126 467 l 242 -10 l 421 986 l 819 986 l 819 883 l 515 883 l 317 -208 l 178 -208 "},"µ":{"ha":833,"x_min":0,"x_max":0,"o":"m 129 736 l 246 736 l 246 297 b 397 86 246 157 296 86 b 588 297 515 86 588 168 l 588 736 l 704 736 l 704 0 l 593 0 l 593 122 b 397 -17 558 36 483 -17 b 246 71 328 -17 269 17 l 246 -208 l 129 -208 "},"∂":{"ha":833,"x_min":0,"x_max":0,"o":"m 404 -15 b 114 315 221 -15 114 114 b 410 646 114 517 232 646 b 604 568 489 646 554 613 b 196 903 558 751 436 857 l 224 1008 b 719 385 613 936 719 704 b 404 -15 719 128 586 -15 m 404 82 b 610 357 525 82 610 146 b 418 549 610 482 538 549 b 225 315 296 549 225 463 b 404 82 225 168 282 82 "},"%":{"ha":833,"x_min":0,"x_max":0,"o":"m 214 508 b 14 753 103 508 14 594 b 214 997 14 911 103 997 b 414 753 325 997 414 911 b 214 508 414 594 325 508 m 660 986 l 765 986 l 174 0 l 68 0 m 214 594 b 314 753 275 594 314 653 b 214 911 314 853 275 911 b 114 753 153 911 114 853 b 214 594 114 653 153 594 m 619 -11 b 419 233 508 -11 419 75 b 619 478 419 392 508 478 b 819 233 731 478 819 392 b 619 -11 819 75 731 -11 m 619 75 b 719 233 681 75 719 133 b 619 392 719 333 681 392 b 519 233 558 392 519 333 b 619 75 519 133 558 75 "},"‰":{"ha":833,"x_min":0,"x_max":0,"o":"m 186 508 b 0 753 75 508 0 594 b 186 997 0 911 75 997 b 372 753 297 997 372 911 b 186 508 372 594 297 508 m 581 986 l 678 986 l 97 0 l 0 0 m 186 594 b 272 753 247 594 272 653 b 186 911 272 853 247 911 b 100 753 125 911 100 853 b 186 594 100 653 125 594 m 458 -11 b 314 233 375 -11 314 75 b 458 478 314 392 375 478 b 574 408 503 478 544 454 b 689 478 603 454 644 478 b 833 233 772 478 833 392 b 689 -11 833 75 772 -11 b 574 58 644 -11 603 13 b 458 -11 544 13 503 -11 m 472 75 b 531 233 506 75 531 106 b 472 392 531 347 506 392 b 414 233 439 392 414 347 b 472 75 414 106 439 75 m 675 75 b 733 233 708 75 733 106 b 675 392 733 347 708 392 b 617 233 642 392 617 347 b 675 75 617 106 642 75 "},"↑":{"ha":833,"x_min":0,"x_max":0,"o":"m 363 764 l 40 442 l 40 589 l 417 964 l 793 588 l 793 440 l 471 761 l 471 25 l 363 25 "},"↗":{"ha":833,"x_min":0,"x_max":0,"o":"m 556 882 l 100 882 l 204 986 l 736 986 l 736 453 l 632 349 l 631 804 l 110 283 l 33 360 "},"→":{"ha":833,"x_min":0,"x_max":0,"o":"m 622 383 l 24 383 l 24 492 l 622 492 l 315 800 l 463 800 l 824 438 l 463 76 l 314 75 "},"↘":{"ha":833,"x_min":0,"x_max":0,"o":"m 572 106 l 51 626 l 128 703 l 650 181 l 650 636 l 754 532 l 754 0 l 221 0 l 117 104 "},"↓":{"ha":833,"x_min":0,"x_max":0,"o":"m 793 401 l 417 25 l 40 400 l 40 547 l 363 225 l 363 964 l 471 964 l 471 228 l 793 549 "},"↙":{"ha":833,"x_min":0,"x_max":0,"o":"m 613 0 l 79 0 l 79 532 l 183 636 l 183 181 l 706 703 l 782 626 l 261 106 l 717 104 "},"←":{"ha":833,"x_min":0,"x_max":0,"o":"m 371 76 l 10 438 l 371 800 l 518 800 l 211 492 l 810 492 l 810 383 l 211 383 l 519 75 "},"↖":{"ha":833,"x_min":0,"x_max":0,"o":"m 97 453 l 97 986 l 629 986 l 733 882 l 278 882 l 800 360 l 724 283 l 203 804 l 201 349 "},"↔":{"ha":833,"x_min":0,"x_max":0,"o":"m 3 476 l 228 701 l 374 701 l 204 531 l 629 531 l 460 701 l 606 701 l 831 476 l 604 249 l 458 249 l 629 422 l 204 422 l 375 249 l 229 249 "},"↕":{"ha":833,"x_min":0,"x_max":0,"o":"m 178 226 l 178 374 l 364 189 l 364 892 l 178 707 l 178 854 l 418 1093 l 656 856 l 656 708 l 472 892 l 472 189 l 656 372 l 656 225 l 418 -12 "},"↝":{"ha":833,"x_min":0,"x_max":0,"o":"m 403 257 b 319 389 343 292 326 340 b 268 521 310 443 314 494 b 140 431 222 547 167 510 l 25 431 b 318 617 50 578 208 679 b 406 464 389 575 399 518 b 454 351 410 417 414 374 b 589 436 500 325 549 364 l 476 503 l 774 640 l 804 311 l 683 382 b 403 257 608 257 497 203 "},"⇤":{"ha":833,"x_min":0,"x_max":0,"o":"m 28 707 l 136 707 l 136 165 l 28 165 m 172 436 l 440 660 l 440 490 l 806 490 l 806 382 l 442 382 l 442 213 "},"⇥":{"ha":833,"x_min":0,"x_max":0,"o":"m 697 165 l 697 707 l 806 707 l 806 165 m 392 382 l 28 382 l 28 490 l 393 490 l 393 660 l 661 436 l 392 213 "},"↩":{"ha":833,"x_min":0,"x_max":0,"o":"m 256 164 l 24 396 l 253 626 l 401 626 l 224 450 l 504 450 b 700 632 614 450 700 531 b 504 815 700 735 614 815 l 94 815 l 94 924 l 504 924 b 810 632 675 924 810 796 b 504 342 810 468 675 342 l 226 342 l 403 164 "},"↪":{"ha":833,"x_min":0,"x_max":0,"o":"m 607 342 l 329 342 b 24 632 158 342 24 468 b 329 924 24 796 158 924 l 739 924 l 739 815 l 329 815 b 133 632 219 815 133 735 b 329 450 133 531 219 450 l 610 450 l 432 626 l 581 626 l 810 396 l 578 164 l 431 164 "},"↰":{"ha":833,"x_min":0,"x_max":0,"o":"m 25 618 l 293 842 l 293 672 l 792 672 l 792 0 l 683 0 l 683 564 l 294 564 l 294 394 "},"↱":{"ha":833,"x_min":0,"x_max":0,"o":"m 42 0 l 42 672 l 540 672 l 540 842 l 808 618 l 539 394 l 539 564 l 150 564 l 150 0 "},"↳":{"ha":833,"x_min":0,"x_max":0,"o":"m 808 368 l 540 144 l 540 314 l 42 314 l 42 986 l 150 986 l 150 422 l 539 422 l 539 592 "},"↴":{"ha":833,"x_min":0,"x_max":0,"o":"m 375 269 l 543 269 l 543 876 l 19 876 l 19 985 l 653 985 l 653 268 l 821 268 l 597 0 "},"↵":{"ha":833,"x_min":0,"x_max":0,"o":"m 294 422 l 683 422 l 683 986 l 792 986 l 792 314 l 293 314 l 293 144 l 25 368 l 294 592 "},"⇧":{"ha":833,"x_min":0,"x_max":0,"o":"m 197 550 l 3 550 l 418 985 l 831 550 l 639 550 l 639 0 l 197 0 m 531 108 l 531 632 l 607 632 l 418 835 l 228 632 l 306 632 l 306 108 "},"●":{"ha":833,"x_min":0,"x_max":0,"o":"m 418 110 b 22 494 194 110 22 271 b 418 882 22 721 194 882 b 813 494 640 882 813 721 b 418 110 813 271 640 110 "},"○":{"ha":833,"x_min":0,"x_max":0,"o":"m 418 110 b 22 494 194 110 22 272 b 418 882 22 719 194 882 b 813 494 640 882 813 719 b 418 110 813 272 640 110 m 418 214 b 704 494 579 214 704 331 b 418 778 704 661 579 778 b 131 494 256 778 131 661 b 418 214 131 331 256 214 "},"◌":{"ha":833,"x_min":0,"x_max":0,"o":"m 326 894 b 414 904 354 900 383 903 l 415 822 b 342 815 390 822 365 819 m 544 800 b 474 818 522 808 497 814 l 486 899 b 572 875 517 894 544 886 l 544 800 m 178 833 b 258 874 203 850 229 863 l 286 799 b 222 765 264 790 243 779 m 653 732 b 596 775 636 749 617 763 l 638 844 b 710 790 663 829 688 811 l 653 732 m 65 718 b 122 788 82 744 100 767 l 178 729 b 133 675 161 713 146 694 m 725 625 b 689 688 715 647 704 668 l 757 735 b 799 656 772 711 788 685 l 725 625 m 8 567 b 32 653 14 597 21 626 l 108 624 b 89 554 99 601 93 578 m 749 499 b 740 571 749 522 746 547 l 819 588 b 829 499 826 558 829 529 l 749 499 m 13 407 b 3 496 6 435 3 464 l 83 496 b 92 424 83 471 86 447 l 13 407 m 725 371 b 744 440 733 392 740 417 l 824 428 b 800 340 818 397 811 368 m 78 258 b 33 339 60 283 46 310 l 108 369 b 143 307 118 346 129 325 l 78 258 m 653 265 b 699 319 671 282 686 300 l 767 276 b 710 206 751 251 731 226 m 197 150 b 125 206 171 165 146 185 l 181 263 b 239 221 197 247 218 232 l 197 150 m 544 196 b 608 229 568 206 589 215 l 653 161 b 574 121 628 144 601 132 m 347 97 b 261 119 318 101 289 110 l 290 194 b 360 178 311 188 336 181 l 347 97 m 415 174 b 489 179 440 174 467 175 l 504 101 b 415 92 476 96 446 92 "},"◊":{"ha":833,"x_min":0,"x_max":0,"o":"m 110 447 l 344 894 l 488 894 l 722 447 l 488 0 l 344 0 m 417 93 l 603 447 l 417 801 l 229 447 "},"▲":{"ha":833,"x_min":0,"x_max":0,"o":"m 415 701 l 821 0 l 11 0 "},"▶":{"ha":833,"x_min":0,"x_max":0,"o":"m 626 497 l -75 92 l -75 901 "},"▼":{"ha":833,"x_min":0,"x_max":0,"o":"m 821 986 l 415 285 l 11 986 "},"◀":{"ha":833,"x_min":0,"x_max":0,"o":"m 908 92 l 207 497 l 908 901 "},"△":{"ha":833,"x_min":0,"x_max":0,"o":"m 415 838 l 821 136 l 11 136 m 644 239 l 415 635 l 188 239 "},"▷":{"ha":833,"x_min":0,"x_max":0,"o":"m 763 497 l 61 92 l 61 901 m 164 268 l 560 497 l 164 725 "},"▽":{"ha":833,"x_min":0,"x_max":0,"o":"m 821 861 l 415 160 l 11 861 m 415 363 l 644 758 l 188 758 "},"◁":{"ha":833,"x_min":0,"x_max":0,"o":"m 772 92 l 71 497 l 772 901 m 274 497 l 669 268 l 669 725 "},"┌":{"ha":833,"x_min":0,"x_max":0,"o":"m 357 563 l 833 563 l 833 443 l 476 443 l 476 -343 l 357 -343 "},"─":{"ha":833,"x_min":0,"x_max":0,"o":"m -56 563 l 833 563 l 833 443 l -56 443 "},"└":{"ha":833,"x_min":0,"x_max":0,"o":"m 357 1404 l 476 1404 l 476 563 l 833 563 l 833 443 l 357 443 "},"│":{"ha":833,"x_min":0,"x_max":0,"o":"m 357 1406 l 476 1406 l 476 -343 l 357 -343 "},"├":{"ha":833,"x_min":0,"x_max":0,"o":"m 357 1406 l 476 1406 l 476 563 l 833 563 l 833 443 l 476 443 l 476 -343 l 357 -343 "},"̈":{"ha":0,"x_min":0,"x_max":0,"o":"m 222 988 l 344 988 l 344 851 l 222 851 m 489 988 l 611 988 l 611 851 l 489 851 "},"̇":{"ha":0,"x_min":0,"x_max":0,"o":"m 356 988 l 478 988 l 478 851 l 356 851 "},"̀":{"ha":0,"x_min":0,"x_max":0,"o":"m 306 1011 l 436 1011 l 528 833 l 431 833 "},"́":{"ha":0,"x_min":0,"x_max":0,"o":"m 397 1011 l 528 1011 l 403 833 l 306 833 "},"̋":{"ha":0,"x_min":0,"x_max":0,"o":"m 300 1008 l 431 1008 l 306 831 l 208 831 m 494 1008 l 625 1008 l 500 831 l 403 831 "},"̂":{"ha":0,"x_min":0,"x_max":0,"o":"m 351 1015 l 482 1015 l 611 831 l 514 831 l 417 956 l 319 831 l 222 831 "},"̌":{"ha":0,"x_min":0,"x_max":0,"o":"m 319 1015 l 417 890 l 514 1015 l 611 1015 l 482 831 l 351 831 l 222 1015 "},"̆":{"ha":0,"x_min":0,"x_max":0,"o":"m 417 838 b 222 1015 303 838 228 907 l 303 1015 b 417 924 311 951 353 924 b 531 1015 481 924 522 951 l 611 1015 b 417 838 606 907 531 838 "},"̊":{"ha":0,"x_min":0,"x_max":0,"o":"m 417 800 b 289 928 344 800 289 856 b 417 1056 289 1000 344 1056 b 544 928 489 1056 544 1000 b 417 800 544 856 489 800 m 417 869 b 475 928 450 869 475 894 b 417 986 475 961 450 986 b 358 928 383 986 358 961 b 417 869 358 894 383 869 "},"̃":{"ha":0,"x_min":0,"x_max":0,"o":"m 500 847 b 403 889 464 847 433 864 b 331 925 371 915 358 925 b 269 838 297 925 272 904 l 197 838 b 331 1000 200 944 256 1000 b 436 956 375 1000 404 982 b 506 922 465 932 483 922 b 564 1014 540 922 558 944 l 636 1014 b 500 847 631 908 579 847 "},"̄":{"ha":0,"x_min":0,"x_max":0,"o":"m 231 968 l 603 968 l 603 868 l 231 868 "},"̒":{"ha":0,"x_min":0,"x_max":0,"o":"m 439 963 l 486 963 l 486 838 l 347 838 l 347 957 l 436 1096 l 514 1096 "},"̦":{"ha":0,"x_min":0,"x_max":0,"o":"m 394 -200 l 347 -200 l 347 -75 l 486 -75 l 486 -194 l 397 -333 l 319 -333 "},"̧":{"ha":0,"x_min":0,"x_max":0,"o":"m 419 -306 b 257 -197 331 -306 276 -258 l 328 -169 b 417 -228 344 -211 371 -228 b 492 -172 464 -228 492 -207 b 386 -111 492 -137 475 -111 l 347 -69 l 400 14 l 489 14 l 442 -50 b 575 -175 532 -54 575 -103 b 419 -306 575 -253 510 -306 "},"̨":{"ha":0,"x_min":0,"x_max":0,"o":"m 419 -292 b 294 -181 342 -292 294 -250 b 351 -42 294 -133 313 -90 l 396 14 l 492 0 l 443 -62 b 400 -156 407 -110 400 -133 b 442 -197 400 -183 415 -197 b 506 -178 461 -197 489 -192 l 539 -256 b 419 -292 517 -278 472 -292 "},"̵":{"ha":0,"x_min":0,"x_max":0,"o":"m 208 533 l 625 533 l 625 439 l 208 439 "},"̶":{"ha":0,"x_min":0,"x_max":0,"o":"m 28 849 l 806 849 l 806 738 l 28 738 "},"̷":{"ha":0,"x_min":0,"x_max":0,"o":"m 208 503 l 625 669 l 625 578 l 208 411 "},"̸":{"ha":0,"x_min":0,"x_max":0,"o":"m 622 753 l 722 753 l 211 -22 l 111 -22 "},"¨":{"ha":833,"x_min":0,"x_max":0,"o":"m 222 988 l 344 988 l 344 851 l 222 851 m 489 988 l 611 988 l 611 851 l 489 851 "},"˙":{"ha":833,"x_min":0,"x_max":0,"o":"m 356 988 l 478 988 l 478 851 l 356 851 "},"`":{"ha":833,"x_min":0,"x_max":0,"o":"m 306 1011 l 436 1011 l 528 833 l 431 833 "},"´":{"ha":833,"x_min":0,"x_max":0,"o":"m 397 1011 l 528 1011 l 403 833 l 306 833 "},"˝":{"ha":833,"x_min":0,"x_max":0,"o":"m 300 1008 l 431 1008 l 306 831 l 208 831 m 494 1008 l 625 1008 l 500 831 l 403 831 "},"ˆ":{"ha":833,"x_min":0,"x_max":0,"o":"m 351 1015 l 482 1015 l 611 831 l 514 831 l 417 956 l 319 831 l 222 831 "},"ˇ":{"ha":833,"x_min":0,"x_max":0,"o":"m 319 1015 l 417 890 l 514 1015 l 611 1015 l 482 831 l 351 831 l 222 1015 "},"˘":{"ha":833,"x_min":0,"x_max":0,"o":"m 417 838 b 222 1015 303 838 228 907 l 303 1015 b 417 924 311 951 353 924 b 531 1015 481 924 522 951 l 611 1015 b 417 838 606 907 531 838 "},"˚":{"ha":833,"x_min":0,"x_max":0,"o":"m 417 800 b 289 928 344 800 289 856 b 417 1056 289 1000 344 1056 b 544 928 489 1056 544 1000 b 417 800 544 856 489 800 m 417 869 b 475 928 450 869 475 894 b 417 986 475 961 450 986 b 358 928 383 986 358 961 b 417 869 358 894 383 869 "},"˜":{"ha":833,"x_min":0,"x_max":0,"o":"m 500 847 b 403 889 464 847 433 864 b 331 925 371 915 358 925 b 269 838 297 925 272 904 l 197 838 b 331 1000 200 944 256 1000 b 436 956 375 1000 404 982 b 506 922 465 932 483 922 b 564 1014 540 922 558 944 l 636 1014 b 500 847 631 908 579 847 "},"¯":{"ha":833,"x_min":0,"x_max":0,"o":"m 231 968 l 603 968 l 603 868 l 231 868 "},"¸":{"ha":833,"x_min":0,"x_max":0,"o":"m 419 -306 b 257 -197 331 -306 276 -258 l 328 -169 b 417 -228 344 -211 371 -228 b 492 -172 464 -228 492 -207 b 386 -111 492 -137 475 -111 l 347 -69 l 400 14 l 489 14 l 442 -50 b 575 -175 532 -54 575 -103 b 419 -306 575 -253 510 -306 "},"˛":{"ha":833,"x_min":0,"x_max":0,"o":"m 419 -292 b 294 -181 342 -292 294 -250 b 351 -42 294 -133 313 -90 l 396 14 l 492 0 l 443 -62 b 400 -156 407 -110 400 -133 b 442 -197 400 -183 415 -197 b 506 -178 461 -197 489 -192 l 539 -256 b 419 -292 517 -278 472 -292 "},"ʼ":{"ha":833,"x_min":0,"x_max":0,"o":"m 393 817 l 318 817 l 318 986 l 485 986 l 485 836 l 397 600 l 328 600 "},"ʹ":{"ha":833,"x_min":0,"x_max":0,"o":"m 397 1011 l 528 1011 l 403 833 l 306 833 "},"ˈ":{"ha":833,"x_min":0,"x_max":0,"o":"m 356 881 l 356 986 l 478 986 l 478 881 l 458 593 l 375 593 "}}}
